<?xml version="1.0" encoding="utf-8" standalone="no"?>
<!DOCTYPE svg PUBLIC "-//W3C//DTD SVG 1.1//EN"
  "http://www.w3.org/Graphics/SVG/1.1/DTD/svg11.dtd">
<svg xmlns:xlink="http://www.w3.org/1999/xlink" width="576pt" height="288pt" viewBox="0 0 576 288" xmlns="http://www.w3.org/2000/svg" version="1.1">
 <metadata>
  <rdf:RDF xmlns:dc="http://purl.org/dc/elements/1.1/" xmlns:cc="http://creativecommons.org/ns#" xmlns:rdf="http://www.w3.org/1999/02/22-rdf-syntax-ns#">
   <cc:Work>
    <dc:type rdf:resource="http://purl.org/dc/dcmitype/StillImage"/>
    <dc:date>2024-04-14T21:54:33.933279</dc:date>
    <dc:format>image/svg+xml</dc:format>
    <dc:creator>
     <cc:Agent>
      <dc:title>Matplotlib v3.7.1, https://matplotlib.org/</dc:title>
     </cc:Agent>
    </dc:creator>
   </cc:Work>
  </rdf:RDF>
 </metadata>
 <defs>
  <style type="text/css">*{stroke-linejoin: round; stroke-linecap: butt}</style>
 </defs>
 <g id="figure_1">
  <g id="patch_1">
   <path d="M 0 288 
L 576 288 
L 576 0 
L 0 0 
z
" style="fill: #ffffff"/>
  </g>
  <g id="axes_1">
   <g id="patch_2">
    <path d="M 40.82 248.2 
L 565.2 248.2 
L 565.2 10.8 
L 40.82 10.8 
z
" style="fill: #ffffff"/>
   </g>
   <g id="matplotlib.axis_1">
    <g id="xtick_1">
     <g id="line2d_1">
      <defs>
       <path id="m1f77061e95" d="M 0 0 
L 0 3.5 
" style="stroke: #000000; stroke-width: 0.8"/>
      </defs>
      <g>
       <use xlink:href="#m1f77061e95" x="64.655455" y="248.2" style="stroke: #000000; stroke-width: 0.8"/>
      </g>
     </g>
     <g id="text_1">
      <!-- 0 -->
      <g transform="translate(62.155455 262.14375) scale(0.1 -0.1)">
       <defs>
        <path id="TimesNewRomanPSMT-30" d="M 231 2094 
Q 231 2819 450 3342 
Q 669 3866 1031 4122 
Q 1313 4325 1613 4325 
Q 2100 4325 2488 3828 
Q 2972 3213 2972 2159 
Q 2972 1422 2759 906 
Q 2547 391 2217 158 
Q 1888 -75 1581 -75 
Q 975 -75 572 641 
Q 231 1244 231 2094 
z
M 844 2016 
Q 844 1141 1059 588 
Q 1238 122 1591 122 
Q 1759 122 1940 273 
Q 2122 425 2216 781 
Q 2359 1319 2359 2297 
Q 2359 3022 2209 3506 
Q 2097 3866 1919 4016 
Q 1791 4119 1609 4119 
Q 1397 4119 1231 3928 
Q 1006 3669 925 3112 
Q 844 2556 844 2016 
z
" transform="scale(0.015625)"/>
       </defs>
       <use xlink:href="#TimesNewRomanPSMT-30"/>
      </g>
     </g>
    </g>
    <g id="xtick_2">
     <g id="line2d_2">
      <g>
       <use xlink:href="#m1f77061e95" x="160.380172" y="248.2" style="stroke: #000000; stroke-width: 0.8"/>
      </g>
     </g>
     <g id="text_2">
      <!-- 100 -->
      <g transform="translate(152.880172 262.14375) scale(0.1 -0.1)">
       <defs>
        <path id="TimesNewRomanPSMT-31" d="M 750 3822 
L 1781 4325 
L 1884 4325 
L 1884 747 
Q 1884 391 1914 303 
Q 1944 216 2037 169 
Q 2131 122 2419 116 
L 2419 0 
L 825 0 
L 825 116 
Q 1125 122 1212 167 
Q 1300 213 1334 289 
Q 1369 366 1369 747 
L 1369 3034 
Q 1369 3497 1338 3628 
Q 1316 3728 1258 3775 
Q 1200 3822 1119 3822 
Q 1003 3822 797 3725 
L 750 3822 
z
" transform="scale(0.015625)"/>
       </defs>
       <use xlink:href="#TimesNewRomanPSMT-31"/>
       <use xlink:href="#TimesNewRomanPSMT-30" x="50"/>
       <use xlink:href="#TimesNewRomanPSMT-30" x="100"/>
      </g>
     </g>
    </g>
    <g id="xtick_3">
     <g id="line2d_3">
      <g>
       <use xlink:href="#m1f77061e95" x="256.104889" y="248.2" style="stroke: #000000; stroke-width: 0.8"/>
      </g>
     </g>
     <g id="text_3">
      <!-- 200 -->
      <g transform="translate(248.604889 262.14375) scale(0.1 -0.1)">
       <defs>
        <path id="TimesNewRomanPSMT-32" d="M 2934 816 
L 2638 0 
L 138 0 
L 138 116 
Q 1241 1122 1691 1759 
Q 2141 2397 2141 2925 
Q 2141 3328 1894 3587 
Q 1647 3847 1303 3847 
Q 991 3847 742 3664 
Q 494 3481 375 3128 
L 259 3128 
Q 338 3706 661 4015 
Q 984 4325 1469 4325 
Q 1984 4325 2329 3994 
Q 2675 3663 2675 3213 
Q 2675 2891 2525 2569 
Q 2294 2063 1775 1497 
Q 997 647 803 472 
L 1909 472 
Q 2247 472 2383 497 
Q 2519 522 2628 598 
Q 2738 675 2819 816 
L 2934 816 
z
" transform="scale(0.015625)"/>
       </defs>
       <use xlink:href="#TimesNewRomanPSMT-32"/>
       <use xlink:href="#TimesNewRomanPSMT-30" x="50"/>
       <use xlink:href="#TimesNewRomanPSMT-30" x="100"/>
      </g>
     </g>
    </g>
    <g id="xtick_4">
     <g id="line2d_4">
      <g>
       <use xlink:href="#m1f77061e95" x="351.829606" y="248.2" style="stroke: #000000; stroke-width: 0.8"/>
      </g>
     </g>
     <g id="text_4">
      <!-- 300 -->
      <g transform="translate(344.329606 262.14375) scale(0.1 -0.1)">
       <defs>
        <path id="TimesNewRomanPSMT-33" d="M 325 3431 
Q 506 3859 782 4092 
Q 1059 4325 1472 4325 
Q 1981 4325 2253 3994 
Q 2459 3747 2459 3466 
Q 2459 3003 1878 2509 
Q 2269 2356 2469 2072 
Q 2669 1788 2669 1403 
Q 2669 853 2319 450 
Q 1863 -75 997 -75 
Q 569 -75 414 31 
Q 259 138 259 259 
Q 259 350 332 419 
Q 406 488 509 488 
Q 588 488 669 463 
Q 722 447 909 348 
Q 1097 250 1169 231 
Q 1284 197 1416 197 
Q 1734 197 1970 444 
Q 2206 691 2206 1028 
Q 2206 1275 2097 1509 
Q 2016 1684 1919 1775 
Q 1784 1900 1550 2001 
Q 1316 2103 1072 2103 
L 972 2103 
L 972 2197 
Q 1219 2228 1467 2375 
Q 1716 2522 1828 2728 
Q 1941 2934 1941 3181 
Q 1941 3503 1739 3701 
Q 1538 3900 1238 3900 
Q 753 3900 428 3381 
L 325 3431 
z
" transform="scale(0.015625)"/>
       </defs>
       <use xlink:href="#TimesNewRomanPSMT-33"/>
       <use xlink:href="#TimesNewRomanPSMT-30" x="50"/>
       <use xlink:href="#TimesNewRomanPSMT-30" x="100"/>
      </g>
     </g>
    </g>
    <g id="xtick_5">
     <g id="line2d_5">
      <g>
       <use xlink:href="#m1f77061e95" x="447.554323" y="248.2" style="stroke: #000000; stroke-width: 0.8"/>
      </g>
     </g>
     <g id="text_5">
      <!-- 400 -->
      <g transform="translate(440.054323 262.14375) scale(0.1 -0.1)">
       <defs>
        <path id="TimesNewRomanPSMT-34" d="M 2978 1563 
L 2978 1119 
L 2409 1119 
L 2409 0 
L 1894 0 
L 1894 1119 
L 100 1119 
L 100 1519 
L 2066 4325 
L 2409 4325 
L 2409 1563 
L 2978 1563 
z
M 1894 1563 
L 1894 3666 
L 406 1563 
L 1894 1563 
z
" transform="scale(0.015625)"/>
       </defs>
       <use xlink:href="#TimesNewRomanPSMT-34"/>
       <use xlink:href="#TimesNewRomanPSMT-30" x="50"/>
       <use xlink:href="#TimesNewRomanPSMT-30" x="100"/>
      </g>
     </g>
    </g>
    <g id="xtick_6">
     <g id="line2d_6">
      <g>
       <use xlink:href="#m1f77061e95" x="543.27904" y="248.2" style="stroke: #000000; stroke-width: 0.8"/>
      </g>
     </g>
     <g id="text_6">
      <!-- 500 -->
      <g transform="translate(535.77904 262.14375) scale(0.1 -0.1)">
       <defs>
        <path id="TimesNewRomanPSMT-35" d="M 2778 4238 
L 2534 3706 
L 1259 3706 
L 981 3138 
Q 1809 3016 2294 2522 
Q 2709 2097 2709 1522 
Q 2709 1188 2573 903 
Q 2438 619 2231 419 
Q 2025 219 1772 97 
Q 1413 -75 1034 -75 
Q 653 -75 479 54 
Q 306 184 306 341 
Q 306 428 378 495 
Q 450 563 559 563 
Q 641 563 702 538 
Q 763 513 909 409 
Q 1144 247 1384 247 
Q 1750 247 2026 523 
Q 2303 800 2303 1197 
Q 2303 1581 2056 1914 
Q 1809 2247 1375 2428 
Q 1034 2569 447 2591 
L 1259 4238 
L 2778 4238 
z
" transform="scale(0.015625)"/>
       </defs>
       <use xlink:href="#TimesNewRomanPSMT-35"/>
       <use xlink:href="#TimesNewRomanPSMT-30" x="50"/>
       <use xlink:href="#TimesNewRomanPSMT-30" x="100"/>
      </g>
     </g>
    </g>
    <g id="text_7">
     <!-- generation -->
     <g transform="translate(281.908437 275.226562) scale(0.1 -0.1)">
      <defs>
       <path id="TimesNewRomanPSMT-67" d="M 966 1044 
Q 703 1172 562 1401 
Q 422 1631 422 1909 
Q 422 2334 742 2640 
Q 1063 2947 1563 2947 
Q 1972 2947 2272 2747 
L 2878 2747 
Q 3013 2747 3034 2739 
Q 3056 2731 3066 2713 
Q 3084 2684 3084 2613 
Q 3084 2531 3069 2500 
Q 3059 2484 3036 2475 
Q 3013 2466 2878 2466 
L 2506 2466 
Q 2681 2241 2681 1891 
Q 2681 1491 2375 1206 
Q 2069 922 1553 922 
Q 1341 922 1119 984 
Q 981 866 932 777 
Q 884 688 884 625 
Q 884 572 936 522 
Q 988 472 1138 450 
Q 1225 438 1575 428 
Q 2219 413 2409 384 
Q 2700 344 2873 169 
Q 3047 -6 3047 -263 
Q 3047 -616 2716 -925 
Q 2228 -1381 1444 -1381 
Q 841 -1381 425 -1109 
Q 191 -953 191 -784 
Q 191 -709 225 -634 
Q 278 -519 444 -313 
Q 466 -284 763 25 
Q 600 122 533 198 
Q 466 275 466 372 
Q 466 481 555 628 
Q 644 775 966 1044 
z
M 1509 2797 
Q 1278 2797 1122 2612 
Q 966 2428 966 2047 
Q 966 1553 1178 1281 
Q 1341 1075 1591 1075 
Q 1828 1075 1981 1253 
Q 2134 1431 2134 1813 
Q 2134 2309 1919 2591 
Q 1759 2797 1509 2797 
z
M 934 0 
Q 788 -159 713 -296 
Q 638 -434 638 -550 
Q 638 -700 819 -813 
Q 1131 -1006 1722 -1006 
Q 2284 -1006 2551 -807 
Q 2819 -609 2819 -384 
Q 2819 -222 2659 -153 
Q 2497 -84 2016 -72 
Q 1313 -53 934 0 
z
" transform="scale(0.015625)"/>
       <path id="TimesNewRomanPSMT-65" d="M 681 1784 
Q 678 1147 991 784 
Q 1303 422 1725 422 
Q 2006 422 2214 576 
Q 2422 731 2563 1106 
L 2659 1044 
Q 2594 616 2278 264 
Q 1963 -88 1488 -88 
Q 972 -88 605 314 
Q 238 716 238 1394 
Q 238 2128 614 2539 
Q 991 2950 1559 2950 
Q 2041 2950 2350 2633 
Q 2659 2316 2659 1784 
L 681 1784 
z
M 681 1966 
L 2006 1966 
Q 1991 2241 1941 2353 
Q 1863 2528 1708 2628 
Q 1553 2728 1384 2728 
Q 1125 2728 920 2526 
Q 716 2325 681 1966 
z
" transform="scale(0.015625)"/>
       <path id="TimesNewRomanPSMT-6e" d="M 1034 2341 
Q 1538 2947 1994 2947 
Q 2228 2947 2397 2830 
Q 2566 2713 2666 2444 
Q 2734 2256 2734 1869 
L 2734 647 
Q 2734 375 2778 278 
Q 2813 200 2889 156 
Q 2966 113 3172 113 
L 3172 0 
L 1756 0 
L 1756 113 
L 1816 113 
Q 2016 113 2095 173 
Q 2175 234 2206 353 
Q 2219 400 2219 647 
L 2219 1819 
Q 2219 2209 2117 2386 
Q 2016 2563 1775 2563 
Q 1403 2563 1034 2156 
L 1034 647 
Q 1034 356 1069 288 
Q 1113 197 1189 155 
Q 1266 113 1500 113 
L 1500 0 
L 84 0 
L 84 113 
L 147 113 
Q 366 113 442 223 
Q 519 334 519 647 
L 519 1709 
Q 519 2225 495 2337 
Q 472 2450 423 2490 
Q 375 2531 294 2531 
Q 206 2531 84 2484 
L 38 2597 
L 900 2947 
L 1034 2947 
L 1034 2341 
z
" transform="scale(0.015625)"/>
       <path id="TimesNewRomanPSMT-72" d="M 1038 2947 
L 1038 2303 
Q 1397 2947 1775 2947 
Q 1947 2947 2059 2842 
Q 2172 2738 2172 2600 
Q 2172 2478 2090 2393 
Q 2009 2309 1897 2309 
Q 1788 2309 1652 2417 
Q 1516 2525 1450 2525 
Q 1394 2525 1328 2463 
Q 1188 2334 1038 2041 
L 1038 669 
Q 1038 431 1097 309 
Q 1138 225 1241 169 
Q 1344 113 1538 113 
L 1538 0 
L 72 0 
L 72 113 
Q 291 113 397 181 
Q 475 231 506 341 
Q 522 394 522 644 
L 522 1753 
Q 522 2253 501 2348 
Q 481 2444 426 2487 
Q 372 2531 291 2531 
Q 194 2531 72 2484 
L 41 2597 
L 906 2947 
L 1038 2947 
z
" transform="scale(0.015625)"/>
       <path id="TimesNewRomanPSMT-61" d="M 1822 413 
Q 1381 72 1269 19 
Q 1100 -59 909 -59 
Q 613 -59 420 144 
Q 228 347 228 678 
Q 228 888 322 1041 
Q 450 1253 767 1440 
Q 1084 1628 1822 1897 
L 1822 2009 
Q 1822 2438 1686 2597 
Q 1550 2756 1291 2756 
Q 1094 2756 978 2650 
Q 859 2544 859 2406 
L 866 2225 
Q 866 2081 792 2003 
Q 719 1925 600 1925 
Q 484 1925 411 2006 
Q 338 2088 338 2228 
Q 338 2497 613 2722 
Q 888 2947 1384 2947 
Q 1766 2947 2009 2819 
Q 2194 2722 2281 2516 
Q 2338 2381 2338 1966 
L 2338 994 
Q 2338 584 2353 492 
Q 2369 400 2405 369 
Q 2441 338 2488 338 
Q 2538 338 2575 359 
Q 2641 400 2828 588 
L 2828 413 
Q 2478 -56 2159 -56 
Q 2006 -56 1915 50 
Q 1825 156 1822 413 
z
M 1822 616 
L 1822 1706 
Q 1350 1519 1213 1441 
Q 966 1303 859 1153 
Q 753 1003 753 825 
Q 753 600 887 451 
Q 1022 303 1197 303 
Q 1434 303 1822 616 
z
" transform="scale(0.015625)"/>
       <path id="TimesNewRomanPSMT-74" d="M 1031 3803 
L 1031 2863 
L 1700 2863 
L 1700 2644 
L 1031 2644 
L 1031 788 
Q 1031 509 1111 412 
Q 1191 316 1316 316 
Q 1419 316 1516 380 
Q 1613 444 1666 569 
L 1788 569 
Q 1678 263 1478 108 
Q 1278 -47 1066 -47 
Q 922 -47 784 33 
Q 647 113 581 261 
Q 516 409 516 719 
L 516 2644 
L 63 2644 
L 63 2747 
Q 234 2816 414 2980 
Q 594 3144 734 3369 
Q 806 3488 934 3803 
L 1031 3803 
z
" transform="scale(0.015625)"/>
       <path id="TimesNewRomanPSMT-69" d="M 928 4444 
Q 1059 4444 1151 4351 
Q 1244 4259 1244 4128 
Q 1244 3997 1151 3903 
Q 1059 3809 928 3809 
Q 797 3809 703 3903 
Q 609 3997 609 4128 
Q 609 4259 701 4351 
Q 794 4444 928 4444 
z
M 1188 2947 
L 1188 647 
Q 1188 378 1227 289 
Q 1266 200 1342 156 
Q 1419 113 1622 113 
L 1622 0 
L 231 0 
L 231 113 
Q 441 113 512 153 
Q 584 194 626 287 
Q 669 381 669 647 
L 669 1750 
Q 669 2216 641 2353 
Q 619 2453 572 2492 
Q 525 2531 444 2531 
Q 356 2531 231 2484 
L 188 2597 
L 1050 2947 
L 1188 2947 
z
" transform="scale(0.015625)"/>
       <path id="TimesNewRomanPSMT-6f" d="M 1600 2947 
Q 2250 2947 2644 2453 
Q 2978 2031 2978 1484 
Q 2978 1100 2793 706 
Q 2609 313 2286 112 
Q 1963 -88 1566 -88 
Q 919 -88 538 428 
Q 216 863 216 1403 
Q 216 1797 411 2186 
Q 606 2575 925 2761 
Q 1244 2947 1600 2947 
z
M 1503 2744 
Q 1338 2744 1170 2645 
Q 1003 2547 900 2300 
Q 797 2053 797 1666 
Q 797 1041 1045 587 
Q 1294 134 1700 134 
Q 2003 134 2200 384 
Q 2397 634 2397 1244 
Q 2397 2006 2069 2444 
Q 1847 2744 1503 2744 
z
" transform="scale(0.015625)"/>
      </defs>
      <use xlink:href="#TimesNewRomanPSMT-67"/>
      <use xlink:href="#TimesNewRomanPSMT-65" x="50"/>
      <use xlink:href="#TimesNewRomanPSMT-6e" x="94.384766"/>
      <use xlink:href="#TimesNewRomanPSMT-65" x="144.384766"/>
      <use xlink:href="#TimesNewRomanPSMT-72" x="188.769531"/>
      <use xlink:href="#TimesNewRomanPSMT-61" x="222.070312"/>
      <use xlink:href="#TimesNewRomanPSMT-74" x="266.455078"/>
      <use xlink:href="#TimesNewRomanPSMT-69" x="294.238281"/>
      <use xlink:href="#TimesNewRomanPSMT-6f" x="322.021484"/>
      <use xlink:href="#TimesNewRomanPSMT-6e" x="372.021484"/>
     </g>
    </g>
   </g>
   <g id="matplotlib.axis_2">
    <g id="ytick_1">
     <g id="line2d_7">
      <path d="M 40.82 248.2 
L 565.2 248.2 
" clip-path="url(#p02864ffd92)" style="fill: none; stroke: #b0b0b0; stroke-width: 0.8; stroke-linecap: square"/>
     </g>
     <g id="line2d_8">
      <defs>
       <path id="m1260ac8b55" d="M 0 0 
L -3.5 0 
" style="stroke: #000000; stroke-width: 0.8"/>
      </defs>
      <g>
       <use xlink:href="#m1260ac8b55" x="40.82" y="248.2" style="stroke: #000000; stroke-width: 0.8"/>
      </g>
     </g>
     <g id="text_8">
      <!-- 10 -->
      <g transform="translate(23.82 251.671875) scale(0.1 -0.1)">
       <use xlink:href="#TimesNewRomanPSMT-31"/>
       <use xlink:href="#TimesNewRomanPSMT-30" x="50"/>
      </g>
     </g>
    </g>
    <g id="ytick_2">
     <g id="line2d_9">
      <path d="M 40.82 208.633333 
L 565.2 208.633333 
" clip-path="url(#p02864ffd92)" style="fill: none; stroke: #b0b0b0; stroke-width: 0.8; stroke-linecap: square"/>
     </g>
     <g id="line2d_10">
      <g>
       <use xlink:href="#m1260ac8b55" x="40.82" y="208.633333" style="stroke: #000000; stroke-width: 0.8"/>
      </g>
     </g>
     <g id="text_9">
      <!-- 15 -->
      <g transform="translate(23.82 212.105208) scale(0.1 -0.1)">
       <use xlink:href="#TimesNewRomanPSMT-31"/>
       <use xlink:href="#TimesNewRomanPSMT-35" x="50"/>
      </g>
     </g>
    </g>
    <g id="ytick_3">
     <g id="line2d_11">
      <path d="M 40.82 169.066667 
L 565.2 169.066667 
" clip-path="url(#p02864ffd92)" style="fill: none; stroke: #b0b0b0; stroke-width: 0.8; stroke-linecap: square"/>
     </g>
     <g id="line2d_12">
      <g>
       <use xlink:href="#m1260ac8b55" x="40.82" y="169.066667" style="stroke: #000000; stroke-width: 0.8"/>
      </g>
     </g>
     <g id="text_10">
      <!-- 20 -->
      <g transform="translate(23.82 172.538542) scale(0.1 -0.1)">
       <use xlink:href="#TimesNewRomanPSMT-32"/>
       <use xlink:href="#TimesNewRomanPSMT-30" x="50"/>
      </g>
     </g>
    </g>
    <g id="ytick_4">
     <g id="line2d_13">
      <path d="M 40.82 129.5 
L 565.2 129.5 
" clip-path="url(#p02864ffd92)" style="fill: none; stroke: #b0b0b0; stroke-width: 0.8; stroke-linecap: square"/>
     </g>
     <g id="line2d_14">
      <g>
       <use xlink:href="#m1260ac8b55" x="40.82" y="129.5" style="stroke: #000000; stroke-width: 0.8"/>
      </g>
     </g>
     <g id="text_11">
      <!-- 25 -->
      <g transform="translate(23.82 132.971875) scale(0.1 -0.1)">
       <use xlink:href="#TimesNewRomanPSMT-32"/>
       <use xlink:href="#TimesNewRomanPSMT-35" x="50"/>
      </g>
     </g>
    </g>
    <g id="ytick_5">
     <g id="line2d_15">
      <path d="M 40.82 89.933333 
L 565.2 89.933333 
" clip-path="url(#p02864ffd92)" style="fill: none; stroke: #b0b0b0; stroke-width: 0.8; stroke-linecap: square"/>
     </g>
     <g id="line2d_16">
      <g>
       <use xlink:href="#m1260ac8b55" x="40.82" y="89.933333" style="stroke: #000000; stroke-width: 0.8"/>
      </g>
     </g>
     <g id="text_12">
      <!-- 30 -->
      <g transform="translate(23.82 93.405208) scale(0.1 -0.1)">
       <use xlink:href="#TimesNewRomanPSMT-33"/>
       <use xlink:href="#TimesNewRomanPSMT-30" x="50"/>
      </g>
     </g>
    </g>
    <g id="ytick_6">
     <g id="line2d_17">
      <path d="M 40.82 50.366667 
L 565.2 50.366667 
" clip-path="url(#p02864ffd92)" style="fill: none; stroke: #b0b0b0; stroke-width: 0.8; stroke-linecap: square"/>
     </g>
     <g id="line2d_18">
      <g>
       <use xlink:href="#m1260ac8b55" x="40.82" y="50.366667" style="stroke: #000000; stroke-width: 0.8"/>
      </g>
     </g>
     <g id="text_13">
      <!-- 35 -->
      <g transform="translate(23.82 53.838542) scale(0.1 -0.1)">
       <use xlink:href="#TimesNewRomanPSMT-33"/>
       <use xlink:href="#TimesNewRomanPSMT-35" x="50"/>
      </g>
     </g>
    </g>
    <g id="ytick_7">
     <g id="line2d_19">
      <path d="M 40.82 10.8 
L 565.2 10.8 
" clip-path="url(#p02864ffd92)" style="fill: none; stroke: #b0b0b0; stroke-width: 0.8; stroke-linecap: square"/>
     </g>
     <g id="line2d_20">
      <g>
       <use xlink:href="#m1260ac8b55" x="40.82" y="10.8" style="stroke: #000000; stroke-width: 0.8"/>
      </g>
     </g>
     <g id="text_14">
      <!-- 40 -->
      <g transform="translate(23.82 14.271875) scale(0.1 -0.1)">
       <use xlink:href="#TimesNewRomanPSMT-34"/>
       <use xlink:href="#TimesNewRomanPSMT-30" x="50"/>
      </g>
     </g>
    </g>
    <g id="text_15">
     <!-- Total cost -->
     <g transform="translate(17.680937 149.00625) rotate(-90) scale(0.1 -0.1)">
      <defs>
       <path id="TimesNewRomanPSMT-54" d="M 3703 4238 
L 3750 3244 
L 3631 3244 
Q 3597 3506 3538 3619 
Q 3441 3800 3280 3886 
Q 3119 3972 2856 3972 
L 2259 3972 
L 2259 734 
Q 2259 344 2344 247 
Q 2463 116 2709 116 
L 2856 116 
L 2856 0 
L 1059 0 
L 1059 116 
L 1209 116 
Q 1478 116 1591 278 
Q 1659 378 1659 734 
L 1659 3972 
L 1150 3972 
Q 853 3972 728 3928 
Q 566 3869 450 3700 
Q 334 3531 313 3244 
L 194 3244 
L 244 4238 
L 3703 4238 
z
" transform="scale(0.015625)"/>
       <path id="TimesNewRomanPSMT-6c" d="M 1184 4444 
L 1184 647 
Q 1184 378 1223 290 
Q 1263 203 1344 158 
Q 1425 113 1647 113 
L 1647 0 
L 244 0 
L 244 113 
Q 441 113 512 153 
Q 584 194 625 287 
Q 666 381 666 647 
L 666 3247 
Q 666 3731 644 3842 
Q 622 3953 573 3993 
Q 525 4034 450 4034 
Q 369 4034 244 3984 
L 191 4094 
L 1044 4444 
L 1184 4444 
z
" transform="scale(0.015625)"/>
       <path id="TimesNewRomanPSMT-20" transform="scale(0.015625)"/>
       <path id="TimesNewRomanPSMT-63" d="M 2631 1088 
Q 2516 522 2178 217 
Q 1841 -88 1431 -88 
Q 944 -88 581 321 
Q 219 731 219 1428 
Q 219 2103 620 2525 
Q 1022 2947 1584 2947 
Q 2006 2947 2278 2723 
Q 2550 2500 2550 2259 
Q 2550 2141 2473 2067 
Q 2397 1994 2259 1994 
Q 2075 1994 1981 2113 
Q 1928 2178 1911 2362 
Q 1894 2547 1784 2644 
Q 1675 2738 1481 2738 
Q 1169 2738 978 2506 
Q 725 2200 725 1697 
Q 725 1184 976 792 
Q 1228 400 1656 400 
Q 1963 400 2206 609 
Q 2378 753 2541 1131 
L 2631 1088 
z
" transform="scale(0.015625)"/>
       <path id="TimesNewRomanPSMT-73" d="M 2050 2947 
L 2050 1972 
L 1947 1972 
Q 1828 2431 1642 2597 
Q 1456 2763 1169 2763 
Q 950 2763 815 2647 
Q 681 2531 681 2391 
Q 681 2216 781 2091 
Q 878 1963 1175 1819 
L 1631 1597 
Q 2266 1288 2266 781 
Q 2266 391 1970 151 
Q 1675 -88 1309 -88 
Q 1047 -88 709 6 
Q 606 38 541 38 
Q 469 38 428 -44 
L 325 -44 
L 325 978 
L 428 978 
Q 516 541 762 319 
Q 1009 97 1316 97 
Q 1531 97 1667 223 
Q 1803 350 1803 528 
Q 1803 744 1651 891 
Q 1500 1038 1047 1263 
Q 594 1488 453 1669 
Q 313 1847 313 2119 
Q 313 2472 555 2709 
Q 797 2947 1181 2947 
Q 1350 2947 1591 2875 
Q 1750 2828 1803 2828 
Q 1853 2828 1881 2850 
Q 1909 2872 1947 2947 
L 2050 2947 
z
" transform="scale(0.015625)"/>
      </defs>
      <use xlink:href="#TimesNewRomanPSMT-54"/>
      <use xlink:href="#TimesNewRomanPSMT-6f" x="54.083984"/>
      <use xlink:href="#TimesNewRomanPSMT-74" x="104.083984"/>
      <use xlink:href="#TimesNewRomanPSMT-61" x="131.867188"/>
      <use xlink:href="#TimesNewRomanPSMT-6c" x="176.251953"/>
      <use xlink:href="#TimesNewRomanPSMT-20" x="204.035156"/>
      <use xlink:href="#TimesNewRomanPSMT-63" x="229.035156"/>
      <use xlink:href="#TimesNewRomanPSMT-6f" x="273.419922"/>
      <use xlink:href="#TimesNewRomanPSMT-73" x="323.419922"/>
      <use xlink:href="#TimesNewRomanPSMT-74" x="362.335938"/>
     </g>
    </g>
   </g>
   <g id="line2d_21">
    <path d="M 64.655455 6.661687 
L 69.44169 6.661687 
L 70.398938 43.599479 
L 74.227926 43.599479 
L 75.185173 30.992952 
L 76.142421 42.356578 
L 78.056915 42.356578 
L 79.014162 60.406869 
L 79.971409 61.452869 
L 87.629387 61.452869 
L 88.586634 63.590928 
L 90.501128 63.590928 
L 91.458375 57.394322 
L 93.37287 57.394322 
L 94.330117 44.908201 
L 95.287364 44.908201 
L 96.244611 85.602893 
L 100.0736 85.602893 
L 101.030847 63.382671 
L 101.988094 85.602893 
L 104.859836 85.602893 
L 105.817083 63.738447 
L 110.603319 63.738447 
L 111.560566 85.118363 
L 116.346802 85.118363 
L 117.304049 63.738447 
L 129.748262 63.738447 
L 130.705509 61.88144 
L 148.893206 61.88144 
L 149.850453 75.678836 
L 163.251913 75.678836 
L 164.20916 81.849225 
L 210.157024 81.849225 
L 211.114272 80.41474 
L 296.30927 80.41474 
L 297.266517 60.623163 
L 325.026685 60.623163 
L 325.983932 104.197427 
L 541.364545 104.197427 
L 541.364545 104.197427 
" clip-path="url(#p02864ffd92)" style="fill: none; stroke: #1f77b4; stroke-width: 1.5; stroke-linecap: square"/>
   </g>
   <g id="line2d_22">
    <path d="M 64.655455 31.319327 
L 69.44169 31.319327 
L 70.398938 27.325878 
L 74.227926 27.325878 
L 75.185173 69.849371 
L 76.142421 71.271654 
L 78.056915 71.271654 
L 79.014162 71.878231 
L 79.971409 74.679093 
L 87.629387 74.679093 
L 88.586634 56.564724 
L 90.501128 56.564724 
L 91.458375 55.459424 
L 93.37287 55.459424 
L 94.330117 73.589136 
L 95.287364 73.589136 
L 96.244611 72.824074 
L 100.0736 72.824074 
L 101.030847 47.505483 
L 101.988094 72.824074 
L 104.859836 72.824074 
L 105.817083 47.367831 
L 110.603319 47.367831 
L 111.560566 72.322616 
L 116.346802 72.322616 
L 117.304049 56.852507 
L 118.261296 48.619103 
L 138.363487 48.619103 
L 139.320734 77.220572 
L 148.893206 77.220572 
L 149.850453 73.07277 
L 150.8077 116.316152 
L 159.422924 116.316152 
L 160.380172 123.446516 
L 187.183092 123.446516 
L 188.14034 116.186068 
L 194.84107 116.186068 
L 195.798317 123.449842 
L 288.651292 123.449842 
L 289.60854 114.882054 
L 325.026685 114.828684 
L 325.983932 71.25442 
L 541.364545 71.25442 
L 541.364545 71.25442 
" clip-path="url(#p02864ffd92)" style="fill: none; stroke: #ff7f0e; stroke-width: 1.5; stroke-linecap: square"/>
   </g>
   <g id="line2d_23">
    <path d="M 64.655455 72.687289 
L 69.44169 72.687289 
L 70.398938 63.963684 
L 75.185173 63.963684 
L 76.142421 89.963125 
L 78.056915 89.963125 
L 79.014162 40.189144 
L 79.971409 39.335242 
L 87.629387 39.335242 
L 88.586634 51.295346 
L 90.501128 51.295346 
L 91.458375 106.239767 
L 93.37287 106.239767 
L 94.330117 63.757602 
L 95.287364 63.757602 
L 96.244611 39.454023 
L 100.0736 39.454023 
L 101.030847 72.927865 
L 101.988094 39.454023 
L 104.859836 39.454023 
L 105.817083 72.927865 
L 110.603319 72.927865 
L 111.560566 40.179871 
L 116.346802 40.179871 
L 117.304049 29.195073 
L 118.261296 72.927865 
L 129.748262 72.927865 
L 130.705509 105.515241 
L 148.893206 105.515241 
L 149.850453 106.069294 
L 159.422924 106.069294 
L 160.380172 113.662578 
L 187.183092 113.662578 
L 188.14034 105.930765 
L 194.84107 105.930765 
L 195.798317 113.66612 
L 288.651292 113.66612 
L 289.60854 104.542091 
L 541.364545 104.485256 
L 541.364545 104.485256 
" clip-path="url(#p02864ffd92)" style="fill: none; stroke: #2ca02c; stroke-width: 1.5; stroke-linecap: square"/>
   </g>
   <g id="line2d_24">
    <path d="M 64.655455 83.808062 
L 69.44169 83.808062 
L 70.398938 10.839829 
L 74.227926 10.839829 
L 75.185173 11.734889 
L 76.142421 9.424585 
L 78.056915 9.424585 
L 79.014162 79.407184 
L 79.971409 49.65904 
L 87.629387 49.65904 
L 88.586634 28.151489 
L 93.37287 28.151489 
L 94.330117 52.005926 
L 95.287364 52.005926 
L 96.244611 80.219225 
L 100.0736 80.219225 
L 101.030847 51.526426 
L 101.988094 49.83855 
L 104.859836 49.83855 
L 105.817083 51.526426 
L 110.603319 51.526426 
L 111.560566 49.83855 
L 116.346802 49.83855 
L 117.304049 56.003333 
L 118.261296 51.526426 
L 129.748262 51.526426 
L 130.705509 57.236246 
L 138.363487 57.236246 
L 139.320734 52.903034 
L 148.893206 52.903034 
L 149.850453 51.287006 
L 163.251913 51.287006 
L 164.20916 99.22178 
L 171.867138 99.22178 
L 172.824385 98.527909 
L 210.157024 98.527909 
L 211.114272 99.070108 
L 325.026685 99.070108 
L 325.983932 97.405594 
L 541.364545 97.405594 
L 541.364545 97.405594 
" clip-path="url(#p02864ffd92)" style="fill: none; stroke: #d62728; stroke-width: 1.5; stroke-linecap: square"/>
   </g>
   <g id="line2d_25">
    <path d="M 64.655455 21.807157 
L 69.44169 21.807157 
L 70.398938 80.872251 
L 78.056915 80.872251 
L 79.014162 82.036 
L 79.971409 100.918614 
L 87.629387 100.918614 
L 88.586634 100.641876 
L 90.501128 100.641876 
L 91.458375 75.246709 
L 93.37287 75.246709 
L 94.330117 104.442442 
L 95.287364 104.442442 
L 96.244611 101.019584 
L 100.0736 101.019584 
L 101.030847 102.698655 
L 101.988094 101.019584 
L 104.859836 101.019584 
L 105.817083 102.698655 
L 110.603319 102.698655 
L 111.560566 101.636597 
L 116.346802 101.636597 
L 117.304049 92.298874 
L 118.261296 102.10029 
L 138.363487 102.10029 
L 139.320734 96.285285 
L 146.978711 96.285285 
L 147.935958 94.464082 
L 171.867138 94.464082 
L 172.824385 95.200782 
L 187.183092 95.200782 
L 188.14034 102.586427 
L 194.84107 102.586427 
L 195.798317 95.432628 
L 305.881742 95.432628 
L 306.838989 92.074884 
L 541.364545 92.074884 
L 541.364545 92.074884 
" clip-path="url(#p02864ffd92)" style="fill: none; stroke: #9467bd; stroke-width: 1.5; stroke-linecap: square"/>
   </g>
   <g id="line2d_26">
    <path d="M 64.655455 168.336919 
L 69.44169 168.336919 
L 70.398938 166.869315 
L 75.185173 166.869315 
L 76.142421 167.308108 
L 78.056915 167.308108 
L 79.014162 165.486 
L 79.971409 167.189116 
L 87.629387 167.189116 
L 88.586634 166.802379 
L 90.501128 166.802379 
L 91.458375 166.331354 
L 93.37287 166.331354 
L 94.330117 166.750323 
L 95.287364 166.750323 
L 96.244611 166.061138 
L 100.0736 166.061138 
L 101.030847 166.683387 
L 101.988094 166.061138 
L 104.859836 166.061138 
L 105.817083 166.886667 
L 110.603319 166.886667 
L 111.560566 150.689593 
L 116.346802 150.689593 
L 117.304049 166.886667 
L 129.748262 166.886667 
L 130.705509 165.825625 
L 148.893206 165.825625 
L 149.850453 166.212362 
L 159.422924 166.212362 
L 160.380172 171.512584 
L 187.183092 171.512584 
L 188.14034 166.115666 
L 194.84107 166.115666 
L 195.798317 171.515056 
L 288.651292 171.515056 
L 289.60854 165.146352 
L 541.364545 165.10668 
L 541.364545 165.10668 
" clip-path="url(#p02864ffd92)" style="fill: none; stroke: #8c564b; stroke-width: 1.5; stroke-linecap: square"/>
   </g>
   <g id="line2d_27">
    <path d="M 64.655455 179.542108 
L 69.44169 179.542108 
L 70.398938 199.436339 
L 75.185173 199.436339 
L 76.142421 199.019668 
L 78.056915 199.019668 
L 79.014162 195.599765 
L 79.971409 199.436339 
L 87.629387 199.436339 
L 88.586634 199.902158 
L 90.501128 199.902158 
L 91.458375 199.381311 
L 93.37287 199.381311 
L 94.330117 198.553849 
L 95.287364 198.553849 
L 96.244611 195.810079 
L 100.0736 195.810079 
L 101.030847 195.633196 
L 101.988094 200.894706 
L 104.859836 200.894706 
L 105.817083 195.568331 
L 110.603319 195.568331 
L 111.560566 200.894706 
L 116.346802 200.894706 
L 117.304049 200.03777 
L 118.261296 196.157964 
L 138.363487 196.157964 
L 139.320734 201.042114 
L 146.978711 201.053911 
L 147.935958 202.178149 
L 163.251913 202.178149 
L 164.20916 201.083385 
L 171.867138 201.083385 
L 172.824385 200.723703 
L 210.157024 200.723703 
L 211.114272 201.004763 
L 325.026685 201.004763 
L 325.983932 200.141928 
L 541.364545 200.141928 
L 541.364545 200.141928 
" clip-path="url(#p02864ffd92)" style="fill: none; stroke: #e377c2; stroke-width: 1.5; stroke-linecap: square"/>
   </g>
   <g id="line2d_28">
    <path d="M 64.655455 59.415865 
L 69.44169 59.415865 
L 70.398938 105.168005 
L 74.227926 105.168005 
L 75.185173 104.148332 
L 76.142421 108.833587 
L 78.056915 108.833587 
L 79.014162 106.828087 
L 79.971409 107.670735 
L 87.629387 107.670735 
L 88.586634 106.870185 
L 93.37287 106.870185 
L 94.330117 111.799853 
L 95.287364 111.799853 
L 96.244611 111.513342 
L 100.0736 111.513342 
L 101.030847 130.161761 
L 101.988094 111.513342 
L 104.859836 111.513342 
L 105.817083 130.161761 
L 110.603319 130.161761 
L 111.560566 111.513342 
L 116.346802 111.513342 
L 117.304049 130.161761 
L 159.422924 130.161761 
L 160.380172 112.263313 
L 288.651292 112.263313 
L 289.60854 50.399778 
L 296.30927 50.399778 
L 297.266517 82.343197 
L 325.026685 82.343197 
L 325.983932 119.151779 
L 541.364545 119.151779 
L 541.364545 119.151779 
" clip-path="url(#p02864ffd92)" style="fill: none; stroke: #7f7f7f; stroke-width: 1.5; stroke-linecap: square"/>
   </g>
   <g id="line2d_29">
    <path d="M 64.655455 157.839414 
L 69.44169 157.839414 
L 70.398938 94.376935 
L 74.227926 94.376935 
L 75.185173 94.994051 
L 76.142421 110.8112 
L 78.056915 110.8112 
L 79.014162 100.115091 
L 79.971409 109.538744 
L 87.629387 109.538744 
L 88.586634 134.366803 
L 93.37287 134.366803 
L 94.330117 114.057049 
L 95.287364 114.057049 
L 96.244611 113.743534 
L 100.0736 113.743534 
L 101.030847 156.572852 
L 101.988094 113.743534 
L 104.859836 113.743534 
L 105.817083 156.572852 
L 110.603319 156.572852 
L 111.560566 113.743534 
L 116.346802 113.743534 
L 117.304049 156.572852 
L 159.422924 156.572852 
L 160.380172 139.508579 
L 210.157024 139.508579 
L 211.114272 114.564192 
L 288.651292 114.564192 
L 289.60854 193.253128 
L 541.364545 193.253128 
L 541.364545 193.253128 
" clip-path="url(#p02864ffd92)" style="fill: none; stroke: #bcbd22; stroke-width: 1.5; stroke-linecap: square"/>
   </g>
   <g id="line2d_30">
    <path d="M 64.655455 73.998714 
L 69.44169 73.998714 
L 70.398938 131.211933 
L 75.185173 131.211933 
L 76.142421 131.737771 
L 78.056915 131.737771 
L 79.014162 124.848909 
L 79.971409 131.595174 
L 87.629387 131.595174 
L 88.586634 131.131718 
L 90.501128 131.131718 
L 91.458375 93.404312 
L 93.37287 93.404312 
L 94.330117 131.069335 
L 95.287364 131.069335 
L 96.244611 130.243433 
L 100.0736 130.243433 
L 101.030847 130.989121 
L 101.988094 130.243433 
L 104.859836 130.243433 
L 105.817083 144.85669 
L 110.603319 144.85669 
L 111.560566 129.878024 
L 116.346802 129.878024 
L 117.304049 151.478799 
L 118.261296 145.730316 
L 138.363487 145.730316 
L 139.320734 152.966877 
L 146.978711 152.984356 
L 147.935958 154.650075 
L 163.251913 154.650075 
L 164.20916 153.028027 
L 171.867138 153.028027 
L 172.824385 152.495107 
L 210.157024 152.495107 
L 211.114272 152.911537 
L 325.026685 152.911537 
L 325.983932 151.633125 
L 541.364545 151.633125 
L 541.364545 151.633125 
" clip-path="url(#p02864ffd92)" style="fill: none; stroke: #17becf; stroke-width: 1.5; stroke-linecap: square"/>
   </g>
   <g id="line2d_31">
    <path d="M 64.655455 127.33094 
L 69.44169 127.33094 
L 70.398938 117.353801 
L 74.227926 117.353801 
L 75.185173 117.94976 
L 76.142421 116.411488 
L 78.056915 116.411488 
L 79.014162 107.556734 
L 79.971409 117.459832 
L 87.629387 117.459832 
L 88.586634 117.228929 
L 90.501128 117.228929 
L 91.458375 117.846727 
L 93.37287 117.846727 
L 94.330117 118.346019 
L 95.287364 118.346019 
L 96.244611 117.54408 
L 100.0736 117.54408 
L 101.030847 118.945061 
L 101.988094 117.54408 
L 104.859836 117.54408 
L 105.817083 118.945061 
L 110.603319 118.945061 
L 111.560566 118.058903 
L 116.346802 118.058903 
L 117.304049 110.267707 
L 118.261296 118.445798 
L 138.363487 118.445798 
L 139.320734 113.593882 
L 146.978711 113.593882 
L 147.935958 112.07431 
L 171.867138 112.07431 
L 172.824385 112.688997 
L 187.183092 112.688997 
L 188.14034 118.851421 
L 194.84107 118.851421 
L 195.798317 112.882444 
L 296.30927 112.882444 
L 297.266517 96.093726 
L 305.881742 96.093726 
L 306.838989 112.882444 
L 541.364545 112.882444 
L 541.364545 112.882444 
" clip-path="url(#p02864ffd92)" style="fill: none; stroke: #1f77b4; stroke-width: 1.5; stroke-linecap: square"/>
   </g>
   <g id="line2d_32">
    <path d="M 64.655455 40.177872 
L 69.44169 40.177872 
L 70.398938 64.402512 
L 78.056915 64.402512 
L 79.014162 102.965133 
L 79.971409 62.007182 
L 87.629387 62.007182 
L 88.586634 92.904988 
L 90.501128 92.904988 
L 91.458375 93.655719 
L 93.37287 93.655719 
L 94.330117 67.054113 
L 95.287364 67.054113 
L 96.244611 93.287951 
L 100.0736 93.287951 
L 101.030847 94.990383 
L 101.988094 93.287951 
L 104.859836 93.287951 
L 105.817083 94.990383 
L 110.603319 94.990383 
L 111.560566 93.913549 
L 116.346802 93.913549 
L 117.304049 84.445906 
L 118.261296 94.383692 
L 138.363487 94.383692 
L 139.320734 88.487781 
L 146.978711 88.487781 
L 147.935958 86.641239 
L 171.867138 86.641239 
L 172.824385 87.388189 
L 187.183092 87.388189 
L 188.14034 94.876594 
L 194.84107 94.876594 
L 195.798317 87.623261 
L 305.881742 87.623261 
L 306.838989 90.981005 
L 541.364545 90.981005 
L 541.364545 90.981005 
" clip-path="url(#p02864ffd92)" style="fill: none; stroke: #ff7f0e; stroke-width: 1.5; stroke-linecap: square"/>
   </g>
   <g id="line2d_33">
    <path d="M 64.655455 111.460586 
L 69.44169 111.460586 
L 70.398938 112.849848 
L 74.227926 112.849848 
L 75.185173 113.389703 
L 76.142421 111.996243 
L 78.056915 111.996243 
L 79.014162 118.182309 
L 79.971409 112.945897 
L 87.629387 112.945897 
L 88.586634 112.736731 
L 90.501128 112.736731 
L 91.458375 113.29637 
L 93.37287 113.29637 
L 94.330117 113.748658 
L 95.287364 113.748658 
L 96.244611 113.022214 
L 100.0736 113.022214 
L 101.030847 114.291307 
L 101.988094 113.022214 
L 104.859836 113.022214 
L 105.817083 114.291307 
L 110.603319 114.291307 
L 111.560566 146.562595 
L 116.346802 146.562595 
L 117.304049 149.333114 
L 118.261296 144.008738 
L 138.363487 144.008738 
L 139.320734 150.711407 
L 146.978711 150.727596 
L 147.935958 152.270423 
L 163.251913 152.270423 
L 164.20916 150.768045 
L 171.867138 150.768045 
L 172.824385 150.274442 
L 210.157024 150.274442 
L 211.114272 98.290031 
L 296.30927 98.290031 
L 297.266517 98.730517 
L 325.026685 98.730517 
L 325.983932 103.265443 
L 541.364545 103.265443 
L 541.364545 103.265443 
" clip-path="url(#p02864ffd92)" style="fill: none; stroke: #2ca02c; stroke-width: 1.5; stroke-linecap: square"/>
   </g>
   <g id="line2d_34">
    <path d="M 64.655455 67.894273 
L 69.44169 67.894273 
L 70.398938 116.005937 
L 75.185173 116.005937 
L 76.142421 115.303538 
L 78.056915 115.303538 
L 79.014162 86.141724 
L 79.971409 116.005937 
L 87.629387 116.005937 
L 88.586634 116.791186 
L 90.501128 116.791186 
L 91.458375 115.913173 
L 93.37287 115.913173 
L 94.330117 114.518289 
L 95.287364 114.518289 
L 96.244611 109.893007 
L 100.0736 109.893007 
L 101.030847 109.594828 
L 101.988094 118.464363 
L 104.859836 118.464363 
L 105.817083 109.485482 
L 110.603319 109.485482 
L 111.560566 118.464363 
L 116.346802 118.464363 
L 117.304049 109.627242 
L 118.261296 110.479451 
L 138.363487 110.479451 
L 139.320734 118.712855 
L 141.235228 118.712855 
L 142.192475 125.2557 
L 146.978711 125.2557 
L 147.935958 120.627914 
L 163.251913 120.627914 
L 164.20916 118.782428 
L 171.867138 118.782428 
L 172.824385 96.4732 
L 187.183092 96.4732 
L 188.14034 102.332741 
L 194.84107 102.332741 
L 195.798317 132.721527 
L 288.651292 132.721527 
L 289.60854 124.360706 
L 541.364545 124.308626 
L 541.364545 124.308626 
" clip-path="url(#p02864ffd92)" style="fill: none; stroke: #d62728; stroke-width: 1.5; stroke-linecap: square"/>
   </g>
   <g id="line2d_35">
    <path d="M 64.655455 155.163658 
L 69.44169 155.163658 
L 70.398938 128.923068 
L 75.185173 128.923068 
L 76.142421 129.426922 
L 78.056915 129.426922 
L 79.014162 145.744181 
L 79.971409 129.290286 
L 87.629387 129.290286 
L 88.586634 128.846208 
L 90.501128 128.846208 
L 91.458375 128.305343 
L 93.37287 128.305343 
L 94.330117 128.786433 
L 95.287364 128.786433 
L 96.244611 127.995061 
L 100.0736 127.995061 
L 101.030847 128.709572 
L 101.988094 127.995061 
L 104.859836 127.995061 
L 105.817083 128.942993 
L 110.603319 128.942993 
L 111.560566 127.644929 
L 116.346802 127.644929 
L 117.304049 128.942993 
L 129.748262 128.942993 
L 130.705509 127.724629 
L 148.893206 127.724629 
L 149.850453 128.168708 
L 150.8077 84.925326 
L 159.422924 84.925326 
L 160.380172 104.059608 
L 210.157024 104.059608 
L 211.114272 129.003994 
L 288.651292 129.003994 
L 289.60854 150.106146 
L 541.364545 150.106146 
L 541.364545 150.106146 
" clip-path="url(#p02864ffd92)" style="fill: none; stroke: #9467bd; stroke-width: 1.5; stroke-linecap: square"/>
   </g>
   <g id="line2d_36">
    <path d="M 64.655455 113.183816 
L 69.44169 113.183816 
L 70.398938 44.923996 
L 75.185173 44.923996 
L 76.142421 43.955439 
L 78.056915 43.955439 
L 79.014162 49.462602 
L 79.971409 44.923996 
L 87.629387 44.923996 
L 88.586634 41.141107 
L 90.501128 41.141107 
L 91.458375 86.819817 
L 93.37287 86.819817 
L 94.330117 85.208704 
L 95.287364 85.208704 
L 96.244611 79.866431 
L 100.0736 79.866431 
L 101.030847 79.52203 
L 101.988094 89.766481 
L 104.859836 89.766481 
L 105.817083 79.395734 
L 110.603319 79.395734 
L 111.560566 89.766481 
L 116.346802 89.766481 
L 117.304049 88.097979 
L 118.261296 80.543783 
L 138.363487 80.543783 
L 139.320734 90.053493 
L 146.978711 90.076463 
L 147.935958 101.044037 
L 171.867138 101.044037 
L 172.824385 101.719234 
L 187.183092 101.719234 
L 188.14034 108.488294 
L 194.84107 108.488294 
L 195.798317 101.931724 
L 541.364545 101.931724 
L 541.364545 101.931724 
" clip-path="url(#p02864ffd92)" style="fill: none; stroke: #8c564b; stroke-width: 1.5; stroke-linecap: square"/>
   </g>
   <g id="line2d_37">
    <path d="M 64.655455 119.668314 
L 69.44169 119.668314 
L 70.398938 126.4663 
L 75.185173 126.4663 
L 76.142421 125.838625 
L 78.056915 125.838625 
L 79.014162 82.546823 
L 79.971409 126.4663 
L 87.629387 126.4663 
L 88.586634 127.168011 
L 90.501128 127.168011 
L 91.458375 113.94888 
L 93.37287 113.94888 
L 94.330117 114.499184 
L 95.287364 114.499184 
L 96.244611 112.966336 
L 100.0736 112.966336 
L 101.030847 114.411265 
L 101.988094 112.966336 
L 104.859836 112.966336 
L 105.817083 114.678269 
L 110.603319 114.678269 
L 111.560566 112.966336 
L 116.346802 112.966336 
L 117.304049 134.543619 
L 118.261296 114.678269 
L 129.748262 114.678269 
L 130.705509 113.284619 
L 141.235228 113.284619 
L 142.192475 109.798829 
L 146.978711 109.798829 
L 147.935958 113.284619 
L 148.893206 113.284619 
L 149.850453 113.792587 
L 159.422924 113.792587 
L 160.380172 120.754285 
L 187.183092 120.754285 
L 188.14034 113.66558 
L 194.84107 113.66558 
L 195.798317 112.297452 
L 296.30927 112.297452 
L 297.266517 129.08617 
L 305.881742 129.08617 
L 306.838989 112.297452 
L 541.364545 112.297452 
L 541.364545 112.297452 
" clip-path="url(#p02864ffd92)" style="fill: none; stroke: #e377c2; stroke-width: 1.5; stroke-linecap: square"/>
   </g>
   <g id="line2d_38">
    <path d="M 64.655455 145.623145 
L 69.44169 145.623145 
L 70.398938 124.078137 
L 75.185173 124.078137 
L 76.142421 124.640221 
L 78.056915 124.640221 
L 79.014162 122.306145 
L 79.971409 124.487794 
L 87.629387 124.487794 
L 88.586634 123.992394 
L 90.501128 123.992394 
L 91.458375 141.773934 
L 93.37287 141.773934 
L 94.330117 116.380539 
L 95.287364 116.380539 
L 96.244611 159.937299 
L 100.0736 159.937299 
L 101.030847 136.326204 
L 101.988094 166.294165 
L 104.859836 166.294165 
L 105.817083 143.965715 
L 110.603319 143.965715 
L 111.560566 166.294165 
L 116.346802 166.294165 
L 117.304049 124.100365 
L 118.261296 143.965715 
L 129.748262 143.965715 
L 130.705509 131.389629 
L 138.363487 131.389629 
L 139.320734 119.760245 
L 146.978711 119.760245 
L 147.935958 145.839023 
L 163.251913 145.839023 
L 164.20916 111.460773 
L 210.157024 111.460773 
L 211.114272 166.43176 
L 325.026685 166.43176 
L 325.983932 135.151704 
L 541.364545 135.151704 
L 541.364545 135.151704 
" clip-path="url(#p02864ffd92)" style="fill: none; stroke: #7f7f7f; stroke-width: 1.5; stroke-linecap: square"/>
   </g>
   <g id="line2d_39">
    <path d="M 64.655455 108.884231 
L 69.44169 108.884231 
L 70.398938 125.123401 
L 75.185173 125.123401 
L 76.142421 84.283182 
L 78.056915 84.283182 
L 79.014162 118.724735 
L 79.971409 125.123401 
L 87.629387 125.123401 
L 88.586634 125.900297 
L 90.501128 125.900297 
L 91.458375 82.708602 
L 93.37287 82.708602 
L 94.330117 85.980982 
L 95.287364 85.980982 
L 96.244611 119.075497 
L 100.0736 119.075497 
L 101.030847 86.680885 
L 101.988094 127.555675 
L 104.859836 127.555675 
L 105.817083 86.680885 
L 110.603319 86.680885 
L 111.560566 127.555675 
L 116.346802 127.555675 
L 117.304049 76.542522 
L 118.261296 86.097561 
L 138.363487 86.097561 
L 139.320734 80.428727 
L 146.978711 80.428727 
L 147.935958 78.653304 
L 171.867138 78.653304 
L 172.824385 108.108765 
L 210.157024 108.108765 
L 211.114272 108.626482 
L 325.026685 108.626482 
L 325.983932 107.037125 
L 541.364545 107.037125 
L 541.364545 107.037125 
" clip-path="url(#p02864ffd92)" style="fill: none; stroke: #bcbd22; stroke-width: 1.5; stroke-linecap: square"/>
   </g>
   <g id="line2d_40">
    <path d="M 64.655455 77.734647 
L 69.44169 77.734647 
L 70.398938 95.248336 
L 74.227926 95.248336 
L 75.185173 94.055458 
L 76.142421 99.536566 
L 79.014162 99.64345 
L 79.971409 92.959562 
L 87.629387 92.959562 
L 88.586634 81.336832 
L 90.501128 81.336832 
L 91.458375 96.702275 
L 93.37287 96.702275 
L 94.330117 109.066002 
L 95.287364 109.066002 
L 96.244611 37.871991 
L 100.0736 37.871991 
L 101.030847 104.309657 
L 101.988094 80.140628 
L 104.859836 80.140628 
L 105.817083 104.204022 
L 110.603319 104.204022 
L 111.560566 80.140628 
L 116.346802 80.140628 
L 117.304049 128.387788 
L 118.261296 136.499908 
L 138.363487 136.499908 
L 139.320734 131.687132 
L 146.978711 131.687132 
L 147.935958 130.179818 
L 171.867138 130.179818 
L 172.824385 130.789546 
L 187.183092 130.789546 
L 188.14034 136.902258 
L 194.84107 136.902258 
L 195.798317 130.981433 
L 541.364545 130.981433 
L 541.364545 130.981433 
" clip-path="url(#p02864ffd92)" style="fill: none; stroke: #17becf; stroke-width: 1.5; stroke-linecap: square"/>
   </g>
   <g id="patch_3">
    <path d="M 40.82 248.2 
L 40.82 10.8 
" style="fill: none; stroke: #000000; stroke-width: 0.8; stroke-linejoin: miter; stroke-linecap: square"/>
   </g>
   <g id="patch_4">
    <path d="M 565.2 248.2 
L 565.2 10.8 
" style="fill: none; stroke: #000000; stroke-width: 0.8; stroke-linejoin: miter; stroke-linecap: square"/>
   </g>
   <g id="patch_5">
    <path d="M 40.82 248.2 
L 565.2 248.2 
" style="fill: none; stroke: #000000; stroke-width: 0.8; stroke-linejoin: miter; stroke-linecap: square"/>
   </g>
   <g id="patch_6">
    <path d="M 40.82 10.8 
L 565.2 10.8 
" style="fill: none; stroke: #000000; stroke-width: 0.8; stroke-linejoin: miter; stroke-linecap: square"/>
   </g>
  </g>
 </g>
 <defs>
  <clipPath id="p02864ffd92">
   <rect x="40.82" y="10.8" width="524.38" height="237.4"/>
  </clipPath>
 </defs>
</svg>
