<?xml version="1.0" encoding="utf-8" standalone="no"?>
<!DOCTYPE svg PUBLIC "-//W3C//DTD SVG 1.1//EN"
  "http://www.w3.org/Graphics/SVG/1.1/DTD/svg11.dtd">
<svg xmlns:xlink="http://www.w3.org/1999/xlink" width="576pt" height="288pt" viewBox="0 0 576 288" xmlns="http://www.w3.org/2000/svg" version="1.1">
 <metadata>
  <rdf:RDF xmlns:dc="http://purl.org/dc/elements/1.1/" xmlns:cc="http://creativecommons.org/ns#" xmlns:rdf="http://www.w3.org/1999/02/22-rdf-syntax-ns#">
   <cc:Work>
    <dc:type rdf:resource="http://purl.org/dc/dcmitype/StillImage"/>
    <dc:date>2024-04-28T20:29:00.692666</dc:date>
    <dc:format>image/svg+xml</dc:format>
    <dc:creator>
     <cc:Agent>
      <dc:title>Matplotlib v3.7.1, https://matplotlib.org/</dc:title>
     </cc:Agent>
    </dc:creator>
   </cc:Work>
  </rdf:RDF>
 </metadata>
 <defs>
  <style type="text/css">*{stroke-linejoin: round; stroke-linecap: butt}</style>
 </defs>
 <g id="figure_1">
  <g id="patch_1">
   <path d="M 0 288 
L 576 288 
L 576 0 
L 0 0 
z
" style="fill: #ffffff"/>
  </g>
  <g id="axes_1">
   <g id="patch_2">
    <path d="M 72 256.32 
L 518.4 256.32 
L 518.4 34.56 
L 72 34.56 
z
" style="fill: #ffffff"/>
   </g>
   <g id="matplotlib.axis_1">
    <g id="xtick_1">
     <g id="line2d_1">
      <defs>
       <path id="ma980912af1" d="M 0 0 
L 0 3.5 
" style="stroke: #000000; stroke-width: 0.8"/>
      </defs>
      <g>
       <use xlink:href="#ma980912af1" x="92.290909" y="256.32" style="stroke: #000000; stroke-width: 0.8"/>
      </g>
     </g>
     <g id="text_1">
      <!-- 0 -->
      <g transform="translate(89.790909 270.26375) scale(0.1 -0.1)">
       <defs>
        <path id="TimesNewRomanPSMT-30" d="M 231 2094 
Q 231 2819 450 3342 
Q 669 3866 1031 4122 
Q 1313 4325 1613 4325 
Q 2100 4325 2488 3828 
Q 2972 3213 2972 2159 
Q 2972 1422 2759 906 
Q 2547 391 2217 158 
Q 1888 -75 1581 -75 
Q 975 -75 572 641 
Q 231 1244 231 2094 
z
M 844 2016 
Q 844 1141 1059 588 
Q 1238 122 1591 122 
Q 1759 122 1940 273 
Q 2122 425 2216 781 
Q 2359 1319 2359 2297 
Q 2359 3022 2209 3506 
Q 2097 3866 1919 4016 
Q 1791 4119 1609 4119 
Q 1397 4119 1231 3928 
Q 1006 3669 925 3112 
Q 844 2556 844 2016 
z
" transform="scale(0.015625)"/>
       </defs>
       <use xlink:href="#TimesNewRomanPSMT-30"/>
      </g>
     </g>
    </g>
    <g id="xtick_2">
     <g id="line2d_2">
      <g>
       <use xlink:href="#ma980912af1" x="173.617198" y="256.32" style="stroke: #000000; stroke-width: 0.8"/>
      </g>
     </g>
     <g id="text_2">
      <!-- 200 -->
      <g transform="translate(166.117198 270.26375) scale(0.1 -0.1)">
       <defs>
        <path id="TimesNewRomanPSMT-32" d="M 2934 816 
L 2638 0 
L 138 0 
L 138 116 
Q 1241 1122 1691 1759 
Q 2141 2397 2141 2925 
Q 2141 3328 1894 3587 
Q 1647 3847 1303 3847 
Q 991 3847 742 3664 
Q 494 3481 375 3128 
L 259 3128 
Q 338 3706 661 4015 
Q 984 4325 1469 4325 
Q 1984 4325 2329 3994 
Q 2675 3663 2675 3213 
Q 2675 2891 2525 2569 
Q 2294 2063 1775 1497 
Q 997 647 803 472 
L 1909 472 
Q 2247 472 2383 497 
Q 2519 522 2628 598 
Q 2738 675 2819 816 
L 2934 816 
z
" transform="scale(0.015625)"/>
       </defs>
       <use xlink:href="#TimesNewRomanPSMT-32"/>
       <use xlink:href="#TimesNewRomanPSMT-30" x="50"/>
       <use xlink:href="#TimesNewRomanPSMT-30" x="100"/>
      </g>
     </g>
    </g>
    <g id="xtick_3">
     <g id="line2d_3">
      <g>
       <use xlink:href="#ma980912af1" x="254.943487" y="256.32" style="stroke: #000000; stroke-width: 0.8"/>
      </g>
     </g>
     <g id="text_3">
      <!-- 400 -->
      <g transform="translate(247.443487 270.26375) scale(0.1 -0.1)">
       <defs>
        <path id="TimesNewRomanPSMT-34" d="M 2978 1563 
L 2978 1119 
L 2409 1119 
L 2409 0 
L 1894 0 
L 1894 1119 
L 100 1119 
L 100 1519 
L 2066 4325 
L 2409 4325 
L 2409 1563 
L 2978 1563 
z
M 1894 1563 
L 1894 3666 
L 406 1563 
L 1894 1563 
z
" transform="scale(0.015625)"/>
       </defs>
       <use xlink:href="#TimesNewRomanPSMT-34"/>
       <use xlink:href="#TimesNewRomanPSMT-30" x="50"/>
       <use xlink:href="#TimesNewRomanPSMT-30" x="100"/>
      </g>
     </g>
    </g>
    <g id="xtick_4">
     <g id="line2d_4">
      <g>
       <use xlink:href="#ma980912af1" x="336.269776" y="256.32" style="stroke: #000000; stroke-width: 0.8"/>
      </g>
     </g>
     <g id="text_4">
      <!-- 600 -->
      <g transform="translate(328.769776 270.26375) scale(0.1 -0.1)">
       <defs>
        <path id="TimesNewRomanPSMT-36" d="M 2869 4325 
L 2869 4209 
Q 2456 4169 2195 4045 
Q 1934 3922 1679 3669 
Q 1425 3416 1258 3105 
Q 1091 2794 978 2366 
Q 1428 2675 1881 2675 
Q 2316 2675 2634 2325 
Q 2953 1975 2953 1425 
Q 2953 894 2631 456 
Q 2244 -75 1606 -75 
Q 1172 -75 869 213 
Q 275 772 275 1663 
Q 275 2231 503 2743 
Q 731 3256 1154 3653 
Q 1578 4050 1965 4187 
Q 2353 4325 2688 4325 
L 2869 4325 
z
M 925 2138 
Q 869 1716 869 1456 
Q 869 1156 980 804 
Q 1091 453 1309 247 
Q 1469 100 1697 100 
Q 1969 100 2183 356 
Q 2397 613 2397 1088 
Q 2397 1622 2184 2012 
Q 1972 2403 1581 2403 
Q 1463 2403 1327 2353 
Q 1191 2303 925 2138 
z
" transform="scale(0.015625)"/>
       </defs>
       <use xlink:href="#TimesNewRomanPSMT-36"/>
       <use xlink:href="#TimesNewRomanPSMT-30" x="50"/>
       <use xlink:href="#TimesNewRomanPSMT-30" x="100"/>
      </g>
     </g>
    </g>
    <g id="xtick_5">
     <g id="line2d_5">
      <g>
       <use xlink:href="#ma980912af1" x="417.596065" y="256.32" style="stroke: #000000; stroke-width: 0.8"/>
      </g>
     </g>
     <g id="text_5">
      <!-- 800 -->
      <g transform="translate(410.096065 270.26375) scale(0.1 -0.1)">
       <defs>
        <path id="TimesNewRomanPSMT-38" d="M 1228 2134 
Q 725 2547 579 2797 
Q 434 3047 434 3316 
Q 434 3728 753 4026 
Q 1072 4325 1600 4325 
Q 2113 4325 2425 4047 
Q 2738 3769 2738 3413 
Q 2738 3175 2569 2928 
Q 2400 2681 1866 2347 
Q 2416 1922 2594 1678 
Q 2831 1359 2831 1006 
Q 2831 559 2490 242 
Q 2150 -75 1597 -75 
Q 994 -75 656 303 
Q 388 606 388 966 
Q 388 1247 577 1523 
Q 766 1800 1228 2134 
z
M 1719 2469 
Q 2094 2806 2194 3001 
Q 2294 3197 2294 3444 
Q 2294 3772 2109 3958 
Q 1925 4144 1606 4144 
Q 1288 4144 1088 3959 
Q 888 3775 888 3528 
Q 888 3366 970 3203 
Q 1053 3041 1206 2894 
L 1719 2469 
z
M 1375 2016 
Q 1116 1797 991 1539 
Q 866 1281 866 981 
Q 866 578 1086 336 
Q 1306 94 1647 94 
Q 1984 94 2187 284 
Q 2391 475 2391 747 
Q 2391 972 2272 1150 
Q 2050 1481 1375 2016 
z
" transform="scale(0.015625)"/>
       </defs>
       <use xlink:href="#TimesNewRomanPSMT-38"/>
       <use xlink:href="#TimesNewRomanPSMT-30" x="50"/>
       <use xlink:href="#TimesNewRomanPSMT-30" x="100"/>
      </g>
     </g>
    </g>
    <g id="xtick_6">
     <g id="line2d_6">
      <g>
       <use xlink:href="#ma980912af1" x="498.922354" y="256.32" style="stroke: #000000; stroke-width: 0.8"/>
      </g>
     </g>
     <g id="text_6">
      <!-- 1000 -->
      <g transform="translate(488.922354 270.26375) scale(0.1 -0.1)">
       <defs>
        <path id="TimesNewRomanPSMT-31" d="M 750 3822 
L 1781 4325 
L 1884 4325 
L 1884 747 
Q 1884 391 1914 303 
Q 1944 216 2037 169 
Q 2131 122 2419 116 
L 2419 0 
L 825 0 
L 825 116 
Q 1125 122 1212 167 
Q 1300 213 1334 289 
Q 1369 366 1369 747 
L 1369 3034 
Q 1369 3497 1338 3628 
Q 1316 3728 1258 3775 
Q 1200 3822 1119 3822 
Q 1003 3822 797 3725 
L 750 3822 
z
" transform="scale(0.015625)"/>
       </defs>
       <use xlink:href="#TimesNewRomanPSMT-31"/>
       <use xlink:href="#TimesNewRomanPSMT-30" x="50"/>
       <use xlink:href="#TimesNewRomanPSMT-30" x="100"/>
       <use xlink:href="#TimesNewRomanPSMT-30" x="150"/>
      </g>
     </g>
    </g>
    <g id="text_7">
     <!-- generation for CFGA -->
     <g transform="translate(252.43125 283.346563) scale(0.1 -0.1)">
      <defs>
       <path id="TimesNewRomanPSMT-67" d="M 966 1044 
Q 703 1172 562 1401 
Q 422 1631 422 1909 
Q 422 2334 742 2640 
Q 1063 2947 1563 2947 
Q 1972 2947 2272 2747 
L 2878 2747 
Q 3013 2747 3034 2739 
Q 3056 2731 3066 2713 
Q 3084 2684 3084 2613 
Q 3084 2531 3069 2500 
Q 3059 2484 3036 2475 
Q 3013 2466 2878 2466 
L 2506 2466 
Q 2681 2241 2681 1891 
Q 2681 1491 2375 1206 
Q 2069 922 1553 922 
Q 1341 922 1119 984 
Q 981 866 932 777 
Q 884 688 884 625 
Q 884 572 936 522 
Q 988 472 1138 450 
Q 1225 438 1575 428 
Q 2219 413 2409 384 
Q 2700 344 2873 169 
Q 3047 -6 3047 -263 
Q 3047 -616 2716 -925 
Q 2228 -1381 1444 -1381 
Q 841 -1381 425 -1109 
Q 191 -953 191 -784 
Q 191 -709 225 -634 
Q 278 -519 444 -313 
Q 466 -284 763 25 
Q 600 122 533 198 
Q 466 275 466 372 
Q 466 481 555 628 
Q 644 775 966 1044 
z
M 1509 2797 
Q 1278 2797 1122 2612 
Q 966 2428 966 2047 
Q 966 1553 1178 1281 
Q 1341 1075 1591 1075 
Q 1828 1075 1981 1253 
Q 2134 1431 2134 1813 
Q 2134 2309 1919 2591 
Q 1759 2797 1509 2797 
z
M 934 0 
Q 788 -159 713 -296 
Q 638 -434 638 -550 
Q 638 -700 819 -813 
Q 1131 -1006 1722 -1006 
Q 2284 -1006 2551 -807 
Q 2819 -609 2819 -384 
Q 2819 -222 2659 -153 
Q 2497 -84 2016 -72 
Q 1313 -53 934 0 
z
" transform="scale(0.015625)"/>
       <path id="TimesNewRomanPSMT-65" d="M 681 1784 
Q 678 1147 991 784 
Q 1303 422 1725 422 
Q 2006 422 2214 576 
Q 2422 731 2563 1106 
L 2659 1044 
Q 2594 616 2278 264 
Q 1963 -88 1488 -88 
Q 972 -88 605 314 
Q 238 716 238 1394 
Q 238 2128 614 2539 
Q 991 2950 1559 2950 
Q 2041 2950 2350 2633 
Q 2659 2316 2659 1784 
L 681 1784 
z
M 681 1966 
L 2006 1966 
Q 1991 2241 1941 2353 
Q 1863 2528 1708 2628 
Q 1553 2728 1384 2728 
Q 1125 2728 920 2526 
Q 716 2325 681 1966 
z
" transform="scale(0.015625)"/>
       <path id="TimesNewRomanPSMT-6e" d="M 1034 2341 
Q 1538 2947 1994 2947 
Q 2228 2947 2397 2830 
Q 2566 2713 2666 2444 
Q 2734 2256 2734 1869 
L 2734 647 
Q 2734 375 2778 278 
Q 2813 200 2889 156 
Q 2966 113 3172 113 
L 3172 0 
L 1756 0 
L 1756 113 
L 1816 113 
Q 2016 113 2095 173 
Q 2175 234 2206 353 
Q 2219 400 2219 647 
L 2219 1819 
Q 2219 2209 2117 2386 
Q 2016 2563 1775 2563 
Q 1403 2563 1034 2156 
L 1034 647 
Q 1034 356 1069 288 
Q 1113 197 1189 155 
Q 1266 113 1500 113 
L 1500 0 
L 84 0 
L 84 113 
L 147 113 
Q 366 113 442 223 
Q 519 334 519 647 
L 519 1709 
Q 519 2225 495 2337 
Q 472 2450 423 2490 
Q 375 2531 294 2531 
Q 206 2531 84 2484 
L 38 2597 
L 900 2947 
L 1034 2947 
L 1034 2341 
z
" transform="scale(0.015625)"/>
       <path id="TimesNewRomanPSMT-72" d="M 1038 2947 
L 1038 2303 
Q 1397 2947 1775 2947 
Q 1947 2947 2059 2842 
Q 2172 2738 2172 2600 
Q 2172 2478 2090 2393 
Q 2009 2309 1897 2309 
Q 1788 2309 1652 2417 
Q 1516 2525 1450 2525 
Q 1394 2525 1328 2463 
Q 1188 2334 1038 2041 
L 1038 669 
Q 1038 431 1097 309 
Q 1138 225 1241 169 
Q 1344 113 1538 113 
L 1538 0 
L 72 0 
L 72 113 
Q 291 113 397 181 
Q 475 231 506 341 
Q 522 394 522 644 
L 522 1753 
Q 522 2253 501 2348 
Q 481 2444 426 2487 
Q 372 2531 291 2531 
Q 194 2531 72 2484 
L 41 2597 
L 906 2947 
L 1038 2947 
z
" transform="scale(0.015625)"/>
       <path id="TimesNewRomanPSMT-61" d="M 1822 413 
Q 1381 72 1269 19 
Q 1100 -59 909 -59 
Q 613 -59 420 144 
Q 228 347 228 678 
Q 228 888 322 1041 
Q 450 1253 767 1440 
Q 1084 1628 1822 1897 
L 1822 2009 
Q 1822 2438 1686 2597 
Q 1550 2756 1291 2756 
Q 1094 2756 978 2650 
Q 859 2544 859 2406 
L 866 2225 
Q 866 2081 792 2003 
Q 719 1925 600 1925 
Q 484 1925 411 2006 
Q 338 2088 338 2228 
Q 338 2497 613 2722 
Q 888 2947 1384 2947 
Q 1766 2947 2009 2819 
Q 2194 2722 2281 2516 
Q 2338 2381 2338 1966 
L 2338 994 
Q 2338 584 2353 492 
Q 2369 400 2405 369 
Q 2441 338 2488 338 
Q 2538 338 2575 359 
Q 2641 400 2828 588 
L 2828 413 
Q 2478 -56 2159 -56 
Q 2006 -56 1915 50 
Q 1825 156 1822 413 
z
M 1822 616 
L 1822 1706 
Q 1350 1519 1213 1441 
Q 966 1303 859 1153 
Q 753 1003 753 825 
Q 753 600 887 451 
Q 1022 303 1197 303 
Q 1434 303 1822 616 
z
" transform="scale(0.015625)"/>
       <path id="TimesNewRomanPSMT-74" d="M 1031 3803 
L 1031 2863 
L 1700 2863 
L 1700 2644 
L 1031 2644 
L 1031 788 
Q 1031 509 1111 412 
Q 1191 316 1316 316 
Q 1419 316 1516 380 
Q 1613 444 1666 569 
L 1788 569 
Q 1678 263 1478 108 
Q 1278 -47 1066 -47 
Q 922 -47 784 33 
Q 647 113 581 261 
Q 516 409 516 719 
L 516 2644 
L 63 2644 
L 63 2747 
Q 234 2816 414 2980 
Q 594 3144 734 3369 
Q 806 3488 934 3803 
L 1031 3803 
z
" transform="scale(0.015625)"/>
       <path id="TimesNewRomanPSMT-69" d="M 928 4444 
Q 1059 4444 1151 4351 
Q 1244 4259 1244 4128 
Q 1244 3997 1151 3903 
Q 1059 3809 928 3809 
Q 797 3809 703 3903 
Q 609 3997 609 4128 
Q 609 4259 701 4351 
Q 794 4444 928 4444 
z
M 1188 2947 
L 1188 647 
Q 1188 378 1227 289 
Q 1266 200 1342 156 
Q 1419 113 1622 113 
L 1622 0 
L 231 0 
L 231 113 
Q 441 113 512 153 
Q 584 194 626 287 
Q 669 381 669 647 
L 669 1750 
Q 669 2216 641 2353 
Q 619 2453 572 2492 
Q 525 2531 444 2531 
Q 356 2531 231 2484 
L 188 2597 
L 1050 2947 
L 1188 2947 
z
" transform="scale(0.015625)"/>
       <path id="TimesNewRomanPSMT-6f" d="M 1600 2947 
Q 2250 2947 2644 2453 
Q 2978 2031 2978 1484 
Q 2978 1100 2793 706 
Q 2609 313 2286 112 
Q 1963 -88 1566 -88 
Q 919 -88 538 428 
Q 216 863 216 1403 
Q 216 1797 411 2186 
Q 606 2575 925 2761 
Q 1244 2947 1600 2947 
z
M 1503 2744 
Q 1338 2744 1170 2645 
Q 1003 2547 900 2300 
Q 797 2053 797 1666 
Q 797 1041 1045 587 
Q 1294 134 1700 134 
Q 2003 134 2200 384 
Q 2397 634 2397 1244 
Q 2397 2006 2069 2444 
Q 1847 2744 1503 2744 
z
" transform="scale(0.015625)"/>
       <path id="TimesNewRomanPSMT-20" transform="scale(0.015625)"/>
       <path id="TimesNewRomanPSMT-66" d="M 1319 2638 
L 1319 756 
Q 1319 356 1406 250 
Q 1522 113 1716 113 
L 1975 113 
L 1975 0 
L 266 0 
L 266 113 
L 394 113 
Q 519 113 622 175 
Q 725 238 764 344 
Q 803 450 803 756 
L 803 2638 
L 247 2638 
L 247 2863 
L 803 2863 
L 803 3050 
Q 803 3478 940 3775 
Q 1078 4072 1361 4255 
Q 1644 4438 1997 4438 
Q 2325 4438 2600 4225 
Q 2781 4084 2781 3909 
Q 2781 3816 2700 3733 
Q 2619 3650 2525 3650 
Q 2453 3650 2373 3701 
Q 2294 3753 2178 3923 
Q 2063 4094 1966 4153 
Q 1869 4213 1750 4213 
Q 1606 4213 1506 4136 
Q 1406 4059 1362 3898 
Q 1319 3738 1319 3069 
L 1319 2863 
L 2056 2863 
L 2056 2638 
L 1319 2638 
z
" transform="scale(0.015625)"/>
       <path id="TimesNewRomanPSMT-43" d="M 3853 4334 
L 3950 2894 
L 3853 2894 
Q 3659 3541 3300 3825 
Q 2941 4109 2438 4109 
Q 2016 4109 1675 3895 
Q 1334 3681 1139 3212 
Q 944 2744 944 2047 
Q 944 1472 1128 1050 
Q 1313 628 1683 403 
Q 2053 178 2528 178 
Q 2941 178 3256 354 
Q 3572 531 3950 1056 
L 4047 994 
Q 3728 428 3303 165 
Q 2878 -97 2294 -97 
Q 1241 -97 663 684 
Q 231 1266 231 2053 
Q 231 2688 515 3219 
Q 800 3750 1298 4042 
Q 1797 4334 2388 4334 
Q 2847 4334 3294 4109 
Q 3425 4041 3481 4041 
Q 3566 4041 3628 4100 
Q 3709 4184 3744 4334 
L 3853 4334 
z
" transform="scale(0.015625)"/>
       <path id="TimesNewRomanPSMT-46" d="M 1309 4006 
L 1309 2341 
L 2081 2341 
Q 2347 2341 2470 2458 
Q 2594 2575 2634 2922 
L 2750 2922 
L 2750 1488 
L 2634 1488 
Q 2631 1734 2570 1850 
Q 2509 1966 2401 2023 
Q 2294 2081 2081 2081 
L 1309 2081 
L 1309 750 
Q 1309 428 1350 325 
Q 1381 247 1481 191 
Q 1619 116 1769 116 
L 1922 116 
L 1922 0 
L 103 0 
L 103 116 
L 253 116 
Q 516 116 634 269 
Q 709 369 709 750 
L 709 3488 
Q 709 3809 669 3913 
Q 638 3991 541 4047 
Q 406 4122 253 4122 
L 103 4122 
L 103 4238 
L 3256 4238 
L 3297 3306 
L 3188 3306 
Q 3106 3603 2998 3742 
Q 2891 3881 2733 3943 
Q 2575 4006 2244 4006 
L 1309 4006 
z
" transform="scale(0.015625)"/>
       <path id="TimesNewRomanPSMT-47" d="M 3928 4334 
L 4038 2997 
L 3928 2997 
Q 3763 3497 3500 3750 
Q 3122 4116 2528 4116 
Q 1719 4116 1297 3475 
Q 944 2934 944 2188 
Q 944 1581 1178 1081 
Q 1413 581 1792 348 
Q 2172 116 2572 116 
Q 2806 116 3025 175 
Q 3244 234 3447 350 
L 3447 1575 
Q 3447 1894 3398 1992 
Q 3350 2091 3248 2142 
Q 3147 2194 2891 2194 
L 2891 2313 
L 4531 2313 
L 4531 2194 
L 4453 2194 
Q 4209 2194 4119 2031 
Q 4056 1916 4056 1575 
L 4056 278 
Q 3697 84 3347 -6 
Q 2997 -97 2569 -97 
Q 1341 -97 703 691 
Q 225 1281 225 2053 
Q 225 2613 494 3125 
Q 813 3734 1369 4063 
Q 1834 4334 2469 4334 
Q 2700 4334 2889 4296 
Q 3078 4259 3425 4131 
Q 3600 4066 3659 4066 
Q 3719 4066 3761 4120 
Q 3803 4175 3813 4334 
L 3928 4334 
z
" transform="scale(0.015625)"/>
       <path id="TimesNewRomanPSMT-41" d="M 2928 1419 
L 1288 1419 
L 1000 750 
Q 894 503 894 381 
Q 894 284 986 211 
Q 1078 138 1384 116 
L 1384 0 
L 50 0 
L 50 116 
Q 316 163 394 238 
Q 553 388 747 847 
L 2238 4334 
L 2347 4334 
L 3822 809 
Q 4000 384 4145 257 
Q 4291 131 4550 116 
L 4550 0 
L 2878 0 
L 2878 116 
Q 3131 128 3220 200 
Q 3309 272 3309 375 
Q 3309 513 3184 809 
L 2928 1419 
z
M 2841 1650 
L 2122 3363 
L 1384 1650 
L 2841 1650 
z
" transform="scale(0.015625)"/>
      </defs>
      <use xlink:href="#TimesNewRomanPSMT-67"/>
      <use xlink:href="#TimesNewRomanPSMT-65" x="50"/>
      <use xlink:href="#TimesNewRomanPSMT-6e" x="94.384766"/>
      <use xlink:href="#TimesNewRomanPSMT-65" x="144.384766"/>
      <use xlink:href="#TimesNewRomanPSMT-72" x="188.769531"/>
      <use xlink:href="#TimesNewRomanPSMT-61" x="222.070312"/>
      <use xlink:href="#TimesNewRomanPSMT-74" x="266.455078"/>
      <use xlink:href="#TimesNewRomanPSMT-69" x="294.238281"/>
      <use xlink:href="#TimesNewRomanPSMT-6f" x="322.021484"/>
      <use xlink:href="#TimesNewRomanPSMT-6e" x="372.021484"/>
      <use xlink:href="#TimesNewRomanPSMT-20" x="422.021484"/>
      <use xlink:href="#TimesNewRomanPSMT-66" x="447.021484"/>
      <use xlink:href="#TimesNewRomanPSMT-6f" x="480.322266"/>
      <use xlink:href="#TimesNewRomanPSMT-72" x="530.322266"/>
      <use xlink:href="#TimesNewRomanPSMT-20" x="563.623047"/>
      <use xlink:href="#TimesNewRomanPSMT-43" x="588.623047"/>
      <use xlink:href="#TimesNewRomanPSMT-46" x="655.322266"/>
      <use xlink:href="#TimesNewRomanPSMT-47" x="710.9375"/>
      <use xlink:href="#TimesNewRomanPSMT-41" x="783.154297"/>
     </g>
    </g>
   </g>
   <g id="matplotlib.axis_2">
    <g id="ytick_1">
     <g id="line2d_7">
      <path d="M 72 236.701177 
L 518.4 236.701177 
" clip-path="url(#p77dcbffa61)" style="fill: none; stroke: #b0b0b0; stroke-width: 0.8; stroke-linecap: square"/>
     </g>
     <g id="line2d_8">
      <defs>
       <path id="m650d47c7b3" d="M 0 0 
L -3.5 0 
" style="stroke: #000000; stroke-width: 0.8"/>
      </defs>
      <g>
       <use xlink:href="#m650d47c7b3" x="72" y="236.701177" style="stroke: #000000; stroke-width: 0.8"/>
      </g>
     </g>
     <g id="text_8">
      <!-- 2650 -->
      <g transform="translate(45 240.173052) scale(0.1 -0.1)">
       <defs>
        <path id="TimesNewRomanPSMT-35" d="M 2778 4238 
L 2534 3706 
L 1259 3706 
L 981 3138 
Q 1809 3016 2294 2522 
Q 2709 2097 2709 1522 
Q 2709 1188 2573 903 
Q 2438 619 2231 419 
Q 2025 219 1772 97 
Q 1413 -75 1034 -75 
Q 653 -75 479 54 
Q 306 184 306 341 
Q 306 428 378 495 
Q 450 563 559 563 
Q 641 563 702 538 
Q 763 513 909 409 
Q 1144 247 1384 247 
Q 1750 247 2026 523 
Q 2303 800 2303 1197 
Q 2303 1581 2056 1914 
Q 1809 2247 1375 2428 
Q 1034 2569 447 2591 
L 1259 4238 
L 2778 4238 
z
" transform="scale(0.015625)"/>
       </defs>
       <use xlink:href="#TimesNewRomanPSMT-32"/>
       <use xlink:href="#TimesNewRomanPSMT-36" x="50"/>
       <use xlink:href="#TimesNewRomanPSMT-35" x="100"/>
       <use xlink:href="#TimesNewRomanPSMT-30" x="150"/>
      </g>
     </g>
    </g>
    <g id="ytick_2">
     <g id="line2d_9">
      <path d="M 72 207.745555 
L 518.4 207.745555 
" clip-path="url(#p77dcbffa61)" style="fill: none; stroke: #b0b0b0; stroke-width: 0.8; stroke-linecap: square"/>
     </g>
     <g id="line2d_10">
      <g>
       <use xlink:href="#m650d47c7b3" x="72" y="207.745555" style="stroke: #000000; stroke-width: 0.8"/>
      </g>
     </g>
     <g id="text_9">
      <!-- 2700 -->
      <g transform="translate(45 211.21743) scale(0.1 -0.1)">
       <defs>
        <path id="TimesNewRomanPSMT-37" d="M 644 4238 
L 2916 4238 
L 2916 4119 
L 1503 -88 
L 1153 -88 
L 2419 3728 
L 1253 3728 
Q 900 3728 750 3644 
Q 488 3500 328 3200 
L 238 3234 
L 644 4238 
z
" transform="scale(0.015625)"/>
       </defs>
       <use xlink:href="#TimesNewRomanPSMT-32"/>
       <use xlink:href="#TimesNewRomanPSMT-37" x="50"/>
       <use xlink:href="#TimesNewRomanPSMT-30" x="100"/>
       <use xlink:href="#TimesNewRomanPSMT-30" x="150"/>
      </g>
     </g>
    </g>
    <g id="ytick_3">
     <g id="line2d_11">
      <path d="M 72 178.789932 
L 518.4 178.789932 
" clip-path="url(#p77dcbffa61)" style="fill: none; stroke: #b0b0b0; stroke-width: 0.8; stroke-linecap: square"/>
     </g>
     <g id="line2d_12">
      <g>
       <use xlink:href="#m650d47c7b3" x="72" y="178.789932" style="stroke: #000000; stroke-width: 0.8"/>
      </g>
     </g>
     <g id="text_10">
      <!-- 2750 -->
      <g transform="translate(45 182.261807) scale(0.1 -0.1)">
       <use xlink:href="#TimesNewRomanPSMT-32"/>
       <use xlink:href="#TimesNewRomanPSMT-37" x="50"/>
       <use xlink:href="#TimesNewRomanPSMT-35" x="100"/>
       <use xlink:href="#TimesNewRomanPSMT-30" x="150"/>
      </g>
     </g>
    </g>
    <g id="ytick_4">
     <g id="line2d_13">
      <path d="M 72 149.83431 
L 518.4 149.83431 
" clip-path="url(#p77dcbffa61)" style="fill: none; stroke: #b0b0b0; stroke-width: 0.8; stroke-linecap: square"/>
     </g>
     <g id="line2d_14">
      <g>
       <use xlink:href="#m650d47c7b3" x="72" y="149.83431" style="stroke: #000000; stroke-width: 0.8"/>
      </g>
     </g>
     <g id="text_11">
      <!-- 2800 -->
      <g transform="translate(45 153.306185) scale(0.1 -0.1)">
       <use xlink:href="#TimesNewRomanPSMT-32"/>
       <use xlink:href="#TimesNewRomanPSMT-38" x="50"/>
       <use xlink:href="#TimesNewRomanPSMT-30" x="100"/>
       <use xlink:href="#TimesNewRomanPSMT-30" x="150"/>
      </g>
     </g>
    </g>
    <g id="ytick_5">
     <g id="line2d_15">
      <path d="M 72 120.878687 
L 518.4 120.878687 
" clip-path="url(#p77dcbffa61)" style="fill: none; stroke: #b0b0b0; stroke-width: 0.8; stroke-linecap: square"/>
     </g>
     <g id="line2d_16">
      <g>
       <use xlink:href="#m650d47c7b3" x="72" y="120.878687" style="stroke: #000000; stroke-width: 0.8"/>
      </g>
     </g>
     <g id="text_12">
      <!-- 2850 -->
      <g transform="translate(45 124.350562) scale(0.1 -0.1)">
       <use xlink:href="#TimesNewRomanPSMT-32"/>
       <use xlink:href="#TimesNewRomanPSMT-38" x="50"/>
       <use xlink:href="#TimesNewRomanPSMT-35" x="100"/>
       <use xlink:href="#TimesNewRomanPSMT-30" x="150"/>
      </g>
     </g>
    </g>
    <g id="ytick_6">
     <g id="line2d_17">
      <path d="M 72 91.923065 
L 518.4 91.923065 
" clip-path="url(#p77dcbffa61)" style="fill: none; stroke: #b0b0b0; stroke-width: 0.8; stroke-linecap: square"/>
     </g>
     <g id="line2d_18">
      <g>
       <use xlink:href="#m650d47c7b3" x="72" y="91.923065" style="stroke: #000000; stroke-width: 0.8"/>
      </g>
     </g>
     <g id="text_13">
      <!-- 2900 -->
      <g transform="translate(45 95.39494) scale(0.1 -0.1)">
       <defs>
        <path id="TimesNewRomanPSMT-39" d="M 338 -88 
L 338 28 
Q 744 34 1094 217 
Q 1444 400 1770 856 
Q 2097 1313 2225 1859 
Q 1734 1544 1338 1544 
Q 891 1544 572 1889 
Q 253 2234 253 2806 
Q 253 3363 572 3797 
Q 956 4325 1575 4325 
Q 2097 4325 2469 3894 
Q 2925 3359 2925 2575 
Q 2925 1869 2578 1258 
Q 2231 647 1613 244 
Q 1109 -88 516 -88 
L 338 -88 
z
M 2275 2091 
Q 2331 2497 2331 2741 
Q 2331 3044 2228 3395 
Q 2125 3747 1936 3934 
Q 1747 4122 1506 4122 
Q 1228 4122 1018 3872 
Q 809 3622 809 3128 
Q 809 2469 1088 2097 
Q 1291 1828 1588 1828 
Q 1731 1828 1928 1897 
Q 2125 1966 2275 2091 
z
" transform="scale(0.015625)"/>
       </defs>
       <use xlink:href="#TimesNewRomanPSMT-32"/>
       <use xlink:href="#TimesNewRomanPSMT-39" x="50"/>
       <use xlink:href="#TimesNewRomanPSMT-30" x="100"/>
       <use xlink:href="#TimesNewRomanPSMT-30" x="150"/>
      </g>
     </g>
    </g>
    <g id="ytick_7">
     <g id="line2d_19">
      <path d="M 72 62.967442 
L 518.4 62.967442 
" clip-path="url(#p77dcbffa61)" style="fill: none; stroke: #b0b0b0; stroke-width: 0.8; stroke-linecap: square"/>
     </g>
     <g id="line2d_20">
      <g>
       <use xlink:href="#m650d47c7b3" x="72" y="62.967442" style="stroke: #000000; stroke-width: 0.8"/>
      </g>
     </g>
     <g id="text_14">
      <!-- 2950 -->
      <g transform="translate(45 66.439317) scale(0.1 -0.1)">
       <use xlink:href="#TimesNewRomanPSMT-32"/>
       <use xlink:href="#TimesNewRomanPSMT-39" x="50"/>
       <use xlink:href="#TimesNewRomanPSMT-35" x="100"/>
       <use xlink:href="#TimesNewRomanPSMT-30" x="150"/>
      </g>
     </g>
    </g>
    <g id="text_15">
     <!-- Total cost -->
     <g transform="translate(38.860937 164.94625) rotate(-90) scale(0.1 -0.1)">
      <defs>
       <path id="TimesNewRomanPSMT-54" d="M 3703 4238 
L 3750 3244 
L 3631 3244 
Q 3597 3506 3538 3619 
Q 3441 3800 3280 3886 
Q 3119 3972 2856 3972 
L 2259 3972 
L 2259 734 
Q 2259 344 2344 247 
Q 2463 116 2709 116 
L 2856 116 
L 2856 0 
L 1059 0 
L 1059 116 
L 1209 116 
Q 1478 116 1591 278 
Q 1659 378 1659 734 
L 1659 3972 
L 1150 3972 
Q 853 3972 728 3928 
Q 566 3869 450 3700 
Q 334 3531 313 3244 
L 194 3244 
L 244 4238 
L 3703 4238 
z
" transform="scale(0.015625)"/>
       <path id="TimesNewRomanPSMT-6c" d="M 1184 4444 
L 1184 647 
Q 1184 378 1223 290 
Q 1263 203 1344 158 
Q 1425 113 1647 113 
L 1647 0 
L 244 0 
L 244 113 
Q 441 113 512 153 
Q 584 194 625 287 
Q 666 381 666 647 
L 666 3247 
Q 666 3731 644 3842 
Q 622 3953 573 3993 
Q 525 4034 450 4034 
Q 369 4034 244 3984 
L 191 4094 
L 1044 4444 
L 1184 4444 
z
" transform="scale(0.015625)"/>
       <path id="TimesNewRomanPSMT-63" d="M 2631 1088 
Q 2516 522 2178 217 
Q 1841 -88 1431 -88 
Q 944 -88 581 321 
Q 219 731 219 1428 
Q 219 2103 620 2525 
Q 1022 2947 1584 2947 
Q 2006 2947 2278 2723 
Q 2550 2500 2550 2259 
Q 2550 2141 2473 2067 
Q 2397 1994 2259 1994 
Q 2075 1994 1981 2113 
Q 1928 2178 1911 2362 
Q 1894 2547 1784 2644 
Q 1675 2738 1481 2738 
Q 1169 2738 978 2506 
Q 725 2200 725 1697 
Q 725 1184 976 792 
Q 1228 400 1656 400 
Q 1963 400 2206 609 
Q 2378 753 2541 1131 
L 2631 1088 
z
" transform="scale(0.015625)"/>
       <path id="TimesNewRomanPSMT-73" d="M 2050 2947 
L 2050 1972 
L 1947 1972 
Q 1828 2431 1642 2597 
Q 1456 2763 1169 2763 
Q 950 2763 815 2647 
Q 681 2531 681 2391 
Q 681 2216 781 2091 
Q 878 1963 1175 1819 
L 1631 1597 
Q 2266 1288 2266 781 
Q 2266 391 1970 151 
Q 1675 -88 1309 -88 
Q 1047 -88 709 6 
Q 606 38 541 38 
Q 469 38 428 -44 
L 325 -44 
L 325 978 
L 428 978 
Q 516 541 762 319 
Q 1009 97 1316 97 
Q 1531 97 1667 223 
Q 1803 350 1803 528 
Q 1803 744 1651 891 
Q 1500 1038 1047 1263 
Q 594 1488 453 1669 
Q 313 1847 313 2119 
Q 313 2472 555 2709 
Q 797 2947 1181 2947 
Q 1350 2947 1591 2875 
Q 1750 2828 1803 2828 
Q 1853 2828 1881 2850 
Q 1909 2872 1947 2947 
L 2050 2947 
z
" transform="scale(0.015625)"/>
      </defs>
      <use xlink:href="#TimesNewRomanPSMT-54"/>
      <use xlink:href="#TimesNewRomanPSMT-6f" x="54.083984"/>
      <use xlink:href="#TimesNewRomanPSMT-74" x="104.083984"/>
      <use xlink:href="#TimesNewRomanPSMT-61" x="131.867188"/>
      <use xlink:href="#TimesNewRomanPSMT-6c" x="176.251953"/>
      <use xlink:href="#TimesNewRomanPSMT-20" x="204.035156"/>
      <use xlink:href="#TimesNewRomanPSMT-63" x="229.035156"/>
      <use xlink:href="#TimesNewRomanPSMT-6f" x="273.419922"/>
      <use xlink:href="#TimesNewRomanPSMT-73" x="323.419922"/>
      <use xlink:href="#TimesNewRomanPSMT-74" x="362.335938"/>
     </g>
    </g>
   </g>
   <g id="line2d_21">
    <path d="M 92.290909 44.64 
L 92.697541 44.64 
L 93.104172 46.79235 
L 93.917435 46.79235 
L 94.730698 48.118781 
L 95.137329 48.118781 
L 95.543961 50.049895 
L 95.950592 55.168119 
L 96.357224 55.168119 
L 96.763855 56.49455 
L 97.170486 57.053679 
L 97.577118 57.053679 
L 97.983749 63.731065 
L 99.610275 63.731065 
L 100.016907 66.80345 
L 100.423538 67.362409 
L 101.643432 67.362409 
L 102.050064 71.46112 
L 102.863327 71.46112 
L 103.269958 77.76849 
L 103.67659 77.76849 
L 104.083221 78.248637 
L 104.489852 78.248637 
L 104.896484 78.722644 
L 105.303115 78.722644 
L 105.709747 87.517472 
L 106.116378 87.520924 
L 106.52301 89.097045 
L 108.149535 89.097045 
L 108.556167 92.640227 
L 110.182693 92.640227 
L 110.589324 93.101967 
L 111.402587 93.101967 
L 111.809218 94.067079 
L 112.21585 96.613058 
L 112.622481 96.613058 
L 113.029113 98.062006 
L 113.435744 98.062006 
L 113.842376 99.688682 
L 115.06227 99.688682 
L 115.468901 102.664291 
L 116.688796 102.664291 
L 117.095427 107.838499 
L 118.315322 107.838499 
L 118.721953 108.274121 
L 119.941847 108.274121 
L 120.348479 110.58011 
L 123.60153 110.58011 
L 124.008162 112.461594 
L 124.414793 112.855452 
L 124.821425 112.855452 
L 125.228056 115.548954 
L 126.041319 115.548954 
L 126.44795 116.893873 
L 127.667845 116.893873 
L 128.074476 118.29281 
L 128.887739 118.29281 
L 129.294371 119.261911 
L 129.701002 119.275847 
L 130.107633 122.056988 
L 130.920896 122.143544 
L 132.140791 122.143544 
L 132.547422 125.429878 
L 136.207105 125.429878 
L 136.613737 127.327655 
L 139.053525 127.327655 
L 139.460157 128.764486 
L 140.27342 128.764486 
L 140.680051 133.030372 
L 141.086682 134.662178 
L 144.746365 134.662178 
L 145.152997 138.076629 
L 150.439206 138.076629 
L 150.845837 138.900816 
L 151.252469 140.911323 
L 153.285626 140.911323 
L 153.692257 141.610943 
L 154.912152 141.659215 
L 155.318783 142.662138 
L 156.132046 142.662138 
L 156.538677 142.942489 
L 156.945309 142.942489 
L 157.35194 143.718216 
L 158.165203 143.718216 
L 158.571835 147.78101 
L 161.418255 147.80768 
L 161.824886 149.250391 
L 163.04478 149.250391 
L 163.451412 151.039017 
L 166.704463 151.043325 
L 167.111095 151.49717 
L 168.330989 151.49717 
L 168.737621 153.14785 
L 169.144252 153.14785 
L 169.550884 156.210663 
L 171.584041 156.210663 
L 171.990672 156.518507 
L 173.210567 156.545146 
L 173.617198 158.532552 
L 174.430461 158.532552 
L 174.837092 160.40919 
L 177.276881 160.40919 
L 177.683512 160.612734 
L 180.529933 160.612734 
L 180.936564 161.4362 
L 182.969721 161.437667 
L 183.376353 164.307717 
L 185.40951 164.307717 
L 185.816141 164.566847 
L 186.222773 164.566847 
L 186.629404 165.272162 
L 190.695719 165.272162 
L 191.10235 165.426281 
L 191.508982 165.426281 
L 191.915613 165.789795 
L 192.322244 168.030183 
L 195.575296 168.030183 
L 195.981927 168.619761 
L 197.608453 168.619761 
L 198.015085 171.478366 
L 198.828348 171.478366 
L 199.234979 171.614758 
L 201.268136 171.614758 
L 201.674768 172.355684 
L 202.081399 172.440687 
L 202.488031 174.651935 
L 206.147714 174.651935 
L 206.554345 177.033526 
L 212.653817 177.033526 
L 213.060448 179.078132 
L 214.686974 179.078132 
L 215.093605 180.043013 
L 215.906868 180.043013 
L 216.3135 180.553656 
L 220.786446 180.553656 
L 221.193077 181.426496 
L 222.00634 181.426496 
L 222.412971 181.543704 
L 222.819603 185.357444 
L 224.039497 185.357444 
L 224.446129 185.899876 
L 226.072654 185.899876 
L 226.479286 186.315838 
L 227.292549 186.315838 
L 227.69918 187.181065 
L 228.105812 187.743802 
L 231.358863 187.743802 
L 231.765495 189.426176 
L 236.645072 189.426176 
L 237.051703 192.934368 
L 239.084861 192.934368 
L 239.491492 193.406541 
L 241.118018 193.406541 
L 241.524649 193.528742 
L 241.931281 193.892719 
L 245.590964 193.892719 
L 245.997595 195.634421 
L 250.06391 195.634421 
L 250.470541 196.240879 
L 255.75675 196.296176 
L 256.163381 196.841963 
L 262.262853 196.841963 
L 262.669484 197.537734 
L 263.482747 197.537734 
L 263.889379 197.822942 
L 266.329167 197.822942 
L 266.735799 198.466609 
L 268.362325 198.466609 
L 268.768956 199.566385 
L 270.802113 199.566385 
L 271.208745 201.109239 
L 277.714848 201.109239 
L 278.121479 202.621982 
L 278.528111 202.621982 
L 278.934742 203.197328 
L 279.341374 204.056591 
L 282.187794 204.056591 
L 282.594425 204.209844 
L 283.001057 204.497423 
L 287.067371 204.497423 
L 287.474003 205.133739 
L 290.727054 205.133739 
L 291.133686 205.296005 
L 291.540317 205.296005 
L 291.946948 205.625555 
L 292.35358 205.625555 
L 292.760211 207.013813 
L 301.299472 207.013813 
L 301.706103 208.698452 
L 302.925997 208.698452 
L 303.332629 209.513651 
L 305.365786 209.513651 
L 305.772418 210.590865 
L 315.124941 210.637563 
L 315.531572 212.229332 
L 322.850938 212.229332 
L 323.25757 213.646297 
L 325.290727 213.646297 
L 325.697358 213.877062 
L 330.576936 213.877062 
L 330.983567 214.191425 
L 332.610093 214.191425 
L 333.016724 215.328691 
L 335.863144 215.328691 
L 336.269776 215.660461 
L 339.522827 215.761082 
L 339.929459 216.059328 
L 345.622299 216.059328 
L 346.028931 216.303068 
L 346.435562 217.608197 
L 351.721771 217.608197 
L 352.128402 217.996561 
L 359.8544 217.996561 
L 360.261031 218.836807 
L 360.667663 218.836807 
L 361.074294 219.144577 
L 364.327346 219.144577 
L 364.733977 219.754294 
L 367.987029 219.754294 
L 368.39366 220.594539 
L 369.206923 220.594539 
L 369.613554 221.714994 
L 371.24008 221.714994 
L 371.646712 222.543126 
L 374.493132 222.543126 
L 374.899763 223.255397 
L 378.966078 223.255397 
L 379.372709 223.657991 
L 384.658918 223.657991 
L 385.065549 224.682095 
L 385.472181 224.682095 
L 385.878812 226.990493 
L 393.60481 226.990493 
L 394.011441 227.469408 
L 400.110913 227.469408 
L 400.517544 228.075476 
L 402.957333 228.075545 
L 403.363964 228.656582 
L 405.397122 228.681612 
L 408.650173 228.681612 
L 409.056805 229.262718 
L 414.749645 229.262718 
L 415.156276 229.58169 
L 415.969539 229.58169 
L 416.376171 231.226143 
L 419.629222 231.226143 
L 420.035854 231.545115 
L 425.322062 231.545115 
L 425.728694 232.08863 
L 428.981745 232.08863 
L 429.388377 232.946234 
L 434.267954 232.946234 
L 434.674586 233.977386 
L 439.554163 233.977386 
L 439.960794 234.487194 
L 452.973001 234.573226 
L 453.379632 236.829397 
L 463.95205 236.829397 
L 464.358681 238.173148 
L 465.171944 238.173148 
L 465.578575 238.803586 
L 465.985207 238.93218 
L 472.084678 238.93218 
L 472.49131 239.34565 
L 472.897941 241.064987 
L 475.33773 241.064987 
L 475.744361 241.447015 
L 478.18415 241.447015 
L 478.590782 241.611051 
L 485.910148 241.686773 
L 486.72341 241.799048 
L 492.416251 241.799048 
L 492.822882 242.272171 
L 494.856039 242.272171 
L 495.262671 242.991216 
L 498.109091 242.991216 
L 498.109091 242.991216 
" clip-path="url(#p77dcbffa61)" style="fill: none; stroke: #0000ff; stroke-linecap: square"/>
   </g>
   <g id="patch_3">
    <path d="M 72 256.32 
L 72 34.56 
" style="fill: none; stroke: #000000; stroke-width: 0.8; stroke-linejoin: miter; stroke-linecap: square"/>
   </g>
   <g id="patch_4">
    <path d="M 518.4 256.32 
L 518.4 34.56 
" style="fill: none; stroke: #000000; stroke-width: 0.8; stroke-linejoin: miter; stroke-linecap: square"/>
   </g>
   <g id="patch_5">
    <path d="M 72 256.32 
L 518.4 256.32 
" style="fill: none; stroke: #000000; stroke-width: 0.8; stroke-linejoin: miter; stroke-linecap: square"/>
   </g>
   <g id="patch_6">
    <path d="M 72 34.56 
L 518.4 34.56 
" style="fill: none; stroke: #000000; stroke-width: 0.8; stroke-linejoin: miter; stroke-linecap: square"/>
   </g>
  </g>
  <g id="axes_2">
   <g id="matplotlib.axis_3">
    <g id="xtick_7">
     <g id="line2d_22">
      <defs>
       <path id="m46f343f2ed" d="M 0 0 
L 0 -3.5 
" style="stroke: #000000; stroke-width: 0.8"/>
      </defs>
      <g>
       <use xlink:href="#m46f343f2ed" x="92.290909" y="34.56" style="stroke: #000000; stroke-width: 0.8"/>
      </g>
     </g>
     <g id="text_16">
      <!-- 0 -->
      <g transform="translate(89.790909 25.420937) scale(0.1 -0.1)">
       <use xlink:href="#TimesNewRomanPSMT-30"/>
      </g>
     </g>
    </g>
    <g id="xtick_8">
     <g id="line2d_23">
      <g>
       <use xlink:href="#m46f343f2ed" x="173.454545" y="34.56" style="stroke: #000000; stroke-width: 0.8"/>
      </g>
     </g>
     <g id="text_17">
      <!-- 20 -->
      <g transform="translate(168.454545 25.420937) scale(0.1 -0.1)">
       <use xlink:href="#TimesNewRomanPSMT-32"/>
       <use xlink:href="#TimesNewRomanPSMT-30" x="50"/>
      </g>
     </g>
    </g>
    <g id="xtick_9">
     <g id="line2d_24">
      <g>
       <use xlink:href="#m46f343f2ed" x="254.618182" y="34.56" style="stroke: #000000; stroke-width: 0.8"/>
      </g>
     </g>
     <g id="text_18">
      <!-- 40 -->
      <g transform="translate(249.618182 25.420937) scale(0.1 -0.1)">
       <use xlink:href="#TimesNewRomanPSMT-34"/>
       <use xlink:href="#TimesNewRomanPSMT-30" x="50"/>
      </g>
     </g>
    </g>
    <g id="xtick_10">
     <g id="line2d_25">
      <g>
       <use xlink:href="#m46f343f2ed" x="335.781818" y="34.56" style="stroke: #000000; stroke-width: 0.8"/>
      </g>
     </g>
     <g id="text_19">
      <!-- 60 -->
      <g transform="translate(330.781818 25.420937) scale(0.1 -0.1)">
       <use xlink:href="#TimesNewRomanPSMT-36"/>
       <use xlink:href="#TimesNewRomanPSMT-30" x="50"/>
      </g>
     </g>
    </g>
    <g id="xtick_11">
     <g id="line2d_26">
      <g>
       <use xlink:href="#m46f343f2ed" x="416.945455" y="34.56" style="stroke: #000000; stroke-width: 0.8"/>
      </g>
     </g>
     <g id="text_20">
      <!-- 80 -->
      <g transform="translate(411.945455 25.420937) scale(0.1 -0.1)">
       <use xlink:href="#TimesNewRomanPSMT-38"/>
       <use xlink:href="#TimesNewRomanPSMT-30" x="50"/>
      </g>
     </g>
    </g>
    <g id="xtick_12">
     <g id="line2d_27">
      <g>
       <use xlink:href="#m46f343f2ed" x="498.109091" y="34.56" style="stroke: #000000; stroke-width: 0.8"/>
      </g>
     </g>
     <g id="text_21">
      <!-- 100 -->
      <g transform="translate(490.609091 25.420937) scale(0.1 -0.1)">
       <use xlink:href="#TimesNewRomanPSMT-31"/>
       <use xlink:href="#TimesNewRomanPSMT-30" x="50"/>
       <use xlink:href="#TimesNewRomanPSMT-30" x="100"/>
      </g>
     </g>
    </g>
    <g id="text_22">
     <!-- generation for NES and CFGA-NES -->
     <g transform="translate(222.15625 14.477188) scale(0.1 -0.1)">
      <defs>
       <path id="TimesNewRomanPSMT-4e" d="M -84 4238 
L 1066 4238 
L 3656 1059 
L 3656 3503 
Q 3656 3894 3569 3991 
Q 3453 4122 3203 4122 
L 3056 4122 
L 3056 4238 
L 4531 4238 
L 4531 4122 
L 4381 4122 
Q 4113 4122 4000 3959 
Q 3931 3859 3931 3503 
L 3931 -69 
L 3819 -69 
L 1025 3344 
L 1025 734 
Q 1025 344 1109 247 
Q 1228 116 1475 116 
L 1625 116 
L 1625 0 
L 150 0 
L 150 116 
L 297 116 
Q 569 116 681 278 
Q 750 378 750 734 
L 750 3681 
Q 566 3897 470 3965 
Q 375 4034 191 4094 
Q 100 4122 -84 4122 
L -84 4238 
z
" transform="scale(0.015625)"/>
       <path id="TimesNewRomanPSMT-45" d="M 1338 4006 
L 1338 2331 
L 2269 2331 
Q 2631 2331 2753 2441 
Q 2916 2584 2934 2947 
L 3050 2947 
L 3050 1472 
L 2934 1472 
Q 2891 1781 2847 1869 
Q 2791 1978 2662 2040 
Q 2534 2103 2269 2103 
L 1338 2103 
L 1338 706 
Q 1338 425 1363 364 
Q 1388 303 1450 267 
Q 1513 231 1688 231 
L 2406 231 
Q 2766 231 2928 281 
Q 3091 331 3241 478 
Q 3434 672 3638 1063 
L 3763 1063 
L 3397 0 
L 131 0 
L 131 116 
L 281 116 
Q 431 116 566 188 
Q 666 238 702 338 
Q 738 438 738 747 
L 738 3500 
Q 738 3903 656 3997 
Q 544 4122 281 4122 
L 131 4122 
L 131 4238 
L 3397 4238 
L 3444 3309 
L 3322 3309 
Q 3256 3644 3176 3769 
Q 3097 3894 2941 3959 
Q 2816 4006 2500 4006 
L 1338 4006 
z
" transform="scale(0.015625)"/>
       <path id="TimesNewRomanPSMT-53" d="M 2934 4334 
L 2934 2869 
L 2819 2869 
Q 2763 3291 2617 3541 
Q 2472 3791 2203 3937 
Q 1934 4084 1647 4084 
Q 1322 4084 1109 3886 
Q 897 3688 897 3434 
Q 897 3241 1031 3081 
Q 1225 2847 1953 2456 
Q 2547 2138 2764 1967 
Q 2981 1797 3098 1565 
Q 3216 1334 3216 1081 
Q 3216 600 2842 251 
Q 2469 -97 1881 -97 
Q 1697 -97 1534 -69 
Q 1438 -53 1133 45 
Q 828 144 747 144 
Q 669 144 623 97 
Q 578 50 556 -97 
L 441 -97 
L 441 1356 
L 556 1356 
Q 638 900 775 673 
Q 913 447 1195 297 
Q 1478 147 1816 147 
Q 2206 147 2432 353 
Q 2659 559 2659 841 
Q 2659 997 2573 1156 
Q 2488 1316 2306 1453 
Q 2184 1547 1640 1851 
Q 1097 2156 867 2337 
Q 638 2519 519 2737 
Q 400 2956 400 3219 
Q 400 3675 750 4004 
Q 1100 4334 1641 4334 
Q 1978 4334 2356 4169 
Q 2531 4091 2603 4091 
Q 2684 4091 2736 4139 
Q 2788 4188 2819 4334 
L 2934 4334 
z
" transform="scale(0.015625)"/>
       <path id="TimesNewRomanPSMT-64" d="M 2222 322 
Q 2013 103 1813 7 
Q 1613 -88 1381 -88 
Q 913 -88 563 304 
Q 213 697 213 1313 
Q 213 1928 600 2439 
Q 988 2950 1597 2950 
Q 1975 2950 2222 2709 
L 2222 3238 
Q 2222 3728 2198 3840 
Q 2175 3953 2125 3993 
Q 2075 4034 2000 4034 
Q 1919 4034 1784 3984 
L 1744 4094 
L 2597 4444 
L 2738 4444 
L 2738 1134 
Q 2738 631 2761 520 
Q 2784 409 2836 365 
Q 2888 322 2956 322 
Q 3041 322 3181 375 
L 3216 266 
L 2366 -88 
L 2222 -88 
L 2222 322 
z
M 2222 541 
L 2222 2016 
Q 2203 2228 2109 2403 
Q 2016 2578 1861 2667 
Q 1706 2756 1559 2756 
Q 1284 2756 1069 2509 
Q 784 2184 784 1559 
Q 784 928 1059 592 
Q 1334 256 1672 256 
Q 1956 256 2222 541 
z
" transform="scale(0.015625)"/>
       <path id="TimesNewRomanPSMT-2d" d="M 259 1672 
L 1875 1672 
L 1875 1200 
L 259 1200 
L 259 1672 
z
" transform="scale(0.015625)"/>
      </defs>
      <use xlink:href="#TimesNewRomanPSMT-67"/>
      <use xlink:href="#TimesNewRomanPSMT-65" x="50"/>
      <use xlink:href="#TimesNewRomanPSMT-6e" x="94.384766"/>
      <use xlink:href="#TimesNewRomanPSMT-65" x="144.384766"/>
      <use xlink:href="#TimesNewRomanPSMT-72" x="188.769531"/>
      <use xlink:href="#TimesNewRomanPSMT-61" x="222.070312"/>
      <use xlink:href="#TimesNewRomanPSMT-74" x="266.455078"/>
      <use xlink:href="#TimesNewRomanPSMT-69" x="294.238281"/>
      <use xlink:href="#TimesNewRomanPSMT-6f" x="322.021484"/>
      <use xlink:href="#TimesNewRomanPSMT-6e" x="372.021484"/>
      <use xlink:href="#TimesNewRomanPSMT-20" x="422.021484"/>
      <use xlink:href="#TimesNewRomanPSMT-66" x="447.021484"/>
      <use xlink:href="#TimesNewRomanPSMT-6f" x="480.322266"/>
      <use xlink:href="#TimesNewRomanPSMT-72" x="530.322266"/>
      <use xlink:href="#TimesNewRomanPSMT-20" x="563.623047"/>
      <use xlink:href="#TimesNewRomanPSMT-4e" x="588.623047"/>
      <use xlink:href="#TimesNewRomanPSMT-45" x="660.839844"/>
      <use xlink:href="#TimesNewRomanPSMT-53" x="721.923828"/>
      <use xlink:href="#TimesNewRomanPSMT-20" x="777.539062"/>
      <use xlink:href="#TimesNewRomanPSMT-61" x="802.539062"/>
      <use xlink:href="#TimesNewRomanPSMT-6e" x="846.923828"/>
      <use xlink:href="#TimesNewRomanPSMT-64" x="896.923828"/>
      <use xlink:href="#TimesNewRomanPSMT-20" x="946.923828"/>
      <use xlink:href="#TimesNewRomanPSMT-43" x="971.923828"/>
      <use xlink:href="#TimesNewRomanPSMT-46" x="1038.623047"/>
      <use xlink:href="#TimesNewRomanPSMT-47" x="1094.238281"/>
      <use xlink:href="#TimesNewRomanPSMT-41" x="1166.455078"/>
      <use xlink:href="#TimesNewRomanPSMT-2d" x="1238.671875"/>
      <use xlink:href="#TimesNewRomanPSMT-4e" x="1271.972656"/>
      <use xlink:href="#TimesNewRomanPSMT-45" x="1344.189453"/>
      <use xlink:href="#TimesNewRomanPSMT-53" x="1405.273438"/>
     </g>
    </g>
   </g>
   <g id="line2d_28">
    <path d="M 92.290909 168.739227 
L 96.349091 164.926653 
L 100.407273 161.237066 
L 104.465455 164.962468 
L 108.523636 159.25548 
L 112.581818 162.465412 
L 116.64 162.624425 
L 120.698182 158.300458 
L 124.756364 161.231048 
L 128.814545 168.976875 
L 132.872727 161.387949 
L 136.930909 156.985997 
L 140.989091 162.277021 
L 145.047273 157.719058 
L 149.105455 157.719058 
L 153.163636 157.719058 
L 157.221818 157.719058 
L 161.28 157.719058 
L 165.338182 157.719058 
L 169.396364 157.719058 
L 173.454545 157.719058 
L 177.512727 157.719058 
L 181.570909 157.719058 
L 185.629091 157.719058 
L 189.687273 157.719058 
L 193.745455 157.719058 
L 197.803636 157.719058 
L 201.861818 157.719058 
L 205.92 157.719058 
L 209.978182 157.719058 
L 214.036364 157.719058 
L 218.094545 157.719058 
L 222.152727 157.719058 
L 226.210909 157.719058 
L 230.269091 157.719058 
L 234.327273 157.719058 
L 238.385455 157.719058 
L 242.443636 157.719058 
L 246.501818 157.719058 
L 250.56 157.719058 
L 254.618182 157.719058 
L 258.676364 157.719058 
L 262.734545 157.719058 
L 266.792727 157.719058 
L 270.850909 157.719058 
L 274.909091 157.719058 
L 278.967273 157.719058 
L 283.025455 157.719058 
L 287.083636 157.719058 
L 291.141818 157.719058 
L 295.2 157.719058 
L 299.258182 157.719058 
L 303.316364 157.719058 
L 307.374545 157.719058 
L 311.432727 157.719058 
L 315.490909 157.719058 
L 319.549091 157.719058 
L 323.607273 157.719058 
L 327.665455 157.719058 
L 331.723636 157.719058 
L 335.781818 157.719058 
L 339.84 157.719058 
L 343.898182 157.719058 
L 347.956364 157.719058 
L 352.014545 157.719058 
L 356.072727 157.719058 
L 360.130909 157.719058 
L 364.189091 157.719058 
L 368.247273 157.719058 
L 372.305455 157.719058 
L 376.363636 157.719058 
L 380.421818 157.719058 
L 384.48 157.719058 
L 388.538182 157.719058 
L 392.596364 157.719058 
L 396.654545 157.719058 
L 400.712727 157.719058 
L 404.770909 157.719058 
L 408.829091 157.719058 
L 412.887273 157.719058 
L 416.945455 157.719058 
L 421.003636 157.719058 
L 425.061818 157.719058 
L 429.12 157.719058 
L 433.178182 157.719058 
L 437.236364 157.719058 
L 441.294545 157.719058 
L 445.352727 157.719058 
L 449.410909 157.719058 
L 453.469091 157.719058 
L 457.527273 157.719058 
L 461.585455 157.719058 
L 465.643636 157.719058 
L 469.701818 157.719058 
L 473.76 157.719058 
L 477.818182 157.719058 
L 481.876364 157.719058 
L 485.934545 157.719058 
L 489.992727 157.719058 
L 494.050909 157.719058 
L 498.109091 157.719058 
" clip-path="url(#p77dcbffa61)" style="fill: none; stroke: #ffa500; stroke-linecap: square"/>
   </g>
   <g id="line2d_29">
    <path d="M 92.290909 246.24 
L 96.349091 245.252466 
L 100.407273 245.206193 
L 104.465455 244.189775 
L 108.523636 245.206193 
L 112.581818 244.189775 
L 116.64 245.206193 
L 120.698182 244.189775 
L 124.756364 245.206193 
L 128.814545 244.189775 
L 132.872727 245.206193 
L 136.930909 244.189775 
L 140.989091 245.206193 
L 145.047273 244.189775 
L 149.105455 245.206193 
L 153.163636 244.189775 
L 157.221818 245.206193 
L 161.28 244.189775 
L 165.338182 245.206193 
L 169.396364 244.189775 
L 173.454545 245.206193 
L 177.512727 244.189775 
L 181.570909 245.206193 
L 185.629091 244.189775 
L 189.687273 245.206193 
L 193.745455 244.189775 
L 197.803636 245.206193 
L 201.861818 244.189775 
L 205.92 245.206193 
L 209.978182 244.189775 
L 214.036364 245.206193 
L 218.094545 244.189775 
L 222.152727 245.206193 
L 226.210909 244.189775 
L 230.269091 245.206193 
L 234.327273 244.189775 
L 238.385455 245.206193 
L 242.443636 244.189775 
L 246.501818 245.206193 
L 250.56 244.189775 
L 254.618182 245.206193 
L 258.676364 244.189775 
L 262.734545 245.206193 
L 266.792727 244.189775 
L 270.850909 245.206193 
L 274.909091 244.189775 
L 278.967273 245.206193 
L 283.025455 244.189775 
L 287.083636 245.206193 
L 291.141818 244.189775 
L 295.2 245.206193 
L 299.258182 244.189775 
L 303.316364 245.206193 
L 307.374545 244.189775 
L 311.432727 245.206193 
L 315.490909 244.189775 
L 319.549091 245.206193 
L 323.607273 244.189775 
L 327.665455 245.206193 
L 331.723636 244.189775 
L 335.781818 245.206193 
L 339.84 244.189775 
L 343.898182 245.206193 
L 347.956364 244.189775 
L 352.014545 245.206193 
L 356.072727 244.189775 
L 360.130909 245.206193 
L 364.189091 244.189775 
L 368.247273 245.206193 
L 372.305455 244.189775 
L 376.363636 245.206193 
L 380.421818 244.189775 
L 384.48 245.206193 
L 388.538182 244.189775 
L 392.596364 245.206193 
L 396.654545 244.189775 
L 400.712727 245.206193 
L 404.770909 244.189775 
L 408.829091 245.206193 
L 412.887273 244.189775 
L 416.945455 245.206193 
L 421.003636 244.189775 
L 425.061818 245.206193 
L 429.12 244.189775 
L 433.178182 245.206193 
L 437.236364 244.189775 
L 441.294545 245.206193 
L 445.352727 244.189775 
L 449.410909 245.206193 
L 453.469091 244.189775 
L 457.527273 245.206193 
L 461.585455 244.189775 
L 465.643636 245.206193 
L 469.701818 244.189775 
L 473.76 245.206193 
L 477.818182 244.189775 
L 481.876364 245.206193 
L 485.934545 244.189775 
L 489.992727 245.206193 
L 494.050909 244.189775 
L 498.109091 243.58998 
" clip-path="url(#p77dcbffa61)" style="fill: none; stroke: #008000; stroke-linecap: square"/>
   </g>
   <g id="patch_7">
    <path d="M 72 256.32 
L 72 34.56 
" style="fill: none; stroke: #000000; stroke-width: 0.8; stroke-linejoin: miter; stroke-linecap: square"/>
   </g>
   <g id="patch_8">
    <path d="M 518.4 256.32 
L 518.4 34.56 
" style="fill: none; stroke: #000000; stroke-width: 0.8; stroke-linejoin: miter; stroke-linecap: square"/>
   </g>
   <g id="patch_9">
    <path d="M 72 256.32 
L 518.4 256.32 
" style="fill: none; stroke: #000000; stroke-width: 0.8; stroke-linejoin: miter; stroke-linecap: square"/>
   </g>
   <g id="patch_10">
    <path d="M 72 34.56 
L 518.4 34.56 
" style="fill: none; stroke: #000000; stroke-width: 0.8; stroke-linejoin: miter; stroke-linecap: square"/>
   </g>
  </g>
  <g id="legend_1">
   <g id="patch_11">
    <path d="M 430.504687 84.977188 
L 511.4 84.977188 
Q 513.4 84.977188 513.4 82.977188 
L 513.4 41.56 
Q 513.4 39.56 511.4 39.56 
L 430.504687 39.56 
Q 428.504687 39.56 428.504687 41.56 
L 428.504687 82.977188 
Q 428.504687 84.977188 430.504687 84.977188 
z
" style="fill: #ffffff; opacity: 0.8; stroke: #cccccc; stroke-linejoin: miter"/>
   </g>
   <g id="line2d_30">
    <path d="M 432.504687 47.06 
L 442.504687 47.06 
L 452.504687 47.06 
" style="fill: none; stroke: #0000ff; stroke-linecap: square"/>
   </g>
   <g id="text_23">
    <!-- CFGA -->
    <g transform="translate(460.504687 50.56) scale(0.1 -0.1)">
     <use xlink:href="#TimesNewRomanPSMT-43"/>
     <use xlink:href="#TimesNewRomanPSMT-46" x="66.699219"/>
     <use xlink:href="#TimesNewRomanPSMT-47" x="122.314453"/>
     <use xlink:href="#TimesNewRomanPSMT-41" x="194.53125"/>
    </g>
   </g>
   <g id="line2d_31">
    <path d="M 432.504687 61.199062 
L 442.504687 61.199062 
L 452.504687 61.199062 
" style="fill: none; stroke: #ffa500; stroke-linecap: square"/>
   </g>
   <g id="text_24">
    <!-- NES -->
    <g transform="translate(460.504687 64.699062) scale(0.1 -0.1)">
     <use xlink:href="#TimesNewRomanPSMT-4e"/>
     <use xlink:href="#TimesNewRomanPSMT-45" x="72.216797"/>
     <use xlink:href="#TimesNewRomanPSMT-53" x="133.300781"/>
    </g>
   </g>
   <g id="line2d_32">
    <path d="M 432.504687 75.338125 
L 442.504687 75.338125 
L 452.504687 75.338125 
" style="fill: none; stroke: #008000; stroke-linecap: square"/>
   </g>
   <g id="text_25">
    <!-- CFGA-NES -->
    <g transform="translate(460.504687 78.838125) scale(0.1 -0.1)">
     <use xlink:href="#TimesNewRomanPSMT-43"/>
     <use xlink:href="#TimesNewRomanPSMT-46" x="66.699219"/>
     <use xlink:href="#TimesNewRomanPSMT-47" x="122.314453"/>
     <use xlink:href="#TimesNewRomanPSMT-41" x="194.53125"/>
     <use xlink:href="#TimesNewRomanPSMT-2d" x="266.748047"/>
     <use xlink:href="#TimesNewRomanPSMT-4e" x="300.048828"/>
     <use xlink:href="#TimesNewRomanPSMT-45" x="372.265625"/>
     <use xlink:href="#TimesNewRomanPSMT-53" x="433.349609"/>
    </g>
   </g>
  </g>
 </g>
 <defs>
  <clipPath id="p77dcbffa61">
   <rect x="72" y="34.56" width="446.4" height="221.76"/>
  </clipPath>
 </defs>
</svg>
