<?xml version="1.0" encoding="utf-8" standalone="no"?>
<!DOCTYPE svg PUBLIC "-//W3C//DTD SVG 1.1//EN"
  "http://www.w3.org/Graphics/SVG/1.1/DTD/svg11.dtd">
<svg xmlns:xlink="http://www.w3.org/1999/xlink" width="576pt" height="288pt" viewBox="0 0 576 288" xmlns="http://www.w3.org/2000/svg" version="1.1">
 <metadata>
  <rdf:RDF xmlns:dc="http://purl.org/dc/elements/1.1/" xmlns:cc="http://creativecommons.org/ns#" xmlns:rdf="http://www.w3.org/1999/02/22-rdf-syntax-ns#">
   <cc:Work>
    <dc:type rdf:resource="http://purl.org/dc/dcmitype/StillImage"/>
    <dc:date>2024-04-14T21:54:34.339528</dc:date>
    <dc:format>image/svg+xml</dc:format>
    <dc:creator>
     <cc:Agent>
      <dc:title>Matplotlib v3.7.1, https://matplotlib.org/</dc:title>
     </cc:Agent>
    </dc:creator>
   </cc:Work>
  </rdf:RDF>
 </metadata>
 <defs>
  <style type="text/css">*{stroke-linejoin: round; stroke-linecap: butt}</style>
 </defs>
 <g id="figure_1">
  <g id="patch_1">
   <path d="M 0 288 
L 576 288 
L 576 0 
L 0 0 
z
" style="fill: #ffffff"/>
  </g>
  <g id="axes_1">
   <g id="patch_2">
    <path d="M 40.82 248.2 
L 565.2 248.2 
L 565.2 10.8 
L 40.82 10.8 
z
" style="fill: #ffffff"/>
   </g>
   <g id="matplotlib.axis_1">
    <g id="xtick_1">
     <g id="line2d_1">
      <defs>
       <path id="m8b1c891074" d="M 0 0 
L 0 3.5 
" style="stroke: #000000; stroke-width: 0.8"/>
      </defs>
      <g>
       <use xlink:href="#m8b1c891074" x="64.655455" y="248.2" style="stroke: #000000; stroke-width: 0.8"/>
      </g>
     </g>
     <g id="text_1">
      <!-- 0 -->
      <g transform="translate(62.155455 262.14375) scale(0.1 -0.1)">
       <defs>
        <path id="TimesNewRomanPSMT-30" d="M 231 2094 
Q 231 2819 450 3342 
Q 669 3866 1031 4122 
Q 1313 4325 1613 4325 
Q 2100 4325 2488 3828 
Q 2972 3213 2972 2159 
Q 2972 1422 2759 906 
Q 2547 391 2217 158 
Q 1888 -75 1581 -75 
Q 975 -75 572 641 
Q 231 1244 231 2094 
z
M 844 2016 
Q 844 1141 1059 588 
Q 1238 122 1591 122 
Q 1759 122 1940 273 
Q 2122 425 2216 781 
Q 2359 1319 2359 2297 
Q 2359 3022 2209 3506 
Q 2097 3866 1919 4016 
Q 1791 4119 1609 4119 
Q 1397 4119 1231 3928 
Q 1006 3669 925 3112 
Q 844 2556 844 2016 
z
" transform="scale(0.015625)"/>
       </defs>
       <use xlink:href="#TimesNewRomanPSMT-30"/>
      </g>
     </g>
    </g>
    <g id="xtick_2">
     <g id="line2d_2">
      <g>
       <use xlink:href="#m8b1c891074" x="159.997273" y="248.2" style="stroke: #000000; stroke-width: 0.8"/>
      </g>
     </g>
     <g id="text_2">
      <!-- 20 -->
      <g transform="translate(154.997273 262.14375) scale(0.1 -0.1)">
       <defs>
        <path id="TimesNewRomanPSMT-32" d="M 2934 816 
L 2638 0 
L 138 0 
L 138 116 
Q 1241 1122 1691 1759 
Q 2141 2397 2141 2925 
Q 2141 3328 1894 3587 
Q 1647 3847 1303 3847 
Q 991 3847 742 3664 
Q 494 3481 375 3128 
L 259 3128 
Q 338 3706 661 4015 
Q 984 4325 1469 4325 
Q 1984 4325 2329 3994 
Q 2675 3663 2675 3213 
Q 2675 2891 2525 2569 
Q 2294 2063 1775 1497 
Q 997 647 803 472 
L 1909 472 
Q 2247 472 2383 497 
Q 2519 522 2628 598 
Q 2738 675 2819 816 
L 2934 816 
z
" transform="scale(0.015625)"/>
       </defs>
       <use xlink:href="#TimesNewRomanPSMT-32"/>
       <use xlink:href="#TimesNewRomanPSMT-30" x="50"/>
      </g>
     </g>
    </g>
    <g id="xtick_3">
     <g id="line2d_3">
      <g>
       <use xlink:href="#m8b1c891074" x="255.339091" y="248.2" style="stroke: #000000; stroke-width: 0.8"/>
      </g>
     </g>
     <g id="text_3">
      <!-- 40 -->
      <g transform="translate(250.339091 262.14375) scale(0.1 -0.1)">
       <defs>
        <path id="TimesNewRomanPSMT-34" d="M 2978 1563 
L 2978 1119 
L 2409 1119 
L 2409 0 
L 1894 0 
L 1894 1119 
L 100 1119 
L 100 1519 
L 2066 4325 
L 2409 4325 
L 2409 1563 
L 2978 1563 
z
M 1894 1563 
L 1894 3666 
L 406 1563 
L 1894 1563 
z
" transform="scale(0.015625)"/>
       </defs>
       <use xlink:href="#TimesNewRomanPSMT-34"/>
       <use xlink:href="#TimesNewRomanPSMT-30" x="50"/>
      </g>
     </g>
    </g>
    <g id="xtick_4">
     <g id="line2d_4">
      <g>
       <use xlink:href="#m8b1c891074" x="350.680909" y="248.2" style="stroke: #000000; stroke-width: 0.8"/>
      </g>
     </g>
     <g id="text_4">
      <!-- 60 -->
      <g transform="translate(345.680909 262.14375) scale(0.1 -0.1)">
       <defs>
        <path id="TimesNewRomanPSMT-36" d="M 2869 4325 
L 2869 4209 
Q 2456 4169 2195 4045 
Q 1934 3922 1679 3669 
Q 1425 3416 1258 3105 
Q 1091 2794 978 2366 
Q 1428 2675 1881 2675 
Q 2316 2675 2634 2325 
Q 2953 1975 2953 1425 
Q 2953 894 2631 456 
Q 2244 -75 1606 -75 
Q 1172 -75 869 213 
Q 275 772 275 1663 
Q 275 2231 503 2743 
Q 731 3256 1154 3653 
Q 1578 4050 1965 4187 
Q 2353 4325 2688 4325 
L 2869 4325 
z
M 925 2138 
Q 869 1716 869 1456 
Q 869 1156 980 804 
Q 1091 453 1309 247 
Q 1469 100 1697 100 
Q 1969 100 2183 356 
Q 2397 613 2397 1088 
Q 2397 1622 2184 2012 
Q 1972 2403 1581 2403 
Q 1463 2403 1327 2353 
Q 1191 2303 925 2138 
z
" transform="scale(0.015625)"/>
       </defs>
       <use xlink:href="#TimesNewRomanPSMT-36"/>
       <use xlink:href="#TimesNewRomanPSMT-30" x="50"/>
      </g>
     </g>
    </g>
    <g id="xtick_5">
     <g id="line2d_5">
      <g>
       <use xlink:href="#m8b1c891074" x="446.022727" y="248.2" style="stroke: #000000; stroke-width: 0.8"/>
      </g>
     </g>
     <g id="text_5">
      <!-- 80 -->
      <g transform="translate(441.022727 262.14375) scale(0.1 -0.1)">
       <defs>
        <path id="TimesNewRomanPSMT-38" d="M 1228 2134 
Q 725 2547 579 2797 
Q 434 3047 434 3316 
Q 434 3728 753 4026 
Q 1072 4325 1600 4325 
Q 2113 4325 2425 4047 
Q 2738 3769 2738 3413 
Q 2738 3175 2569 2928 
Q 2400 2681 1866 2347 
Q 2416 1922 2594 1678 
Q 2831 1359 2831 1006 
Q 2831 559 2490 242 
Q 2150 -75 1597 -75 
Q 994 -75 656 303 
Q 388 606 388 966 
Q 388 1247 577 1523 
Q 766 1800 1228 2134 
z
M 1719 2469 
Q 2094 2806 2194 3001 
Q 2294 3197 2294 3444 
Q 2294 3772 2109 3958 
Q 1925 4144 1606 4144 
Q 1288 4144 1088 3959 
Q 888 3775 888 3528 
Q 888 3366 970 3203 
Q 1053 3041 1206 2894 
L 1719 2469 
z
M 1375 2016 
Q 1116 1797 991 1539 
Q 866 1281 866 981 
Q 866 578 1086 336 
Q 1306 94 1647 94 
Q 1984 94 2187 284 
Q 2391 475 2391 747 
Q 2391 972 2272 1150 
Q 2050 1481 1375 2016 
z
" transform="scale(0.015625)"/>
       </defs>
       <use xlink:href="#TimesNewRomanPSMT-38"/>
       <use xlink:href="#TimesNewRomanPSMT-30" x="50"/>
      </g>
     </g>
    </g>
    <g id="xtick_6">
     <g id="line2d_6">
      <g>
       <use xlink:href="#m8b1c891074" x="541.364545" y="248.2" style="stroke: #000000; stroke-width: 0.8"/>
      </g>
     </g>
     <g id="text_6">
      <!-- 100 -->
      <g transform="translate(533.864545 262.14375) scale(0.1 -0.1)">
       <defs>
        <path id="TimesNewRomanPSMT-31" d="M 750 3822 
L 1781 4325 
L 1884 4325 
L 1884 747 
Q 1884 391 1914 303 
Q 1944 216 2037 169 
Q 2131 122 2419 116 
L 2419 0 
L 825 0 
L 825 116 
Q 1125 122 1212 167 
Q 1300 213 1334 289 
Q 1369 366 1369 747 
L 1369 3034 
Q 1369 3497 1338 3628 
Q 1316 3728 1258 3775 
Q 1200 3822 1119 3822 
Q 1003 3822 797 3725 
L 750 3822 
z
" transform="scale(0.015625)"/>
       </defs>
       <use xlink:href="#TimesNewRomanPSMT-31"/>
       <use xlink:href="#TimesNewRomanPSMT-30" x="50"/>
       <use xlink:href="#TimesNewRomanPSMT-30" x="100"/>
      </g>
     </g>
    </g>
    <g id="text_7">
     <!-- generation -->
     <g transform="translate(281.908437 275.226562) scale(0.1 -0.1)">
      <defs>
       <path id="TimesNewRomanPSMT-67" d="M 966 1044 
Q 703 1172 562 1401 
Q 422 1631 422 1909 
Q 422 2334 742 2640 
Q 1063 2947 1563 2947 
Q 1972 2947 2272 2747 
L 2878 2747 
Q 3013 2747 3034 2739 
Q 3056 2731 3066 2713 
Q 3084 2684 3084 2613 
Q 3084 2531 3069 2500 
Q 3059 2484 3036 2475 
Q 3013 2466 2878 2466 
L 2506 2466 
Q 2681 2241 2681 1891 
Q 2681 1491 2375 1206 
Q 2069 922 1553 922 
Q 1341 922 1119 984 
Q 981 866 932 777 
Q 884 688 884 625 
Q 884 572 936 522 
Q 988 472 1138 450 
Q 1225 438 1575 428 
Q 2219 413 2409 384 
Q 2700 344 2873 169 
Q 3047 -6 3047 -263 
Q 3047 -616 2716 -925 
Q 2228 -1381 1444 -1381 
Q 841 -1381 425 -1109 
Q 191 -953 191 -784 
Q 191 -709 225 -634 
Q 278 -519 444 -313 
Q 466 -284 763 25 
Q 600 122 533 198 
Q 466 275 466 372 
Q 466 481 555 628 
Q 644 775 966 1044 
z
M 1509 2797 
Q 1278 2797 1122 2612 
Q 966 2428 966 2047 
Q 966 1553 1178 1281 
Q 1341 1075 1591 1075 
Q 1828 1075 1981 1253 
Q 2134 1431 2134 1813 
Q 2134 2309 1919 2591 
Q 1759 2797 1509 2797 
z
M 934 0 
Q 788 -159 713 -296 
Q 638 -434 638 -550 
Q 638 -700 819 -813 
Q 1131 -1006 1722 -1006 
Q 2284 -1006 2551 -807 
Q 2819 -609 2819 -384 
Q 2819 -222 2659 -153 
Q 2497 -84 2016 -72 
Q 1313 -53 934 0 
z
" transform="scale(0.015625)"/>
       <path id="TimesNewRomanPSMT-65" d="M 681 1784 
Q 678 1147 991 784 
Q 1303 422 1725 422 
Q 2006 422 2214 576 
Q 2422 731 2563 1106 
L 2659 1044 
Q 2594 616 2278 264 
Q 1963 -88 1488 -88 
Q 972 -88 605 314 
Q 238 716 238 1394 
Q 238 2128 614 2539 
Q 991 2950 1559 2950 
Q 2041 2950 2350 2633 
Q 2659 2316 2659 1784 
L 681 1784 
z
M 681 1966 
L 2006 1966 
Q 1991 2241 1941 2353 
Q 1863 2528 1708 2628 
Q 1553 2728 1384 2728 
Q 1125 2728 920 2526 
Q 716 2325 681 1966 
z
" transform="scale(0.015625)"/>
       <path id="TimesNewRomanPSMT-6e" d="M 1034 2341 
Q 1538 2947 1994 2947 
Q 2228 2947 2397 2830 
Q 2566 2713 2666 2444 
Q 2734 2256 2734 1869 
L 2734 647 
Q 2734 375 2778 278 
Q 2813 200 2889 156 
Q 2966 113 3172 113 
L 3172 0 
L 1756 0 
L 1756 113 
L 1816 113 
Q 2016 113 2095 173 
Q 2175 234 2206 353 
Q 2219 400 2219 647 
L 2219 1819 
Q 2219 2209 2117 2386 
Q 2016 2563 1775 2563 
Q 1403 2563 1034 2156 
L 1034 647 
Q 1034 356 1069 288 
Q 1113 197 1189 155 
Q 1266 113 1500 113 
L 1500 0 
L 84 0 
L 84 113 
L 147 113 
Q 366 113 442 223 
Q 519 334 519 647 
L 519 1709 
Q 519 2225 495 2337 
Q 472 2450 423 2490 
Q 375 2531 294 2531 
Q 206 2531 84 2484 
L 38 2597 
L 900 2947 
L 1034 2947 
L 1034 2341 
z
" transform="scale(0.015625)"/>
       <path id="TimesNewRomanPSMT-72" d="M 1038 2947 
L 1038 2303 
Q 1397 2947 1775 2947 
Q 1947 2947 2059 2842 
Q 2172 2738 2172 2600 
Q 2172 2478 2090 2393 
Q 2009 2309 1897 2309 
Q 1788 2309 1652 2417 
Q 1516 2525 1450 2525 
Q 1394 2525 1328 2463 
Q 1188 2334 1038 2041 
L 1038 669 
Q 1038 431 1097 309 
Q 1138 225 1241 169 
Q 1344 113 1538 113 
L 1538 0 
L 72 0 
L 72 113 
Q 291 113 397 181 
Q 475 231 506 341 
Q 522 394 522 644 
L 522 1753 
Q 522 2253 501 2348 
Q 481 2444 426 2487 
Q 372 2531 291 2531 
Q 194 2531 72 2484 
L 41 2597 
L 906 2947 
L 1038 2947 
z
" transform="scale(0.015625)"/>
       <path id="TimesNewRomanPSMT-61" d="M 1822 413 
Q 1381 72 1269 19 
Q 1100 -59 909 -59 
Q 613 -59 420 144 
Q 228 347 228 678 
Q 228 888 322 1041 
Q 450 1253 767 1440 
Q 1084 1628 1822 1897 
L 1822 2009 
Q 1822 2438 1686 2597 
Q 1550 2756 1291 2756 
Q 1094 2756 978 2650 
Q 859 2544 859 2406 
L 866 2225 
Q 866 2081 792 2003 
Q 719 1925 600 1925 
Q 484 1925 411 2006 
Q 338 2088 338 2228 
Q 338 2497 613 2722 
Q 888 2947 1384 2947 
Q 1766 2947 2009 2819 
Q 2194 2722 2281 2516 
Q 2338 2381 2338 1966 
L 2338 994 
Q 2338 584 2353 492 
Q 2369 400 2405 369 
Q 2441 338 2488 338 
Q 2538 338 2575 359 
Q 2641 400 2828 588 
L 2828 413 
Q 2478 -56 2159 -56 
Q 2006 -56 1915 50 
Q 1825 156 1822 413 
z
M 1822 616 
L 1822 1706 
Q 1350 1519 1213 1441 
Q 966 1303 859 1153 
Q 753 1003 753 825 
Q 753 600 887 451 
Q 1022 303 1197 303 
Q 1434 303 1822 616 
z
" transform="scale(0.015625)"/>
       <path id="TimesNewRomanPSMT-74" d="M 1031 3803 
L 1031 2863 
L 1700 2863 
L 1700 2644 
L 1031 2644 
L 1031 788 
Q 1031 509 1111 412 
Q 1191 316 1316 316 
Q 1419 316 1516 380 
Q 1613 444 1666 569 
L 1788 569 
Q 1678 263 1478 108 
Q 1278 -47 1066 -47 
Q 922 -47 784 33 
Q 647 113 581 261 
Q 516 409 516 719 
L 516 2644 
L 63 2644 
L 63 2747 
Q 234 2816 414 2980 
Q 594 3144 734 3369 
Q 806 3488 934 3803 
L 1031 3803 
z
" transform="scale(0.015625)"/>
       <path id="TimesNewRomanPSMT-69" d="M 928 4444 
Q 1059 4444 1151 4351 
Q 1244 4259 1244 4128 
Q 1244 3997 1151 3903 
Q 1059 3809 928 3809 
Q 797 3809 703 3903 
Q 609 3997 609 4128 
Q 609 4259 701 4351 
Q 794 4444 928 4444 
z
M 1188 2947 
L 1188 647 
Q 1188 378 1227 289 
Q 1266 200 1342 156 
Q 1419 113 1622 113 
L 1622 0 
L 231 0 
L 231 113 
Q 441 113 512 153 
Q 584 194 626 287 
Q 669 381 669 647 
L 669 1750 
Q 669 2216 641 2353 
Q 619 2453 572 2492 
Q 525 2531 444 2531 
Q 356 2531 231 2484 
L 188 2597 
L 1050 2947 
L 1188 2947 
z
" transform="scale(0.015625)"/>
       <path id="TimesNewRomanPSMT-6f" d="M 1600 2947 
Q 2250 2947 2644 2453 
Q 2978 2031 2978 1484 
Q 2978 1100 2793 706 
Q 2609 313 2286 112 
Q 1963 -88 1566 -88 
Q 919 -88 538 428 
Q 216 863 216 1403 
Q 216 1797 411 2186 
Q 606 2575 925 2761 
Q 1244 2947 1600 2947 
z
M 1503 2744 
Q 1338 2744 1170 2645 
Q 1003 2547 900 2300 
Q 797 2053 797 1666 
Q 797 1041 1045 587 
Q 1294 134 1700 134 
Q 2003 134 2200 384 
Q 2397 634 2397 1244 
Q 2397 2006 2069 2444 
Q 1847 2744 1503 2744 
z
" transform="scale(0.015625)"/>
      </defs>
      <use xlink:href="#TimesNewRomanPSMT-67"/>
      <use xlink:href="#TimesNewRomanPSMT-65" x="50"/>
      <use xlink:href="#TimesNewRomanPSMT-6e" x="94.384766"/>
      <use xlink:href="#TimesNewRomanPSMT-65" x="144.384766"/>
      <use xlink:href="#TimesNewRomanPSMT-72" x="188.769531"/>
      <use xlink:href="#TimesNewRomanPSMT-61" x="222.070312"/>
      <use xlink:href="#TimesNewRomanPSMT-74" x="266.455078"/>
      <use xlink:href="#TimesNewRomanPSMT-69" x="294.238281"/>
      <use xlink:href="#TimesNewRomanPSMT-6f" x="322.021484"/>
      <use xlink:href="#TimesNewRomanPSMT-6e" x="372.021484"/>
     </g>
    </g>
   </g>
   <g id="matplotlib.axis_2">
    <g id="ytick_1">
     <g id="line2d_7">
      <path d="M 40.82 248.2 
L 565.2 248.2 
" clip-path="url(#pe40062242b)" style="fill: none; stroke: #b0b0b0; stroke-width: 0.8; stroke-linecap: square"/>
     </g>
     <g id="line2d_8">
      <defs>
       <path id="m755027da1f" d="M 0 0 
L -3.5 0 
" style="stroke: #000000; stroke-width: 0.8"/>
      </defs>
      <g>
       <use xlink:href="#m755027da1f" x="40.82" y="248.2" style="stroke: #000000; stroke-width: 0.8"/>
      </g>
     </g>
     <g id="text_8">
      <!-- 10 -->
      <g transform="translate(23.82 251.671875) scale(0.1 -0.1)">
       <use xlink:href="#TimesNewRomanPSMT-31"/>
       <use xlink:href="#TimesNewRomanPSMT-30" x="50"/>
      </g>
     </g>
    </g>
    <g id="ytick_2">
     <g id="line2d_9">
      <path d="M 40.82 208.633333 
L 565.2 208.633333 
" clip-path="url(#pe40062242b)" style="fill: none; stroke: #b0b0b0; stroke-width: 0.8; stroke-linecap: square"/>
     </g>
     <g id="line2d_10">
      <g>
       <use xlink:href="#m755027da1f" x="40.82" y="208.633333" style="stroke: #000000; stroke-width: 0.8"/>
      </g>
     </g>
     <g id="text_9">
      <!-- 15 -->
      <g transform="translate(23.82 212.105208) scale(0.1 -0.1)">
       <defs>
        <path id="TimesNewRomanPSMT-35" d="M 2778 4238 
L 2534 3706 
L 1259 3706 
L 981 3138 
Q 1809 3016 2294 2522 
Q 2709 2097 2709 1522 
Q 2709 1188 2573 903 
Q 2438 619 2231 419 
Q 2025 219 1772 97 
Q 1413 -75 1034 -75 
Q 653 -75 479 54 
Q 306 184 306 341 
Q 306 428 378 495 
Q 450 563 559 563 
Q 641 563 702 538 
Q 763 513 909 409 
Q 1144 247 1384 247 
Q 1750 247 2026 523 
Q 2303 800 2303 1197 
Q 2303 1581 2056 1914 
Q 1809 2247 1375 2428 
Q 1034 2569 447 2591 
L 1259 4238 
L 2778 4238 
z
" transform="scale(0.015625)"/>
       </defs>
       <use xlink:href="#TimesNewRomanPSMT-31"/>
       <use xlink:href="#TimesNewRomanPSMT-35" x="50"/>
      </g>
     </g>
    </g>
    <g id="ytick_3">
     <g id="line2d_11">
      <path d="M 40.82 169.066667 
L 565.2 169.066667 
" clip-path="url(#pe40062242b)" style="fill: none; stroke: #b0b0b0; stroke-width: 0.8; stroke-linecap: square"/>
     </g>
     <g id="line2d_12">
      <g>
       <use xlink:href="#m755027da1f" x="40.82" y="169.066667" style="stroke: #000000; stroke-width: 0.8"/>
      </g>
     </g>
     <g id="text_10">
      <!-- 20 -->
      <g transform="translate(23.82 172.538542) scale(0.1 -0.1)">
       <use xlink:href="#TimesNewRomanPSMT-32"/>
       <use xlink:href="#TimesNewRomanPSMT-30" x="50"/>
      </g>
     </g>
    </g>
    <g id="ytick_4">
     <g id="line2d_13">
      <path d="M 40.82 129.5 
L 565.2 129.5 
" clip-path="url(#pe40062242b)" style="fill: none; stroke: #b0b0b0; stroke-width: 0.8; stroke-linecap: square"/>
     </g>
     <g id="line2d_14">
      <g>
       <use xlink:href="#m755027da1f" x="40.82" y="129.5" style="stroke: #000000; stroke-width: 0.8"/>
      </g>
     </g>
     <g id="text_11">
      <!-- 25 -->
      <g transform="translate(23.82 132.971875) scale(0.1 -0.1)">
       <use xlink:href="#TimesNewRomanPSMT-32"/>
       <use xlink:href="#TimesNewRomanPSMT-35" x="50"/>
      </g>
     </g>
    </g>
    <g id="ytick_5">
     <g id="line2d_15">
      <path d="M 40.82 89.933333 
L 565.2 89.933333 
" clip-path="url(#pe40062242b)" style="fill: none; stroke: #b0b0b0; stroke-width: 0.8; stroke-linecap: square"/>
     </g>
     <g id="line2d_16">
      <g>
       <use xlink:href="#m755027da1f" x="40.82" y="89.933333" style="stroke: #000000; stroke-width: 0.8"/>
      </g>
     </g>
     <g id="text_12">
      <!-- 30 -->
      <g transform="translate(23.82 93.405208) scale(0.1 -0.1)">
       <defs>
        <path id="TimesNewRomanPSMT-33" d="M 325 3431 
Q 506 3859 782 4092 
Q 1059 4325 1472 4325 
Q 1981 4325 2253 3994 
Q 2459 3747 2459 3466 
Q 2459 3003 1878 2509 
Q 2269 2356 2469 2072 
Q 2669 1788 2669 1403 
Q 2669 853 2319 450 
Q 1863 -75 997 -75 
Q 569 -75 414 31 
Q 259 138 259 259 
Q 259 350 332 419 
Q 406 488 509 488 
Q 588 488 669 463 
Q 722 447 909 348 
Q 1097 250 1169 231 
Q 1284 197 1416 197 
Q 1734 197 1970 444 
Q 2206 691 2206 1028 
Q 2206 1275 2097 1509 
Q 2016 1684 1919 1775 
Q 1784 1900 1550 2001 
Q 1316 2103 1072 2103 
L 972 2103 
L 972 2197 
Q 1219 2228 1467 2375 
Q 1716 2522 1828 2728 
Q 1941 2934 1941 3181 
Q 1941 3503 1739 3701 
Q 1538 3900 1238 3900 
Q 753 3900 428 3381 
L 325 3431 
z
" transform="scale(0.015625)"/>
       </defs>
       <use xlink:href="#TimesNewRomanPSMT-33"/>
       <use xlink:href="#TimesNewRomanPSMT-30" x="50"/>
      </g>
     </g>
    </g>
    <g id="ytick_6">
     <g id="line2d_17">
      <path d="M 40.82 50.366667 
L 565.2 50.366667 
" clip-path="url(#pe40062242b)" style="fill: none; stroke: #b0b0b0; stroke-width: 0.8; stroke-linecap: square"/>
     </g>
     <g id="line2d_18">
      <g>
       <use xlink:href="#m755027da1f" x="40.82" y="50.366667" style="stroke: #000000; stroke-width: 0.8"/>
      </g>
     </g>
     <g id="text_13">
      <!-- 35 -->
      <g transform="translate(23.82 53.838542) scale(0.1 -0.1)">
       <use xlink:href="#TimesNewRomanPSMT-33"/>
       <use xlink:href="#TimesNewRomanPSMT-35" x="50"/>
      </g>
     </g>
    </g>
    <g id="ytick_7">
     <g id="line2d_19">
      <path d="M 40.82 10.8 
L 565.2 10.8 
" clip-path="url(#pe40062242b)" style="fill: none; stroke: #b0b0b0; stroke-width: 0.8; stroke-linecap: square"/>
     </g>
     <g id="line2d_20">
      <g>
       <use xlink:href="#m755027da1f" x="40.82" y="10.8" style="stroke: #000000; stroke-width: 0.8"/>
      </g>
     </g>
     <g id="text_14">
      <!-- 40 -->
      <g transform="translate(23.82 14.271875) scale(0.1 -0.1)">
       <use xlink:href="#TimesNewRomanPSMT-34"/>
       <use xlink:href="#TimesNewRomanPSMT-30" x="50"/>
      </g>
     </g>
    </g>
    <g id="text_15">
     <!-- Total cost -->
     <g transform="translate(17.680937 149.00625) rotate(-90) scale(0.1 -0.1)">
      <defs>
       <path id="TimesNewRomanPSMT-54" d="M 3703 4238 
L 3750 3244 
L 3631 3244 
Q 3597 3506 3538 3619 
Q 3441 3800 3280 3886 
Q 3119 3972 2856 3972 
L 2259 3972 
L 2259 734 
Q 2259 344 2344 247 
Q 2463 116 2709 116 
L 2856 116 
L 2856 0 
L 1059 0 
L 1059 116 
L 1209 116 
Q 1478 116 1591 278 
Q 1659 378 1659 734 
L 1659 3972 
L 1150 3972 
Q 853 3972 728 3928 
Q 566 3869 450 3700 
Q 334 3531 313 3244 
L 194 3244 
L 244 4238 
L 3703 4238 
z
" transform="scale(0.015625)"/>
       <path id="TimesNewRomanPSMT-6c" d="M 1184 4444 
L 1184 647 
Q 1184 378 1223 290 
Q 1263 203 1344 158 
Q 1425 113 1647 113 
L 1647 0 
L 244 0 
L 244 113 
Q 441 113 512 153 
Q 584 194 625 287 
Q 666 381 666 647 
L 666 3247 
Q 666 3731 644 3842 
Q 622 3953 573 3993 
Q 525 4034 450 4034 
Q 369 4034 244 3984 
L 191 4094 
L 1044 4444 
L 1184 4444 
z
" transform="scale(0.015625)"/>
       <path id="TimesNewRomanPSMT-20" transform="scale(0.015625)"/>
       <path id="TimesNewRomanPSMT-63" d="M 2631 1088 
Q 2516 522 2178 217 
Q 1841 -88 1431 -88 
Q 944 -88 581 321 
Q 219 731 219 1428 
Q 219 2103 620 2525 
Q 1022 2947 1584 2947 
Q 2006 2947 2278 2723 
Q 2550 2500 2550 2259 
Q 2550 2141 2473 2067 
Q 2397 1994 2259 1994 
Q 2075 1994 1981 2113 
Q 1928 2178 1911 2362 
Q 1894 2547 1784 2644 
Q 1675 2738 1481 2738 
Q 1169 2738 978 2506 
Q 725 2200 725 1697 
Q 725 1184 976 792 
Q 1228 400 1656 400 
Q 1963 400 2206 609 
Q 2378 753 2541 1131 
L 2631 1088 
z
" transform="scale(0.015625)"/>
       <path id="TimesNewRomanPSMT-73" d="M 2050 2947 
L 2050 1972 
L 1947 1972 
Q 1828 2431 1642 2597 
Q 1456 2763 1169 2763 
Q 950 2763 815 2647 
Q 681 2531 681 2391 
Q 681 2216 781 2091 
Q 878 1963 1175 1819 
L 1631 1597 
Q 2266 1288 2266 781 
Q 2266 391 1970 151 
Q 1675 -88 1309 -88 
Q 1047 -88 709 6 
Q 606 38 541 38 
Q 469 38 428 -44 
L 325 -44 
L 325 978 
L 428 978 
Q 516 541 762 319 
Q 1009 97 1316 97 
Q 1531 97 1667 223 
Q 1803 350 1803 528 
Q 1803 744 1651 891 
Q 1500 1038 1047 1263 
Q 594 1488 453 1669 
Q 313 1847 313 2119 
Q 313 2472 555 2709 
Q 797 2947 1181 2947 
Q 1350 2947 1591 2875 
Q 1750 2828 1803 2828 
Q 1853 2828 1881 2850 
Q 1909 2872 1947 2947 
L 2050 2947 
z
" transform="scale(0.015625)"/>
      </defs>
      <use xlink:href="#TimesNewRomanPSMT-54"/>
      <use xlink:href="#TimesNewRomanPSMT-6f" x="54.083984"/>
      <use xlink:href="#TimesNewRomanPSMT-74" x="104.083984"/>
      <use xlink:href="#TimesNewRomanPSMT-61" x="131.867188"/>
      <use xlink:href="#TimesNewRomanPSMT-6c" x="176.251953"/>
      <use xlink:href="#TimesNewRomanPSMT-20" x="204.035156"/>
      <use xlink:href="#TimesNewRomanPSMT-63" x="229.035156"/>
      <use xlink:href="#TimesNewRomanPSMT-6f" x="273.419922"/>
      <use xlink:href="#TimesNewRomanPSMT-73" x="323.419922"/>
      <use xlink:href="#TimesNewRomanPSMT-74" x="362.335938"/>
     </g>
    </g>
   </g>
   <g id="line2d_21">
    <path d="M 64.655455 104.197427 
L 69.422545 104.197427 
L 74.189636 104.197427 
L 78.956727 104.197427 
L 83.723818 104.197427 
L 88.490909 104.197427 
L 93.258 104.197427 
L 98.025091 104.197427 
L 102.792182 104.197427 
L 107.559273 104.197427 
L 112.326364 104.197427 
L 117.093455 104.197427 
L 121.860545 104.197427 
L 126.627636 104.197427 
L 131.394727 104.197427 
L 136.161818 104.197427 
L 140.928909 104.197427 
L 145.696 104.197427 
L 150.463091 104.197427 
L 155.230182 104.197427 
L 159.997273 104.197427 
L 164.764364 104.197427 
L 169.531455 104.197427 
L 174.298545 104.197427 
L 179.065636 104.197427 
L 183.832727 104.197427 
L 188.599818 104.197427 
L 193.366909 104.197427 
L 198.134 104.197427 
L 202.901091 104.197427 
L 207.668182 104.197427 
L 212.435273 104.197427 
L 217.202364 104.197427 
L 221.969455 104.197427 
L 226.736545 104.197427 
L 231.503636 104.197427 
L 236.270727 104.197427 
L 241.037818 104.197427 
L 245.804909 104.197427 
L 250.572 104.197427 
L 255.339091 104.197427 
L 260.106182 104.197427 
L 264.873273 104.197427 
L 269.640364 104.197427 
L 274.407455 104.197427 
L 279.174545 104.197427 
L 283.941636 104.197427 
L 288.708727 104.197427 
L 293.475818 104.197427 
L 298.242909 104.197427 
L 303.01 104.197427 
L 307.777091 104.197427 
L 312.544182 104.197427 
L 317.311273 104.197427 
L 322.078364 104.197427 
L 326.845455 104.197427 
L 331.612545 104.197427 
L 336.379636 104.197427 
L 341.146727 104.197427 
L 345.913818 104.197427 
L 350.680909 104.197427 
L 355.448 104.197427 
L 360.215091 104.197427 
L 364.982182 104.197427 
L 369.749273 104.197427 
L 374.516364 104.197427 
L 379.283455 104.197427 
L 384.050545 104.197427 
L 388.817636 104.197427 
L 393.584727 104.197427 
L 398.351818 104.197427 
L 403.118909 104.197427 
L 407.886 104.197427 
L 412.653091 104.197427 
L 417.420182 104.197427 
L 422.187273 104.197427 
L 426.954364 104.197427 
L 431.721455 104.197427 
L 436.488545 104.197427 
L 441.255636 104.197427 
L 446.022727 104.197427 
L 450.789818 104.197427 
L 455.556909 104.197427 
L 460.324 104.197427 
L 465.091091 104.197427 
L 469.858182 104.197427 
L 474.625273 104.197427 
L 479.392364 104.197427 
L 484.159455 104.197427 
L 488.926545 104.197427 
L 493.693636 104.197427 
L 498.460727 104.197427 
L 503.227818 104.197427 
L 507.994909 104.197427 
L 512.762 104.197427 
L 517.529091 104.197427 
L 522.296182 104.197427 
L 527.063273 104.197427 
L 531.830364 104.197427 
L 536.597455 104.197427 
L 541.364545 104.197427 
" clip-path="url(#pe40062242b)" style="fill: none; stroke: #1f77b4; stroke-width: 1.5; stroke-linecap: square"/>
   </g>
   <g id="line2d_22">
    <path d="M 64.655455 71.25442 
L 69.422545 71.25442 
L 74.189636 71.25442 
L 78.956727 71.25442 
L 83.723818 71.25442 
L 88.490909 71.25442 
L 93.258 71.25442 
L 98.025091 71.25442 
L 102.792182 71.25442 
L 107.559273 71.25442 
L 112.326364 71.25442 
L 117.093455 71.25442 
L 121.860545 71.25442 
L 126.627636 71.25442 
L 131.394727 71.25442 
L 136.161818 71.25442 
L 140.928909 71.25442 
L 145.696 71.25442 
L 150.463091 71.25442 
L 155.230182 71.25442 
L 159.997273 71.25442 
L 164.764364 71.25442 
L 169.531455 71.25442 
L 174.298545 71.25442 
L 179.065636 71.25442 
L 183.832727 71.25442 
L 188.599818 71.25442 
L 193.366909 71.25442 
L 198.134 71.25442 
L 202.901091 71.25442 
L 207.668182 71.25442 
L 212.435273 71.25442 
L 217.202364 71.25442 
L 221.969455 71.25442 
L 226.736545 71.25442 
L 231.503636 71.25442 
L 236.270727 71.25442 
L 241.037818 71.25442 
L 245.804909 71.25442 
L 250.572 71.25442 
L 255.339091 71.25442 
L 260.106182 71.25442 
L 264.873273 71.25442 
L 269.640364 71.25442 
L 274.407455 71.25442 
L 279.174545 71.25442 
L 283.941636 71.25442 
L 288.708727 71.25442 
L 293.475818 71.25442 
L 298.242909 71.25442 
L 303.01 71.25442 
L 307.777091 71.25442 
L 312.544182 71.25442 
L 317.311273 71.25442 
L 322.078364 71.25442 
L 326.845455 71.25442 
L 331.612545 71.25442 
L 336.379636 71.25442 
L 341.146727 71.25442 
L 345.913818 71.25442 
L 350.680909 71.25442 
L 355.448 71.25442 
L 360.215091 71.25442 
L 364.982182 71.25442 
L 369.749273 71.25442 
L 374.516364 71.25442 
L 379.283455 71.25442 
L 384.050545 71.25442 
L 388.817636 71.25442 
L 393.584727 71.25442 
L 398.351818 71.25442 
L 403.118909 71.25442 
L 407.886 71.25442 
L 412.653091 71.25442 
L 417.420182 71.25442 
L 422.187273 71.25442 
L 426.954364 71.25442 
L 431.721455 71.25442 
L 436.488545 71.25442 
L 441.255636 71.25442 
L 446.022727 71.25442 
L 450.789818 71.25442 
L 455.556909 71.25442 
L 460.324 71.25442 
L 465.091091 71.25442 
L 469.858182 71.25442 
L 474.625273 71.25442 
L 479.392364 71.25442 
L 484.159455 71.25442 
L 488.926545 71.25442 
L 493.693636 71.25442 
L 498.460727 71.25442 
L 503.227818 71.25442 
L 507.994909 71.25442 
L 512.762 71.25442 
L 517.529091 71.25442 
L 522.296182 71.25442 
L 527.063273 71.25442 
L 531.830364 71.25442 
L 536.597455 71.25442 
L 541.364545 71.25442 
" clip-path="url(#pe40062242b)" style="fill: none; stroke: #ff7f0e; stroke-width: 1.5; stroke-linecap: square"/>
   </g>
   <g id="line2d_23">
    <path d="M 64.655455 104.485256 
L 69.422545 104.485256 
L 74.189636 104.485256 
L 78.956727 104.485256 
L 83.723818 104.485256 
L 88.490909 104.485256 
L 93.258 104.485256 
L 98.025091 104.485256 
L 102.792182 104.485256 
L 107.559273 104.485256 
L 112.326364 104.485256 
L 117.093455 104.485256 
L 121.860545 104.485256 
L 126.627636 104.485256 
L 131.394727 104.485256 
L 136.161818 104.485256 
L 140.928909 104.485256 
L 145.696 104.485256 
L 150.463091 104.485256 
L 155.230182 104.485256 
L 159.997273 104.485256 
L 164.764364 104.485256 
L 169.531455 104.485256 
L 174.298545 104.485256 
L 179.065636 104.485256 
L 183.832727 104.485256 
L 188.599818 104.485256 
L 193.366909 104.485256 
L 198.134 104.485256 
L 202.901091 104.485256 
L 207.668182 104.485256 
L 212.435273 104.485256 
L 217.202364 104.485256 
L 221.969455 104.485256 
L 226.736545 104.485256 
L 231.503636 104.485256 
L 236.270727 104.485256 
L 241.037818 104.485256 
L 245.804909 104.485256 
L 250.572 104.485256 
L 255.339091 104.485256 
L 260.106182 104.485256 
L 264.873273 104.485256 
L 269.640364 104.485256 
L 274.407455 104.485256 
L 279.174545 104.485256 
L 283.941636 104.485256 
L 288.708727 104.485256 
L 293.475818 104.485256 
L 298.242909 104.485256 
L 303.01 104.485256 
L 307.777091 104.485256 
L 312.544182 104.485256 
L 317.311273 104.485256 
L 322.078364 104.485256 
L 326.845455 104.485256 
L 331.612545 104.485256 
L 336.379636 104.485256 
L 341.146727 104.485256 
L 345.913818 104.485256 
L 350.680909 104.485256 
L 355.448 104.485256 
L 360.215091 104.485256 
L 364.982182 104.485256 
L 369.749273 104.485256 
L 374.516364 104.485256 
L 379.283455 104.485256 
L 384.050545 104.485256 
L 388.817636 104.485256 
L 393.584727 104.485256 
L 398.351818 104.485256 
L 403.118909 104.485256 
L 407.886 104.485256 
L 412.653091 104.485256 
L 417.420182 104.485256 
L 422.187273 104.485256 
L 426.954364 104.485256 
L 431.721455 104.485256 
L 436.488545 104.485256 
L 441.255636 104.485256 
L 446.022727 104.485256 
L 450.789818 104.485256 
L 455.556909 104.485256 
L 460.324 104.485256 
L 465.091091 104.485256 
L 469.858182 104.485256 
L 474.625273 104.485256 
L 479.392364 104.485256 
L 484.159455 104.485256 
L 488.926545 104.485256 
L 493.693636 104.485256 
L 498.460727 104.485256 
L 503.227818 104.485256 
L 507.994909 104.485256 
L 512.762 104.485256 
L 517.529091 104.485256 
L 522.296182 104.485256 
L 527.063273 104.485256 
L 531.830364 104.485256 
L 536.597455 104.485256 
L 541.364545 104.485256 
" clip-path="url(#pe40062242b)" style="fill: none; stroke: #2ca02c; stroke-width: 1.5; stroke-linecap: square"/>
   </g>
   <g id="line2d_24">
    <path d="M 64.655455 97.405594 
L 69.422545 97.405594 
L 74.189636 97.405594 
L 78.956727 97.405594 
L 83.723818 97.405594 
L 88.490909 97.405594 
L 93.258 97.405594 
L 98.025091 97.405594 
L 102.792182 97.405594 
L 107.559273 97.405594 
L 112.326364 97.405594 
L 117.093455 97.405594 
L 121.860545 97.405594 
L 126.627636 97.405594 
L 131.394727 97.405594 
L 136.161818 97.405594 
L 140.928909 97.405594 
L 145.696 97.405594 
L 150.463091 97.405594 
L 155.230182 97.405594 
L 159.997273 97.405594 
L 164.764364 97.405594 
L 169.531455 97.405594 
L 174.298545 97.405594 
L 179.065636 97.405594 
L 183.832727 97.405594 
L 188.599818 97.405594 
L 193.366909 97.405594 
L 198.134 97.405594 
L 202.901091 97.405594 
L 207.668182 97.405594 
L 212.435273 97.405594 
L 217.202364 97.405594 
L 221.969455 97.405594 
L 226.736545 97.405594 
L 231.503636 97.405594 
L 236.270727 97.405594 
L 241.037818 97.405594 
L 245.804909 97.405594 
L 250.572 97.405594 
L 255.339091 97.405594 
L 260.106182 97.405594 
L 264.873273 97.405594 
L 269.640364 97.405594 
L 274.407455 97.405594 
L 279.174545 97.405594 
L 283.941636 97.405594 
L 288.708727 97.405594 
L 293.475818 97.405594 
L 298.242909 97.405594 
L 303.01 97.405594 
L 307.777091 97.405594 
L 312.544182 97.405594 
L 317.311273 97.405594 
L 322.078364 97.405594 
L 326.845455 97.405594 
L 331.612545 97.405594 
L 336.379636 97.405594 
L 341.146727 97.405594 
L 345.913818 97.405594 
L 350.680909 97.405594 
L 355.448 97.405594 
L 360.215091 97.405594 
L 364.982182 97.405594 
L 369.749273 97.405594 
L 374.516364 97.405594 
L 379.283455 97.405594 
L 384.050545 97.405594 
L 388.817636 97.405594 
L 393.584727 97.405594 
L 398.351818 97.405594 
L 403.118909 97.405594 
L 407.886 97.405594 
L 412.653091 97.405594 
L 417.420182 97.405594 
L 422.187273 97.405594 
L 426.954364 97.405594 
L 431.721455 97.405594 
L 436.488545 97.405594 
L 441.255636 97.405594 
L 446.022727 97.405594 
L 450.789818 97.405594 
L 455.556909 97.405594 
L 460.324 97.405594 
L 465.091091 97.405594 
L 469.858182 97.405594 
L 474.625273 97.405594 
L 479.392364 97.405594 
L 484.159455 97.405594 
L 488.926545 97.405594 
L 493.693636 97.405594 
L 498.460727 97.405594 
L 503.227818 97.405594 
L 507.994909 97.405594 
L 512.762 97.405594 
L 517.529091 97.405594 
L 522.296182 97.405594 
L 527.063273 97.405594 
L 531.830364 97.405594 
L 536.597455 97.405594 
L 541.364545 97.405594 
" clip-path="url(#pe40062242b)" style="fill: none; stroke: #d62728; stroke-width: 1.5; stroke-linecap: square"/>
   </g>
   <g id="line2d_25">
    <path d="M 64.655455 92.074884 
L 69.422545 99.13283 
L 74.189636 99.13283 
L 78.956727 99.13283 
L 83.723818 99.13283 
L 88.490909 99.13283 
L 93.258 99.13283 
L 98.025091 99.13283 
L 102.792182 99.13283 
L 107.559273 99.13283 
L 112.326364 99.13283 
L 117.093455 99.13283 
L 121.860545 99.13283 
L 126.627636 99.13283 
L 131.394727 99.13283 
L 136.161818 99.13283 
L 140.928909 99.13283 
L 145.696 99.13283 
L 150.463091 99.13283 
L 155.230182 99.13283 
L 159.997273 99.13283 
L 164.764364 99.13283 
L 169.531455 99.13283 
L 174.298545 99.13283 
L 179.065636 99.13283 
L 183.832727 99.13283 
L 188.599818 99.13283 
L 193.366909 99.13283 
L 198.134 99.13283 
L 202.901091 99.13283 
L 207.668182 99.13283 
L 212.435273 99.13283 
L 217.202364 99.13283 
L 221.969455 99.13283 
L 226.736545 99.13283 
L 231.503636 99.13283 
L 236.270727 99.13283 
L 241.037818 99.13283 
L 245.804909 99.13283 
L 250.572 99.13283 
L 255.339091 99.13283 
L 260.106182 99.13283 
L 264.873273 99.13283 
L 269.640364 99.13283 
L 274.407455 99.13283 
L 279.174545 99.13283 
L 283.941636 99.13283 
L 288.708727 99.13283 
L 293.475818 99.13283 
L 298.242909 99.13283 
L 303.01 99.13283 
L 307.777091 99.13283 
L 312.544182 99.13283 
L 317.311273 99.13283 
L 322.078364 99.13283 
L 326.845455 99.13283 
L 331.612545 99.13283 
L 336.379636 99.13283 
L 341.146727 99.13283 
L 345.913818 99.13283 
L 350.680909 99.13283 
L 355.448 99.13283 
L 360.215091 99.13283 
L 364.982182 99.13283 
L 369.749273 99.13283 
L 374.516364 99.13283 
L 379.283455 99.13283 
L 384.050545 99.13283 
L 388.817636 99.13283 
L 393.584727 99.13283 
L 398.351818 99.13283 
L 403.118909 99.13283 
L 407.886 99.13283 
L 412.653091 99.13283 
L 417.420182 99.13283 
L 422.187273 99.13283 
L 426.954364 99.13283 
L 431.721455 99.13283 
L 436.488545 99.13283 
L 441.255636 99.13283 
L 446.022727 99.13283 
L 450.789818 99.13283 
L 455.556909 99.13283 
L 460.324 99.13283 
L 465.091091 99.13283 
L 469.858182 99.13283 
L 474.625273 99.13283 
L 479.392364 99.13283 
L 484.159455 99.13283 
L 488.926545 99.13283 
L 493.693636 99.13283 
L 498.460727 99.13283 
L 503.227818 99.13283 
L 507.994909 99.13283 
L 512.762 99.13283 
L 517.529091 99.13283 
L 522.296182 99.13283 
L 527.063273 99.13283 
L 531.830364 99.13283 
L 536.597455 99.13283 
L 541.364545 99.13283 
" clip-path="url(#pe40062242b)" style="fill: none; stroke: #9467bd; stroke-width: 1.5; stroke-linecap: square"/>
   </g>
   <g id="line2d_26">
    <path d="M 64.655455 165.10668 
L 69.422545 165.10668 
L 74.189636 165.10668 
L 78.956727 165.10668 
L 83.723818 165.10668 
L 88.490909 165.10668 
L 93.258 165.10668 
L 98.025091 165.10668 
L 102.792182 165.10668 
L 107.559273 165.10668 
L 112.326364 165.10668 
L 117.093455 165.10668 
L 121.860545 165.10668 
L 126.627636 165.10668 
L 131.394727 165.10668 
L 136.161818 165.10668 
L 140.928909 165.10668 
L 145.696 165.10668 
L 150.463091 165.10668 
L 155.230182 165.10668 
L 159.997273 165.10668 
L 164.764364 165.10668 
L 169.531455 165.10668 
L 174.298545 165.10668 
L 179.065636 165.10668 
L 183.832727 165.10668 
L 188.599818 165.10668 
L 193.366909 165.10668 
L 198.134 165.10668 
L 202.901091 165.10668 
L 207.668182 165.10668 
L 212.435273 165.10668 
L 217.202364 165.10668 
L 221.969455 165.10668 
L 226.736545 165.10668 
L 231.503636 165.10668 
L 236.270727 165.10668 
L 241.037818 165.10668 
L 245.804909 165.10668 
L 250.572 165.10668 
L 255.339091 165.10668 
L 260.106182 165.10668 
L 264.873273 165.10668 
L 269.640364 165.10668 
L 274.407455 165.10668 
L 279.174545 165.10668 
L 283.941636 165.10668 
L 288.708727 165.10668 
L 293.475818 165.10668 
L 298.242909 165.10668 
L 303.01 165.10668 
L 307.777091 165.10668 
L 312.544182 165.10668 
L 317.311273 165.10668 
L 322.078364 165.10668 
L 326.845455 165.10668 
L 331.612545 165.10668 
L 336.379636 165.10668 
L 341.146727 165.10668 
L 345.913818 165.10668 
L 350.680909 165.10668 
L 355.448 165.10668 
L 360.215091 165.10668 
L 364.982182 165.10668 
L 369.749273 165.10668 
L 374.516364 165.10668 
L 379.283455 165.10668 
L 384.050545 165.10668 
L 388.817636 165.10668 
L 393.584727 165.10668 
L 398.351818 165.10668 
L 403.118909 165.10668 
L 407.886 165.10668 
L 412.653091 165.10668 
L 417.420182 165.10668 
L 422.187273 165.10668 
L 426.954364 165.10668 
L 431.721455 165.10668 
L 436.488545 165.10668 
L 441.255636 165.10668 
L 446.022727 165.10668 
L 450.789818 165.10668 
L 455.556909 165.10668 
L 460.324 165.10668 
L 465.091091 165.10668 
L 469.858182 165.10668 
L 474.625273 165.10668 
L 479.392364 165.10668 
L 484.159455 165.10668 
L 488.926545 165.10668 
L 493.693636 165.10668 
L 498.460727 165.10668 
L 503.227818 165.10668 
L 507.994909 165.10668 
L 512.762 165.10668 
L 517.529091 165.10668 
L 522.296182 165.10668 
L 527.063273 165.10668 
L 531.830364 165.10668 
L 536.597455 165.10668 
L 541.364545 165.10668 
" clip-path="url(#pe40062242b)" style="fill: none; stroke: #8c564b; stroke-width: 1.5; stroke-linecap: square"/>
   </g>
   <g id="line2d_27">
    <path d="M 64.655455 200.141928 
L 69.422545 200.141928 
L 74.189636 200.141928 
L 78.956727 200.141928 
L 83.723818 200.141928 
L 88.490909 200.141928 
L 93.258 200.141928 
L 98.025091 200.141928 
L 102.792182 200.141928 
L 107.559273 200.141928 
L 112.326364 200.141928 
L 117.093455 200.141928 
L 121.860545 200.141928 
L 126.627636 200.141928 
L 131.394727 200.141928 
L 136.161818 200.141928 
L 140.928909 200.141928 
L 145.696 200.141928 
L 150.463091 200.141928 
L 155.230182 200.141928 
L 159.997273 200.141928 
L 164.764364 200.141928 
L 169.531455 200.141928 
L 174.298545 200.141928 
L 179.065636 200.141928 
L 183.832727 200.141928 
L 188.599818 200.141928 
L 193.366909 200.141928 
L 198.134 200.141928 
L 202.901091 200.141928 
L 207.668182 200.141928 
L 212.435273 200.141928 
L 217.202364 200.141928 
L 221.969455 200.141928 
L 226.736545 200.141928 
L 231.503636 200.141928 
L 236.270727 200.141928 
L 241.037818 200.141928 
L 245.804909 200.141928 
L 250.572 200.141928 
L 255.339091 200.141928 
L 260.106182 200.141928 
L 264.873273 200.141928 
L 269.640364 200.141928 
L 274.407455 200.141928 
L 279.174545 200.141928 
L 283.941636 200.141928 
L 288.708727 200.141928 
L 293.475818 200.141928 
L 298.242909 200.141928 
L 303.01 200.141928 
L 307.777091 200.141928 
L 312.544182 200.141928 
L 317.311273 200.141928 
L 322.078364 200.141928 
L 326.845455 200.141928 
L 331.612545 200.141928 
L 336.379636 200.141928 
L 341.146727 200.141928 
L 345.913818 200.141928 
L 350.680909 200.141928 
L 355.448 200.141928 
L 360.215091 200.141928 
L 364.982182 200.141928 
L 369.749273 200.141928 
L 374.516364 200.141928 
L 379.283455 200.141928 
L 384.050545 200.141928 
L 388.817636 200.141928 
L 393.584727 200.141928 
L 398.351818 200.141928 
L 403.118909 200.141928 
L 407.886 200.141928 
L 412.653091 200.141928 
L 417.420182 200.141928 
L 422.187273 200.141928 
L 426.954364 200.141928 
L 431.721455 200.141928 
L 436.488545 200.141928 
L 441.255636 200.141928 
L 446.022727 200.141928 
L 450.789818 200.141928 
L 455.556909 200.141928 
L 460.324 200.141928 
L 465.091091 200.141928 
L 469.858182 200.141928 
L 474.625273 200.141928 
L 479.392364 200.141928 
L 484.159455 200.141928 
L 488.926545 200.141928 
L 493.693636 200.141928 
L 498.460727 200.141928 
L 503.227818 200.141928 
L 507.994909 200.141928 
L 512.762 200.141928 
L 517.529091 200.141928 
L 522.296182 200.141928 
L 527.063273 200.141928 
L 531.830364 200.141928 
L 536.597455 200.141928 
L 541.364545 200.141928 
" clip-path="url(#pe40062242b)" style="fill: none; stroke: #e377c2; stroke-width: 1.5; stroke-linecap: square"/>
   </g>
   <g id="line2d_28">
    <path d="M 64.655455 119.151779 
L 69.422545 119.151779 
L 74.189636 119.151779 
L 78.956727 119.151779 
L 83.723818 119.151779 
L 88.490909 119.151779 
L 93.258 119.151779 
L 98.025091 119.151779 
L 102.792182 119.151779 
L 107.559273 119.151779 
L 112.326364 119.151779 
L 117.093455 119.151779 
L 121.860545 119.151779 
L 126.627636 119.151779 
L 131.394727 119.151779 
L 136.161818 119.151779 
L 140.928909 119.151779 
L 145.696 119.151779 
L 150.463091 119.151779 
L 155.230182 119.151779 
L 159.997273 119.151779 
L 164.764364 119.151779 
L 169.531455 119.151779 
L 174.298545 119.151779 
L 179.065636 119.151779 
L 183.832727 119.151779 
L 188.599818 119.151779 
L 193.366909 119.151779 
L 198.134 119.151779 
L 202.901091 119.151779 
L 207.668182 119.151779 
L 212.435273 119.151779 
L 217.202364 119.151779 
L 221.969455 119.151779 
L 226.736545 119.151779 
L 231.503636 119.151779 
L 236.270727 119.151779 
L 241.037818 119.151779 
L 245.804909 119.151779 
L 250.572 119.151779 
L 255.339091 119.151779 
L 260.106182 119.151779 
L 264.873273 119.151779 
L 269.640364 119.151779 
L 274.407455 119.151779 
L 279.174545 119.151779 
L 283.941636 119.151779 
L 288.708727 119.151779 
L 293.475818 119.151779 
L 298.242909 119.151779 
L 303.01 119.151779 
L 307.777091 119.151779 
L 312.544182 119.151779 
L 317.311273 119.151779 
L 322.078364 119.151779 
L 326.845455 119.151779 
L 331.612545 119.151779 
L 336.379636 119.151779 
L 341.146727 119.151779 
L 345.913818 119.151779 
L 350.680909 119.151779 
L 355.448 119.151779 
L 360.215091 119.151779 
L 364.982182 119.151779 
L 369.749273 119.151779 
L 374.516364 119.151779 
L 379.283455 119.151779 
L 384.050545 119.151779 
L 388.817636 119.151779 
L 393.584727 119.151779 
L 398.351818 119.151779 
L 403.118909 119.151779 
L 407.886 119.151779 
L 412.653091 119.151779 
L 417.420182 119.151779 
L 422.187273 119.151779 
L 426.954364 119.151779 
L 431.721455 119.151779 
L 436.488545 119.151779 
L 441.255636 119.151779 
L 446.022727 119.151779 
L 450.789818 119.151779 
L 455.556909 119.151779 
L 460.324 119.151779 
L 465.091091 119.151779 
L 469.858182 119.151779 
L 474.625273 119.151779 
L 479.392364 119.151779 
L 484.159455 119.151779 
L 488.926545 119.151779 
L 493.693636 119.151779 
L 498.460727 119.151779 
L 503.227818 119.151779 
L 507.994909 119.151779 
L 512.762 119.151779 
L 517.529091 119.151779 
L 522.296182 119.151779 
L 527.063273 119.151779 
L 531.830364 119.151779 
L 536.597455 119.151779 
L 541.364545 119.151779 
" clip-path="url(#pe40062242b)" style="fill: none; stroke: #7f7f7f; stroke-width: 1.5; stroke-linecap: square"/>
   </g>
   <g id="line2d_29">
    <path d="M 64.655455 193.253128 
L 69.422545 178.951293 
L 74.189636 178.951293 
L 78.956727 178.951293 
L 83.723818 178.951293 
L 88.490909 178.951293 
L 93.258 178.951293 
L 98.025091 178.951293 
L 102.792182 178.951293 
L 107.559273 178.951293 
L 112.326364 178.951293 
L 117.093455 178.951293 
L 121.860545 178.951293 
L 126.627636 178.951293 
L 131.394727 178.951293 
L 136.161818 178.951293 
L 140.928909 178.951293 
L 145.696 178.951293 
L 150.463091 178.951293 
L 155.230182 178.951293 
L 159.997273 178.951293 
L 164.764364 178.951293 
L 169.531455 178.951293 
L 174.298545 178.951293 
L 179.065636 178.951293 
L 183.832727 178.951293 
L 188.599818 178.951293 
L 193.366909 178.951293 
L 198.134 178.951293 
L 202.901091 178.951293 
L 207.668182 178.951293 
L 212.435273 178.951293 
L 217.202364 178.951293 
L 221.969455 178.951293 
L 226.736545 178.951293 
L 231.503636 178.951293 
L 236.270727 178.951293 
L 241.037818 178.951293 
L 245.804909 178.951293 
L 250.572 178.951293 
L 255.339091 178.951293 
L 260.106182 178.951293 
L 264.873273 178.951293 
L 269.640364 178.951293 
L 274.407455 178.951293 
L 279.174545 178.951293 
L 283.941636 178.951293 
L 288.708727 178.951293 
L 293.475818 178.951293 
L 298.242909 178.951293 
L 303.01 178.951293 
L 307.777091 178.951293 
L 312.544182 178.951293 
L 317.311273 178.951293 
L 322.078364 178.951293 
L 326.845455 178.951293 
L 331.612545 178.951293 
L 336.379636 178.951293 
L 341.146727 178.951293 
L 345.913818 178.951293 
L 350.680909 178.951293 
L 355.448 178.951293 
L 360.215091 178.951293 
L 364.982182 178.951293 
L 369.749273 178.951293 
L 374.516364 178.951293 
L 379.283455 178.951293 
L 384.050545 178.951293 
L 388.817636 178.951293 
L 393.584727 178.951293 
L 398.351818 178.951293 
L 403.118909 178.951293 
L 407.886 178.951293 
L 412.653091 178.951293 
L 417.420182 178.951293 
L 422.187273 178.951293 
L 426.954364 178.951293 
L 431.721455 178.951293 
L 436.488545 178.951293 
L 441.255636 178.951293 
L 446.022727 178.951293 
L 450.789818 178.951293 
L 455.556909 178.951293 
L 460.324 178.951293 
L 465.091091 178.951293 
L 469.858182 178.951293 
L 474.625273 178.951293 
L 479.392364 178.951293 
L 484.159455 178.951293 
L 488.926545 178.951293 
L 493.693636 178.951293 
L 498.460727 178.951293 
L 503.227818 178.951293 
L 507.994909 178.951293 
L 512.762 178.951293 
L 517.529091 178.951293 
L 522.296182 178.951293 
L 527.063273 178.951293 
L 531.830364 178.951293 
L 536.597455 178.951293 
L 541.364545 178.951293 
" clip-path="url(#pe40062242b)" style="fill: none; stroke: #bcbd22; stroke-width: 1.5; stroke-linecap: square"/>
   </g>
   <g id="line2d_30">
    <path d="M 64.655455 151.633125 
L 69.422545 151.633125 
L 74.189636 151.633125 
L 78.956727 151.633125 
L 83.723818 151.633125 
L 88.490909 151.633125 
L 93.258 151.633125 
L 98.025091 151.633125 
L 102.792182 151.633125 
L 107.559273 151.633125 
L 112.326364 151.633125 
L 117.093455 151.633125 
L 121.860545 151.633125 
L 126.627636 151.633125 
L 131.394727 151.633125 
L 136.161818 151.633125 
L 140.928909 151.633125 
L 145.696 151.633125 
L 150.463091 151.633125 
L 155.230182 151.633125 
L 159.997273 151.633125 
L 164.764364 151.633125 
L 169.531455 151.633125 
L 174.298545 151.633125 
L 179.065636 151.633125 
L 183.832727 151.633125 
L 188.599818 151.633125 
L 193.366909 151.633125 
L 198.134 151.633125 
L 202.901091 151.633125 
L 207.668182 151.633125 
L 212.435273 151.633125 
L 217.202364 151.633125 
L 221.969455 151.633125 
L 226.736545 151.633125 
L 231.503636 151.633125 
L 236.270727 151.633125 
L 241.037818 151.633125 
L 245.804909 151.633125 
L 250.572 151.633125 
L 255.339091 151.633125 
L 260.106182 151.633125 
L 264.873273 151.633125 
L 269.640364 151.633125 
L 274.407455 151.633125 
L 279.174545 151.633125 
L 283.941636 151.633125 
L 288.708727 151.633125 
L 293.475818 151.633125 
L 298.242909 151.633125 
L 303.01 151.633125 
L 307.777091 151.633125 
L 312.544182 151.633125 
L 317.311273 151.633125 
L 322.078364 151.633125 
L 326.845455 151.633125 
L 331.612545 151.633125 
L 336.379636 151.633125 
L 341.146727 151.633125 
L 345.913818 151.633125 
L 350.680909 151.633125 
L 355.448 151.633125 
L 360.215091 151.633125 
L 364.982182 151.633125 
L 369.749273 151.633125 
L 374.516364 151.633125 
L 379.283455 151.633125 
L 384.050545 151.633125 
L 388.817636 151.633125 
L 393.584727 151.633125 
L 398.351818 151.633125 
L 403.118909 151.633125 
L 407.886 151.633125 
L 412.653091 151.633125 
L 417.420182 151.633125 
L 422.187273 151.633125 
L 426.954364 151.633125 
L 431.721455 151.633125 
L 436.488545 151.633125 
L 441.255636 151.633125 
L 446.022727 151.633125 
L 450.789818 151.633125 
L 455.556909 151.633125 
L 460.324 151.633125 
L 465.091091 151.633125 
L 469.858182 151.633125 
L 474.625273 151.633125 
L 479.392364 151.633125 
L 484.159455 151.633125 
L 488.926545 151.633125 
L 493.693636 151.633125 
L 498.460727 151.633125 
L 503.227818 151.633125 
L 507.994909 151.633125 
L 512.762 151.633125 
L 517.529091 151.633125 
L 522.296182 151.633125 
L 527.063273 151.633125 
L 531.830364 151.633125 
L 536.597455 151.633125 
L 541.364545 151.633125 
" clip-path="url(#pe40062242b)" style="fill: none; stroke: #17becf; stroke-width: 1.5; stroke-linecap: square"/>
   </g>
   <g id="line2d_31">
    <path d="M 64.655455 117.543943 
L 69.422545 94.718883 
L 74.189636 94.718883 
L 78.956727 94.718883 
L 83.723818 94.718883 
L 88.490909 94.718883 
L 93.258 94.718883 
L 98.025091 94.718883 
L 102.792182 94.718883 
L 107.559273 94.718883 
L 112.326364 94.718883 
L 117.093455 94.718883 
L 121.860545 94.718883 
L 126.627636 94.718883 
L 131.394727 94.718883 
L 136.161818 94.718883 
L 140.928909 94.718883 
L 145.696 94.718883 
L 150.463091 94.718883 
L 155.230182 94.718883 
L 159.997273 94.718883 
L 164.764364 94.718883 
L 169.531455 94.718883 
L 174.298545 94.718883 
L 179.065636 94.718883 
L 183.832727 94.718883 
L 188.599818 94.718883 
L 193.366909 94.718883 
L 198.134 94.718883 
L 202.901091 94.718883 
L 207.668182 94.718883 
L 212.435273 94.718883 
L 217.202364 94.718883 
L 221.969455 94.718883 
L 226.736545 94.718883 
L 231.503636 94.718883 
L 236.270727 94.718883 
L 241.037818 94.718883 
L 245.804909 94.718883 
L 250.572 94.718883 
L 255.339091 94.718883 
L 260.106182 94.718883 
L 264.873273 94.718883 
L 269.640364 94.718883 
L 274.407455 94.718883 
L 279.174545 94.718883 
L 283.941636 94.718883 
L 288.708727 94.718883 
L 293.475818 94.718883 
L 298.242909 94.718883 
L 303.01 94.718883 
L 307.777091 94.718883 
L 312.544182 94.718883 
L 317.311273 94.718883 
L 322.078364 94.718883 
L 326.845455 94.718883 
L 331.612545 94.718883 
L 336.379636 94.718883 
L 341.146727 94.718883 
L 345.913818 94.718883 
L 350.680909 94.718883 
L 355.448 94.718883 
L 360.215091 94.718883 
L 364.982182 94.718883 
L 369.749273 94.718883 
L 374.516364 94.718883 
L 379.283455 94.718883 
L 384.050545 94.718883 
L 388.817636 94.718883 
L 393.584727 94.718883 
L 398.351818 94.718883 
L 403.118909 94.718883 
L 407.886 94.718883 
L 412.653091 94.718883 
L 417.420182 94.718883 
L 422.187273 94.718883 
L 426.954364 94.718883 
L 431.721455 94.718883 
L 436.488545 94.718883 
L 441.255636 94.718883 
L 446.022727 94.718883 
L 450.789818 94.718883 
L 455.556909 94.718883 
L 460.324 94.718883 
L 465.091091 94.718883 
L 469.858182 94.718883 
L 474.625273 94.718883 
L 479.392364 94.718883 
L 484.159455 94.718883 
L 488.926545 94.718883 
L 493.693636 94.718883 
L 498.460727 94.718883 
L 503.227818 94.718883 
L 507.994909 94.718883 
L 512.762 94.718883 
L 517.529091 94.718883 
L 522.296182 94.718883 
L 527.063273 94.718883 
L 531.830364 94.718883 
L 536.597455 94.718883 
L 541.364545 94.718883 
" clip-path="url(#pe40062242b)" style="fill: none; stroke: #1f77b4; stroke-width: 1.5; stroke-linecap: square"/>
   </g>
   <g id="line2d_32">
    <path d="M 64.655455 97.923499 
L 69.422545 97.923499 
L 74.189636 97.923499 
L 78.956727 97.923499 
L 83.723818 97.923499 
L 88.490909 97.923499 
L 93.258 97.923499 
L 98.025091 97.923499 
L 102.792182 97.923499 
L 107.559273 97.923499 
L 112.326364 97.923499 
L 117.093455 97.923499 
L 121.860545 97.923499 
L 126.627636 97.923499 
L 131.394727 97.923499 
L 136.161818 97.923499 
L 140.928909 97.923499 
L 145.696 97.923499 
L 150.463091 97.923499 
L 155.230182 97.923499 
L 159.997273 97.923499 
L 164.764364 97.923499 
L 169.531455 97.923499 
L 174.298545 97.923499 
L 179.065636 97.923499 
L 183.832727 97.923499 
L 188.599818 97.923499 
L 193.366909 97.923499 
L 198.134 97.923499 
L 202.901091 97.923499 
L 207.668182 97.923499 
L 212.435273 97.923499 
L 217.202364 97.923499 
L 221.969455 97.923499 
L 226.736545 97.923499 
L 231.503636 97.923499 
L 236.270727 97.923499 
L 241.037818 97.923499 
L 245.804909 97.923499 
L 250.572 97.923499 
L 255.339091 97.923499 
L 260.106182 97.923499 
L 264.873273 97.923499 
L 269.640364 97.923499 
L 274.407455 97.923499 
L 279.174545 97.923499 
L 283.941636 97.923499 
L 288.708727 97.923499 
L 293.475818 97.923499 
L 298.242909 97.923499 
L 303.01 97.923499 
L 307.777091 97.923499 
L 312.544182 97.923499 
L 317.311273 97.923499 
L 322.078364 97.923499 
L 326.845455 97.923499 
L 331.612545 97.923499 
L 336.379636 97.923499 
L 341.146727 97.923499 
L 345.913818 97.923499 
L 350.680909 97.923499 
L 355.448 97.923499 
L 360.215091 97.923499 
L 364.982182 97.923499 
L 369.749273 97.923499 
L 374.516364 97.923499 
L 379.283455 97.923499 
L 384.050545 97.923499 
L 388.817636 97.923499 
L 393.584727 97.923499 
L 398.351818 97.923499 
L 403.118909 97.923499 
L 407.886 97.923499 
L 412.653091 97.923499 
L 417.420182 97.923499 
L 422.187273 97.923499 
L 426.954364 97.923499 
L 431.721455 97.923499 
L 436.488545 97.923499 
L 441.255636 97.923499 
L 446.022727 97.923499 
L 450.789818 97.923499 
L 455.556909 97.923499 
L 460.324 97.923499 
L 465.091091 97.923499 
L 469.858182 97.923499 
L 474.625273 97.923499 
L 479.392364 97.923499 
L 484.159455 97.923499 
L 488.926545 97.923499 
L 493.693636 97.923499 
L 498.460727 97.923499 
L 503.227818 97.923499 
L 507.994909 97.923499 
L 512.762 97.923499 
L 517.529091 97.923499 
L 522.296182 97.923499 
L 527.063273 97.923499 
L 531.830364 97.923499 
L 536.597455 97.923499 
L 541.364545 97.923499 
" clip-path="url(#pe40062242b)" style="fill: none; stroke: #ff7f0e; stroke-width: 1.5; stroke-linecap: square"/>
   </g>
   <g id="line2d_33">
    <path d="M 64.655455 103.265443 
L 69.422545 103.265443 
L 74.189636 103.265443 
L 78.956727 103.265443 
L 83.723818 103.265443 
L 88.490909 103.265443 
L 93.258 103.265443 
L 98.025091 103.265443 
L 102.792182 103.265443 
L 107.559273 103.265443 
L 112.326364 103.265443 
L 117.093455 103.265443 
L 121.860545 103.265443 
L 126.627636 103.265443 
L 131.394727 103.265443 
L 136.161818 103.265443 
L 140.928909 103.265443 
L 145.696 103.265443 
L 150.463091 103.265443 
L 155.230182 103.265443 
L 159.997273 103.265443 
L 164.764364 103.265443 
L 169.531455 103.265443 
L 174.298545 103.265443 
L 179.065636 103.265443 
L 183.832727 103.265443 
L 188.599818 103.265443 
L 193.366909 103.265443 
L 198.134 103.265443 
L 202.901091 103.265443 
L 207.668182 103.265443 
L 212.435273 103.265443 
L 217.202364 103.265443 
L 221.969455 103.265443 
L 226.736545 103.265443 
L 231.503636 103.265443 
L 236.270727 103.265443 
L 241.037818 103.265443 
L 245.804909 103.265443 
L 250.572 103.265443 
L 255.339091 103.265443 
L 260.106182 103.265443 
L 264.873273 103.265443 
L 269.640364 103.265443 
L 274.407455 103.265443 
L 279.174545 103.265443 
L 283.941636 103.265443 
L 288.708727 103.265443 
L 293.475818 103.265443 
L 298.242909 103.265443 
L 303.01 103.265443 
L 307.777091 103.265443 
L 312.544182 103.265443 
L 317.311273 103.265443 
L 322.078364 103.265443 
L 326.845455 103.265443 
L 331.612545 103.265443 
L 336.379636 103.265443 
L 341.146727 103.265443 
L 345.913818 103.265443 
L 350.680909 103.265443 
L 355.448 103.265443 
L 360.215091 103.265443 
L 364.982182 103.265443 
L 369.749273 103.265443 
L 374.516364 103.265443 
L 379.283455 103.265443 
L 384.050545 103.265443 
L 388.817636 103.265443 
L 393.584727 103.265443 
L 398.351818 103.265443 
L 403.118909 103.265443 
L 407.886 103.265443 
L 412.653091 103.265443 
L 417.420182 103.265443 
L 422.187273 103.265443 
L 426.954364 103.265443 
L 431.721455 103.265443 
L 436.488545 103.265443 
L 441.255636 103.265443 
L 446.022727 103.265443 
L 450.789818 103.265443 
L 455.556909 103.265443 
L 460.324 103.265443 
L 465.091091 103.265443 
L 469.858182 103.265443 
L 474.625273 103.265443 
L 479.392364 103.265443 
L 484.159455 103.265443 
L 488.926545 103.265443 
L 493.693636 103.265443 
L 498.460727 103.265443 
L 503.227818 103.265443 
L 507.994909 103.265443 
L 512.762 103.265443 
L 517.529091 103.265443 
L 522.296182 103.265443 
L 527.063273 103.265443 
L 531.830364 103.265443 
L 536.597455 103.265443 
L 541.364545 103.265443 
" clip-path="url(#pe40062242b)" style="fill: none; stroke: #2ca02c; stroke-width: 1.5; stroke-linecap: square"/>
   </g>
   <g id="line2d_34">
    <path d="M 64.655455 124.308626 
L 69.422545 124.308626 
L 74.189636 124.308626 
L 78.956727 124.308626 
L 83.723818 124.308626 
L 88.490909 124.308626 
L 93.258 124.308626 
L 98.025091 124.308626 
L 102.792182 124.308626 
L 107.559273 124.308626 
L 112.326364 124.308626 
L 117.093455 124.308626 
L 121.860545 124.308626 
L 126.627636 124.308626 
L 131.394727 124.308626 
L 136.161818 124.308626 
L 140.928909 124.308626 
L 145.696 124.308626 
L 150.463091 124.308626 
L 155.230182 124.308626 
L 159.997273 124.308626 
L 164.764364 124.308626 
L 169.531455 124.308626 
L 174.298545 124.308626 
L 179.065636 124.308626 
L 183.832727 124.308626 
L 188.599818 124.308626 
L 193.366909 124.308626 
L 198.134 124.308626 
L 202.901091 124.308626 
L 207.668182 124.308626 
L 212.435273 124.308626 
L 217.202364 124.308626 
L 221.969455 124.308626 
L 226.736545 124.308626 
L 231.503636 124.308626 
L 236.270727 124.308626 
L 241.037818 124.308626 
L 245.804909 124.308626 
L 250.572 124.308626 
L 255.339091 124.308626 
L 260.106182 124.308626 
L 264.873273 124.308626 
L 269.640364 124.308626 
L 274.407455 124.308626 
L 279.174545 124.308626 
L 283.941636 124.308626 
L 288.708727 124.308626 
L 293.475818 124.308626 
L 298.242909 124.308626 
L 303.01 124.308626 
L 307.777091 124.308626 
L 312.544182 124.308626 
L 317.311273 124.308626 
L 322.078364 124.308626 
L 326.845455 124.308626 
L 331.612545 124.308626 
L 336.379636 124.308626 
L 341.146727 124.308626 
L 345.913818 124.308626 
L 350.680909 124.308626 
L 355.448 124.308626 
L 360.215091 124.308626 
L 364.982182 124.308626 
L 369.749273 124.308626 
L 374.516364 124.308626 
L 379.283455 124.308626 
L 384.050545 124.308626 
L 388.817636 124.308626 
L 393.584727 124.308626 
L 398.351818 124.308626 
L 403.118909 124.308626 
L 407.886 124.308626 
L 412.653091 124.308626 
L 417.420182 124.308626 
L 422.187273 124.308626 
L 426.954364 124.308626 
L 431.721455 124.308626 
L 436.488545 124.308626 
L 441.255636 124.308626 
L 446.022727 124.308626 
L 450.789818 124.308626 
L 455.556909 124.308626 
L 460.324 124.308626 
L 465.091091 124.308626 
L 469.858182 124.308626 
L 474.625273 124.308626 
L 479.392364 124.308626 
L 484.159455 124.308626 
L 488.926545 124.308626 
L 493.693636 124.308626 
L 498.460727 124.308626 
L 503.227818 124.308626 
L 507.994909 124.308626 
L 512.762 124.308626 
L 517.529091 124.308626 
L 522.296182 124.308626 
L 527.063273 124.308626 
L 531.830364 124.308626 
L 536.597455 124.308626 
L 541.364545 124.308626 
" clip-path="url(#pe40062242b)" style="fill: none; stroke: #d62728; stroke-width: 1.5; stroke-linecap: square"/>
   </g>
   <g id="line2d_35">
    <path d="M 64.655455 131.622555 
L 69.422545 131.622555 
L 74.189636 131.622555 
L 78.956727 131.622555 
L 83.723818 131.622555 
L 88.490909 131.622555 
L 93.258 131.622555 
L 98.025091 131.622555 
L 102.792182 131.622555 
L 107.559273 131.622555 
L 112.326364 131.622555 
L 117.093455 131.622555 
L 121.860545 131.622555 
L 126.627636 131.622555 
L 131.394727 131.622555 
L 136.161818 131.622555 
L 140.928909 131.622555 
L 145.696 131.622555 
L 150.463091 131.622555 
L 155.230182 131.622555 
L 159.997273 131.622555 
L 164.764364 131.622555 
L 169.531455 131.622555 
L 174.298545 131.622555 
L 179.065636 131.622555 
L 183.832727 131.622555 
L 188.599818 131.622555 
L 193.366909 131.622555 
L 198.134 131.622555 
L 202.901091 131.622555 
L 207.668182 131.622555 
L 212.435273 131.622555 
L 217.202364 131.622555 
L 221.969455 131.622555 
L 226.736545 131.622555 
L 231.503636 131.622555 
L 236.270727 131.622555 
L 241.037818 131.622555 
L 245.804909 131.622555 
L 250.572 131.622555 
L 255.339091 131.622555 
L 260.106182 131.622555 
L 264.873273 131.622555 
L 269.640364 131.622555 
L 274.407455 131.622555 
L 279.174545 131.622555 
L 283.941636 131.622555 
L 288.708727 131.622555 
L 293.475818 131.622555 
L 298.242909 131.622555 
L 303.01 131.622555 
L 307.777091 131.622555 
L 312.544182 131.622555 
L 317.311273 131.622555 
L 322.078364 131.622555 
L 326.845455 131.622555 
L 331.612545 131.622555 
L 336.379636 131.622555 
L 341.146727 131.622555 
L 345.913818 131.622555 
L 350.680909 131.622555 
L 355.448 131.622555 
L 360.215091 131.622555 
L 364.982182 131.622555 
L 369.749273 131.622555 
L 374.516364 131.622555 
L 379.283455 131.622555 
L 384.050545 131.622555 
L 388.817636 131.622555 
L 393.584727 131.622555 
L 398.351818 131.622555 
L 403.118909 131.622555 
L 407.886 131.622555 
L 412.653091 131.622555 
L 417.420182 131.622555 
L 422.187273 131.622555 
L 426.954364 131.622555 
L 431.721455 131.622555 
L 436.488545 131.622555 
L 441.255636 131.622555 
L 446.022727 131.622555 
L 450.789818 131.622555 
L 455.556909 131.622555 
L 460.324 131.622555 
L 465.091091 131.622555 
L 469.858182 131.622555 
L 474.625273 131.622555 
L 479.392364 131.622555 
L 484.159455 131.622555 
L 488.926545 131.622555 
L 493.693636 131.622555 
L 498.460727 131.622555 
L 503.227818 131.622555 
L 507.994909 131.622555 
L 512.762 131.622555 
L 517.529091 131.622555 
L 522.296182 131.622555 
L 527.063273 131.622555 
L 531.830364 131.622555 
L 536.597455 131.622555 
L 541.364545 131.622555 
" clip-path="url(#pe40062242b)" style="fill: none; stroke: #9467bd; stroke-width: 1.5; stroke-linecap: square"/>
   </g>
   <g id="line2d_36">
    <path d="M 64.655455 108.303212 
L 69.422545 108.303212 
L 74.189636 108.303212 
L 78.956727 108.303212 
L 83.723818 108.303212 
L 88.490909 108.303212 
L 93.258 108.303212 
L 98.025091 108.303212 
L 102.792182 108.303212 
L 107.559273 108.303212 
L 112.326364 108.303212 
L 117.093455 108.303212 
L 121.860545 108.303212 
L 126.627636 108.303212 
L 131.394727 108.303212 
L 136.161818 108.303212 
L 140.928909 108.303212 
L 145.696 108.303212 
L 150.463091 108.303212 
L 155.230182 108.303212 
L 159.997273 108.303212 
L 164.764364 108.303212 
L 169.531455 108.303212 
L 174.298545 108.303212 
L 179.065636 108.303212 
L 183.832727 108.303212 
L 188.599818 108.303212 
L 193.366909 108.303212 
L 198.134 108.303212 
L 202.901091 108.303212 
L 207.668182 108.303212 
L 212.435273 108.303212 
L 217.202364 108.303212 
L 221.969455 108.303212 
L 226.736545 108.303212 
L 231.503636 108.303212 
L 236.270727 108.303212 
L 241.037818 108.303212 
L 245.804909 108.303212 
L 250.572 108.303212 
L 255.339091 108.303212 
L 260.106182 108.303212 
L 264.873273 108.303212 
L 269.640364 108.303212 
L 274.407455 108.303212 
L 279.174545 108.303212 
L 283.941636 108.303212 
L 288.708727 108.303212 
L 293.475818 108.303212 
L 298.242909 108.303212 
L 303.01 108.303212 
L 307.777091 108.303212 
L 312.544182 108.303212 
L 317.311273 108.303212 
L 322.078364 108.303212 
L 326.845455 108.303212 
L 331.612545 108.303212 
L 336.379636 108.303212 
L 341.146727 108.303212 
L 345.913818 108.303212 
L 350.680909 108.303212 
L 355.448 108.303212 
L 360.215091 108.303212 
L 364.982182 108.303212 
L 369.749273 108.303212 
L 374.516364 108.303212 
L 379.283455 108.303212 
L 384.050545 108.303212 
L 388.817636 108.303212 
L 393.584727 108.303212 
L 398.351818 108.303212 
L 403.118909 108.303212 
L 407.886 108.303212 
L 412.653091 108.303212 
L 417.420182 108.303212 
L 422.187273 108.303212 
L 426.954364 108.303212 
L 431.721455 108.303212 
L 436.488545 108.303212 
L 441.255636 108.303212 
L 446.022727 108.303212 
L 450.789818 108.303212 
L 455.556909 108.303212 
L 460.324 108.303212 
L 465.091091 108.303212 
L 469.858182 108.303212 
L 474.625273 108.303212 
L 479.392364 108.303212 
L 484.159455 108.303212 
L 488.926545 108.303212 
L 493.693636 108.303212 
L 498.460727 108.303212 
L 503.227818 108.303212 
L 507.994909 108.303212 
L 512.762 108.303212 
L 517.529091 108.303212 
L 522.296182 108.303212 
L 527.063273 108.303212 
L 531.830364 108.303212 
L 536.597455 108.303212 
L 541.364545 108.303212 
" clip-path="url(#pe40062242b)" style="fill: none; stroke: #8c564b; stroke-width: 1.5; stroke-linecap: square"/>
   </g>
   <g id="line2d_37">
    <path d="M 64.655455 118.266428 
L 69.422545 118.266428 
L 74.189636 118.266428 
L 78.956727 118.266428 
L 83.723818 118.266428 
L 88.490909 118.266428 
L 93.258 118.266428 
L 98.025091 118.266428 
L 102.792182 118.266428 
L 107.559273 118.266428 
L 112.326364 118.266428 
L 117.093455 118.266428 
L 121.860545 118.266428 
L 126.627636 118.266428 
L 131.394727 118.266428 
L 136.161818 118.266428 
L 140.928909 118.266428 
L 145.696 118.266428 
L 150.463091 118.266428 
L 155.230182 118.266428 
L 159.997273 118.266428 
L 164.764364 118.266428 
L 169.531455 118.266428 
L 174.298545 118.266428 
L 179.065636 118.266428 
L 183.832727 118.266428 
L 188.599818 118.266428 
L 193.366909 118.266428 
L 198.134 118.266428 
L 202.901091 118.266428 
L 207.668182 118.266428 
L 212.435273 118.266428 
L 217.202364 118.266428 
L 221.969455 118.266428 
L 226.736545 118.266428 
L 231.503636 118.266428 
L 236.270727 118.266428 
L 241.037818 118.266428 
L 245.804909 118.266428 
L 250.572 118.266428 
L 255.339091 118.266428 
L 260.106182 118.266428 
L 264.873273 118.266428 
L 269.640364 118.266428 
L 274.407455 118.266428 
L 279.174545 118.266428 
L 283.941636 118.266428 
L 288.708727 118.266428 
L 293.475818 118.266428 
L 298.242909 118.266428 
L 303.01 118.266428 
L 307.777091 118.266428 
L 312.544182 118.266428 
L 317.311273 118.266428 
L 322.078364 118.266428 
L 326.845455 118.266428 
L 331.612545 118.266428 
L 336.379636 118.266428 
L 341.146727 118.266428 
L 345.913818 118.266428 
L 350.680909 118.266428 
L 355.448 118.266428 
L 360.215091 118.266428 
L 364.982182 118.266428 
L 369.749273 118.266428 
L 374.516364 118.266428 
L 379.283455 118.266428 
L 384.050545 118.266428 
L 388.817636 118.266428 
L 393.584727 118.266428 
L 398.351818 118.266428 
L 403.118909 118.266428 
L 407.886 118.266428 
L 412.653091 118.266428 
L 417.420182 118.266428 
L 422.187273 118.266428 
L 426.954364 118.266428 
L 431.721455 118.266428 
L 436.488545 118.266428 
L 441.255636 118.266428 
L 446.022727 118.266428 
L 450.789818 118.266428 
L 455.556909 118.266428 
L 460.324 118.266428 
L 465.091091 118.266428 
L 469.858182 118.266428 
L 474.625273 118.266428 
L 479.392364 118.266428 
L 484.159455 118.266428 
L 488.926545 118.266428 
L 493.693636 118.266428 
L 498.460727 118.266428 
L 503.227818 118.266428 
L 507.994909 118.266428 
L 512.762 118.266428 
L 517.529091 118.266428 
L 522.296182 118.266428 
L 527.063273 118.266428 
L 531.830364 118.266428 
L 536.597455 118.266428 
L 541.364545 118.266428 
" clip-path="url(#pe40062242b)" style="fill: none; stroke: #e377c2; stroke-width: 1.5; stroke-linecap: square"/>
   </g>
   <g id="line2d_38">
    <path d="M 64.655455 135.151704 
L 69.422545 135.151704 
L 74.189636 135.151704 
L 78.956727 135.151704 
L 83.723818 135.151704 
L 88.490909 135.151704 
L 93.258 135.151704 
L 98.025091 135.151704 
L 102.792182 135.151704 
L 107.559273 135.151704 
L 112.326364 135.151704 
L 117.093455 135.151704 
L 121.860545 135.151704 
L 126.627636 135.151704 
L 131.394727 135.151704 
L 136.161818 135.151704 
L 140.928909 135.151704 
L 145.696 135.151704 
L 150.463091 135.151704 
L 155.230182 135.151704 
L 159.997273 135.151704 
L 164.764364 135.151704 
L 169.531455 135.151704 
L 174.298545 135.151704 
L 179.065636 135.151704 
L 183.832727 135.151704 
L 188.599818 135.151704 
L 193.366909 135.151704 
L 198.134 135.151704 
L 202.901091 135.151704 
L 207.668182 135.151704 
L 212.435273 135.151704 
L 217.202364 135.151704 
L 221.969455 135.151704 
L 226.736545 135.151704 
L 231.503636 135.151704 
L 236.270727 135.151704 
L 241.037818 135.151704 
L 245.804909 135.151704 
L 250.572 135.151704 
L 255.339091 135.151704 
L 260.106182 135.151704 
L 264.873273 135.151704 
L 269.640364 135.151704 
L 274.407455 135.151704 
L 279.174545 135.151704 
L 283.941636 135.151704 
L 288.708727 135.151704 
L 293.475818 135.151704 
L 298.242909 135.151704 
L 303.01 135.151704 
L 307.777091 135.151704 
L 312.544182 135.151704 
L 317.311273 135.151704 
L 322.078364 135.151704 
L 326.845455 135.151704 
L 331.612545 135.151704 
L 336.379636 135.151704 
L 341.146727 135.151704 
L 345.913818 135.151704 
L 350.680909 135.151704 
L 355.448 135.151704 
L 360.215091 135.151704 
L 364.982182 135.151704 
L 369.749273 135.151704 
L 374.516364 135.151704 
L 379.283455 135.151704 
L 384.050545 135.151704 
L 388.817636 135.151704 
L 393.584727 135.151704 
L 398.351818 135.151704 
L 403.118909 135.151704 
L 407.886 135.151704 
L 412.653091 135.151704 
L 417.420182 135.151704 
L 422.187273 135.151704 
L 426.954364 135.151704 
L 431.721455 135.151704 
L 436.488545 135.151704 
L 441.255636 135.151704 
L 446.022727 135.151704 
L 450.789818 135.151704 
L 455.556909 135.151704 
L 460.324 135.151704 
L 465.091091 135.151704 
L 469.858182 135.151704 
L 474.625273 135.151704 
L 479.392364 135.151704 
L 484.159455 135.151704 
L 488.926545 135.151704 
L 493.693636 135.151704 
L 498.460727 135.151704 
L 503.227818 135.151704 
L 507.994909 135.151704 
L 512.762 135.151704 
L 517.529091 135.151704 
L 522.296182 135.151704 
L 527.063273 135.151704 
L 531.830364 135.151704 
L 536.597455 135.151704 
L 541.364545 135.151704 
" clip-path="url(#pe40062242b)" style="fill: none; stroke: #7f7f7f; stroke-width: 1.5; stroke-linecap: square"/>
   </g>
   <g id="line2d_39">
    <path d="M 64.655455 107.037125 
L 69.422545 107.037125 
L 74.189636 107.037125 
L 78.956727 107.037125 
L 83.723818 107.037125 
L 88.490909 107.037125 
L 93.258 107.037125 
L 98.025091 107.037125 
L 102.792182 107.037125 
L 107.559273 107.037125 
L 112.326364 107.037125 
L 117.093455 107.037125 
L 121.860545 107.037125 
L 126.627636 107.037125 
L 131.394727 107.037125 
L 136.161818 107.037125 
L 140.928909 107.037125 
L 145.696 107.037125 
L 150.463091 107.037125 
L 155.230182 107.037125 
L 159.997273 107.037125 
L 164.764364 107.037125 
L 169.531455 107.037125 
L 174.298545 107.037125 
L 179.065636 107.037125 
L 183.832727 107.037125 
L 188.599818 107.037125 
L 193.366909 107.037125 
L 198.134 107.037125 
L 202.901091 107.037125 
L 207.668182 107.037125 
L 212.435273 107.037125 
L 217.202364 107.037125 
L 221.969455 107.037125 
L 226.736545 107.037125 
L 231.503636 107.037125 
L 236.270727 107.037125 
L 241.037818 107.037125 
L 245.804909 107.037125 
L 250.572 107.037125 
L 255.339091 107.037125 
L 260.106182 107.037125 
L 264.873273 107.037125 
L 269.640364 107.037125 
L 274.407455 107.037125 
L 279.174545 107.037125 
L 283.941636 107.037125 
L 288.708727 107.037125 
L 293.475818 107.037125 
L 298.242909 107.037125 
L 303.01 107.037125 
L 307.777091 107.037125 
L 312.544182 107.037125 
L 317.311273 107.037125 
L 322.078364 107.037125 
L 326.845455 107.037125 
L 331.612545 107.037125 
L 336.379636 107.037125 
L 341.146727 107.037125 
L 345.913818 107.037125 
L 350.680909 107.037125 
L 355.448 107.037125 
L 360.215091 107.037125 
L 364.982182 107.037125 
L 369.749273 107.037125 
L 374.516364 107.037125 
L 379.283455 107.037125 
L 384.050545 107.037125 
L 388.817636 107.037125 
L 393.584727 107.037125 
L 398.351818 107.037125 
L 403.118909 107.037125 
L 407.886 107.037125 
L 412.653091 107.037125 
L 417.420182 107.037125 
L 422.187273 107.037125 
L 426.954364 107.037125 
L 431.721455 107.037125 
L 436.488545 107.037125 
L 441.255636 107.037125 
L 446.022727 107.037125 
L 450.789818 107.037125 
L 455.556909 107.037125 
L 460.324 107.037125 
L 465.091091 107.037125 
L 469.858182 107.037125 
L 474.625273 107.037125 
L 479.392364 107.037125 
L 484.159455 107.037125 
L 488.926545 107.037125 
L 493.693636 107.037125 
L 498.460727 107.037125 
L 503.227818 107.037125 
L 507.994909 107.037125 
L 512.762 107.037125 
L 517.529091 107.037125 
L 522.296182 107.037125 
L 527.063273 107.037125 
L 531.830364 107.037125 
L 536.597455 107.037125 
L 541.364545 107.037125 
" clip-path="url(#pe40062242b)" style="fill: none; stroke: #bcbd22; stroke-width: 1.5; stroke-linecap: square"/>
   </g>
   <g id="line2d_40">
    <path d="M 64.655455 136.735122 
L 69.422545 136.735122 
L 74.189636 136.735122 
L 78.956727 136.735122 
L 83.723818 136.735122 
L 88.490909 136.735122 
L 93.258 136.735122 
L 98.025091 136.735122 
L 102.792182 136.735122 
L 107.559273 136.735122 
L 112.326364 136.735122 
L 117.093455 136.735122 
L 121.860545 136.735122 
L 126.627636 136.735122 
L 131.394727 136.735122 
L 136.161818 136.735122 
L 140.928909 136.735122 
L 145.696 136.735122 
L 150.463091 136.735122 
L 155.230182 136.735122 
L 159.997273 136.735122 
L 164.764364 136.735122 
L 169.531455 136.735122 
L 174.298545 136.735122 
L 179.065636 136.735122 
L 183.832727 136.735122 
L 188.599818 136.735122 
L 193.366909 136.735122 
L 198.134 136.735122 
L 202.901091 136.735122 
L 207.668182 136.735122 
L 212.435273 136.735122 
L 217.202364 136.735122 
L 221.969455 136.735122 
L 226.736545 136.735122 
L 231.503636 136.735122 
L 236.270727 136.735122 
L 241.037818 136.735122 
L 245.804909 136.735122 
L 250.572 136.735122 
L 255.339091 136.735122 
L 260.106182 136.735122 
L 264.873273 136.735122 
L 269.640364 136.735122 
L 274.407455 136.735122 
L 279.174545 136.735122 
L 283.941636 136.735122 
L 288.708727 136.735122 
L 293.475818 136.735122 
L 298.242909 136.735122 
L 303.01 136.735122 
L 307.777091 136.735122 
L 312.544182 136.735122 
L 317.311273 136.735122 
L 322.078364 136.735122 
L 326.845455 136.735122 
L 331.612545 136.735122 
L 336.379636 136.735122 
L 341.146727 136.735122 
L 345.913818 136.735122 
L 350.680909 136.735122 
L 355.448 136.735122 
L 360.215091 136.735122 
L 364.982182 136.735122 
L 369.749273 136.735122 
L 374.516364 136.735122 
L 379.283455 136.735122 
L 384.050545 136.735122 
L 388.817636 136.735122 
L 393.584727 136.735122 
L 398.351818 136.735122 
L 403.118909 136.735122 
L 407.886 136.735122 
L 412.653091 136.735122 
L 417.420182 136.735122 
L 422.187273 136.735122 
L 426.954364 136.735122 
L 431.721455 136.735122 
L 436.488545 136.735122 
L 441.255636 136.735122 
L 446.022727 136.735122 
L 450.789818 136.735122 
L 455.556909 136.735122 
L 460.324 136.735122 
L 465.091091 136.735122 
L 469.858182 136.735122 
L 474.625273 136.735122 
L 479.392364 136.735122 
L 484.159455 136.735122 
L 488.926545 136.735122 
L 493.693636 136.735122 
L 498.460727 136.735122 
L 503.227818 136.735122 
L 507.994909 136.735122 
L 512.762 136.735122 
L 517.529091 136.735122 
L 522.296182 136.735122 
L 527.063273 136.735122 
L 531.830364 136.735122 
L 536.597455 136.735122 
L 541.364545 136.735122 
" clip-path="url(#pe40062242b)" style="fill: none; stroke: #17becf; stroke-width: 1.5; stroke-linecap: square"/>
   </g>
   <g id="patch_3">
    <path d="M 40.82 248.2 
L 40.82 10.8 
" style="fill: none; stroke: #000000; stroke-width: 0.8; stroke-linejoin: miter; stroke-linecap: square"/>
   </g>
   <g id="patch_4">
    <path d="M 565.2 248.2 
L 565.2 10.8 
" style="fill: none; stroke: #000000; stroke-width: 0.8; stroke-linejoin: miter; stroke-linecap: square"/>
   </g>
   <g id="patch_5">
    <path d="M 40.82 248.2 
L 565.2 248.2 
" style="fill: none; stroke: #000000; stroke-width: 0.8; stroke-linejoin: miter; stroke-linecap: square"/>
   </g>
   <g id="patch_6">
    <path d="M 40.82 10.8 
L 565.2 10.8 
" style="fill: none; stroke: #000000; stroke-width: 0.8; stroke-linejoin: miter; stroke-linecap: square"/>
   </g>
  </g>
 </g>
 <defs>
  <clipPath id="pe40062242b">
   <rect x="40.82" y="10.8" width="524.38" height="237.4"/>
  </clipPath>
 </defs>
</svg>
