<?xml version="1.0" encoding="utf-8" standalone="no"?>
<!DOCTYPE svg PUBLIC "-//W3C//DTD SVG 1.1//EN"
  "http://www.w3.org/Graphics/SVG/1.1/DTD/svg11.dtd">
<svg xmlns:xlink="http://www.w3.org/1999/xlink" width="576pt" height="288pt" viewBox="0 0 576 288" xmlns="http://www.w3.org/2000/svg" version="1.1">
 <metadata>
  <rdf:RDF xmlns:dc="http://purl.org/dc/elements/1.1/" xmlns:cc="http://creativecommons.org/ns#" xmlns:rdf="http://www.w3.org/1999/02/22-rdf-syntax-ns#">
   <cc:Work>
    <dc:type rdf:resource="http://purl.org/dc/dcmitype/StillImage"/>
    <dc:date>2024-04-14T21:54:34.136440</dc:date>
    <dc:format>image/svg+xml</dc:format>
    <dc:creator>
     <cc:Agent>
      <dc:title>Matplotlib v3.7.1, https://matplotlib.org/</dc:title>
     </cc:Agent>
    </dc:creator>
   </cc:Work>
  </rdf:RDF>
 </metadata>
 <defs>
  <style type="text/css">*{stroke-linejoin: round; stroke-linecap: butt}</style>
 </defs>
 <g id="figure_1">
  <g id="patch_1">
   <path d="M 0 288 
L 576 288 
L 576 0 
L 0 0 
z
" style="fill: #ffffff"/>
  </g>
  <g id="axes_1">
   <g id="patch_2">
    <path d="M 40.82 248.2 
L 565.2 248.2 
L 565.2 10.8 
L 40.82 10.8 
z
" style="fill: #ffffff"/>
   </g>
   <g id="matplotlib.axis_1">
    <g id="xtick_1">
     <g id="line2d_1">
      <defs>
       <path id="md03efaa549" d="M 0 0 
L 0 3.5 
" style="stroke: #000000; stroke-width: 0.8"/>
      </defs>
      <g>
       <use xlink:href="#md03efaa549" x="64.655455" y="248.2" style="stroke: #000000; stroke-width: 0.8"/>
      </g>
     </g>
     <g id="text_1">
      <!-- 0 -->
      <g transform="translate(62.155455 262.14375) scale(0.1 -0.1)">
       <defs>
        <path id="TimesNewRomanPSMT-30" d="M 231 2094 
Q 231 2819 450 3342 
Q 669 3866 1031 4122 
Q 1313 4325 1613 4325 
Q 2100 4325 2488 3828 
Q 2972 3213 2972 2159 
Q 2972 1422 2759 906 
Q 2547 391 2217 158 
Q 1888 -75 1581 -75 
Q 975 -75 572 641 
Q 231 1244 231 2094 
z
M 844 2016 
Q 844 1141 1059 588 
Q 1238 122 1591 122 
Q 1759 122 1940 273 
Q 2122 425 2216 781 
Q 2359 1319 2359 2297 
Q 2359 3022 2209 3506 
Q 2097 3866 1919 4016 
Q 1791 4119 1609 4119 
Q 1397 4119 1231 3928 
Q 1006 3669 925 3112 
Q 844 2556 844 2016 
z
" transform="scale(0.015625)"/>
       </defs>
       <use xlink:href="#TimesNewRomanPSMT-30"/>
      </g>
     </g>
    </g>
    <g id="xtick_2">
     <g id="line2d_2">
      <g>
       <use xlink:href="#md03efaa549" x="159.997273" y="248.2" style="stroke: #000000; stroke-width: 0.8"/>
      </g>
     </g>
     <g id="text_2">
      <!-- 20 -->
      <g transform="translate(154.997273 262.14375) scale(0.1 -0.1)">
       <defs>
        <path id="TimesNewRomanPSMT-32" d="M 2934 816 
L 2638 0 
L 138 0 
L 138 116 
Q 1241 1122 1691 1759 
Q 2141 2397 2141 2925 
Q 2141 3328 1894 3587 
Q 1647 3847 1303 3847 
Q 991 3847 742 3664 
Q 494 3481 375 3128 
L 259 3128 
Q 338 3706 661 4015 
Q 984 4325 1469 4325 
Q 1984 4325 2329 3994 
Q 2675 3663 2675 3213 
Q 2675 2891 2525 2569 
Q 2294 2063 1775 1497 
Q 997 647 803 472 
L 1909 472 
Q 2247 472 2383 497 
Q 2519 522 2628 598 
Q 2738 675 2819 816 
L 2934 816 
z
" transform="scale(0.015625)"/>
       </defs>
       <use xlink:href="#TimesNewRomanPSMT-32"/>
       <use xlink:href="#TimesNewRomanPSMT-30" x="50"/>
      </g>
     </g>
    </g>
    <g id="xtick_3">
     <g id="line2d_3">
      <g>
       <use xlink:href="#md03efaa549" x="255.339091" y="248.2" style="stroke: #000000; stroke-width: 0.8"/>
      </g>
     </g>
     <g id="text_3">
      <!-- 40 -->
      <g transform="translate(250.339091 262.14375) scale(0.1 -0.1)">
       <defs>
        <path id="TimesNewRomanPSMT-34" d="M 2978 1563 
L 2978 1119 
L 2409 1119 
L 2409 0 
L 1894 0 
L 1894 1119 
L 100 1119 
L 100 1519 
L 2066 4325 
L 2409 4325 
L 2409 1563 
L 2978 1563 
z
M 1894 1563 
L 1894 3666 
L 406 1563 
L 1894 1563 
z
" transform="scale(0.015625)"/>
       </defs>
       <use xlink:href="#TimesNewRomanPSMT-34"/>
       <use xlink:href="#TimesNewRomanPSMT-30" x="50"/>
      </g>
     </g>
    </g>
    <g id="xtick_4">
     <g id="line2d_4">
      <g>
       <use xlink:href="#md03efaa549" x="350.680909" y="248.2" style="stroke: #000000; stroke-width: 0.8"/>
      </g>
     </g>
     <g id="text_4">
      <!-- 60 -->
      <g transform="translate(345.680909 262.14375) scale(0.1 -0.1)">
       <defs>
        <path id="TimesNewRomanPSMT-36" d="M 2869 4325 
L 2869 4209 
Q 2456 4169 2195 4045 
Q 1934 3922 1679 3669 
Q 1425 3416 1258 3105 
Q 1091 2794 978 2366 
Q 1428 2675 1881 2675 
Q 2316 2675 2634 2325 
Q 2953 1975 2953 1425 
Q 2953 894 2631 456 
Q 2244 -75 1606 -75 
Q 1172 -75 869 213 
Q 275 772 275 1663 
Q 275 2231 503 2743 
Q 731 3256 1154 3653 
Q 1578 4050 1965 4187 
Q 2353 4325 2688 4325 
L 2869 4325 
z
M 925 2138 
Q 869 1716 869 1456 
Q 869 1156 980 804 
Q 1091 453 1309 247 
Q 1469 100 1697 100 
Q 1969 100 2183 356 
Q 2397 613 2397 1088 
Q 2397 1622 2184 2012 
Q 1972 2403 1581 2403 
Q 1463 2403 1327 2353 
Q 1191 2303 925 2138 
z
" transform="scale(0.015625)"/>
       </defs>
       <use xlink:href="#TimesNewRomanPSMT-36"/>
       <use xlink:href="#TimesNewRomanPSMT-30" x="50"/>
      </g>
     </g>
    </g>
    <g id="xtick_5">
     <g id="line2d_5">
      <g>
       <use xlink:href="#md03efaa549" x="446.022727" y="248.2" style="stroke: #000000; stroke-width: 0.8"/>
      </g>
     </g>
     <g id="text_5">
      <!-- 80 -->
      <g transform="translate(441.022727 262.14375) scale(0.1 -0.1)">
       <defs>
        <path id="TimesNewRomanPSMT-38" d="M 1228 2134 
Q 725 2547 579 2797 
Q 434 3047 434 3316 
Q 434 3728 753 4026 
Q 1072 4325 1600 4325 
Q 2113 4325 2425 4047 
Q 2738 3769 2738 3413 
Q 2738 3175 2569 2928 
Q 2400 2681 1866 2347 
Q 2416 1922 2594 1678 
Q 2831 1359 2831 1006 
Q 2831 559 2490 242 
Q 2150 -75 1597 -75 
Q 994 -75 656 303 
Q 388 606 388 966 
Q 388 1247 577 1523 
Q 766 1800 1228 2134 
z
M 1719 2469 
Q 2094 2806 2194 3001 
Q 2294 3197 2294 3444 
Q 2294 3772 2109 3958 
Q 1925 4144 1606 4144 
Q 1288 4144 1088 3959 
Q 888 3775 888 3528 
Q 888 3366 970 3203 
Q 1053 3041 1206 2894 
L 1719 2469 
z
M 1375 2016 
Q 1116 1797 991 1539 
Q 866 1281 866 981 
Q 866 578 1086 336 
Q 1306 94 1647 94 
Q 1984 94 2187 284 
Q 2391 475 2391 747 
Q 2391 972 2272 1150 
Q 2050 1481 1375 2016 
z
" transform="scale(0.015625)"/>
       </defs>
       <use xlink:href="#TimesNewRomanPSMT-38"/>
       <use xlink:href="#TimesNewRomanPSMT-30" x="50"/>
      </g>
     </g>
    </g>
    <g id="xtick_6">
     <g id="line2d_6">
      <g>
       <use xlink:href="#md03efaa549" x="541.364545" y="248.2" style="stroke: #000000; stroke-width: 0.8"/>
      </g>
     </g>
     <g id="text_6">
      <!-- 100 -->
      <g transform="translate(533.864545 262.14375) scale(0.1 -0.1)">
       <defs>
        <path id="TimesNewRomanPSMT-31" d="M 750 3822 
L 1781 4325 
L 1884 4325 
L 1884 747 
Q 1884 391 1914 303 
Q 1944 216 2037 169 
Q 2131 122 2419 116 
L 2419 0 
L 825 0 
L 825 116 
Q 1125 122 1212 167 
Q 1300 213 1334 289 
Q 1369 366 1369 747 
L 1369 3034 
Q 1369 3497 1338 3628 
Q 1316 3728 1258 3775 
Q 1200 3822 1119 3822 
Q 1003 3822 797 3725 
L 750 3822 
z
" transform="scale(0.015625)"/>
       </defs>
       <use xlink:href="#TimesNewRomanPSMT-31"/>
       <use xlink:href="#TimesNewRomanPSMT-30" x="50"/>
       <use xlink:href="#TimesNewRomanPSMT-30" x="100"/>
      </g>
     </g>
    </g>
    <g id="text_7">
     <!-- generation -->
     <g transform="translate(281.908437 275.226562) scale(0.1 -0.1)">
      <defs>
       <path id="TimesNewRomanPSMT-67" d="M 966 1044 
Q 703 1172 562 1401 
Q 422 1631 422 1909 
Q 422 2334 742 2640 
Q 1063 2947 1563 2947 
Q 1972 2947 2272 2747 
L 2878 2747 
Q 3013 2747 3034 2739 
Q 3056 2731 3066 2713 
Q 3084 2684 3084 2613 
Q 3084 2531 3069 2500 
Q 3059 2484 3036 2475 
Q 3013 2466 2878 2466 
L 2506 2466 
Q 2681 2241 2681 1891 
Q 2681 1491 2375 1206 
Q 2069 922 1553 922 
Q 1341 922 1119 984 
Q 981 866 932 777 
Q 884 688 884 625 
Q 884 572 936 522 
Q 988 472 1138 450 
Q 1225 438 1575 428 
Q 2219 413 2409 384 
Q 2700 344 2873 169 
Q 3047 -6 3047 -263 
Q 3047 -616 2716 -925 
Q 2228 -1381 1444 -1381 
Q 841 -1381 425 -1109 
Q 191 -953 191 -784 
Q 191 -709 225 -634 
Q 278 -519 444 -313 
Q 466 -284 763 25 
Q 600 122 533 198 
Q 466 275 466 372 
Q 466 481 555 628 
Q 644 775 966 1044 
z
M 1509 2797 
Q 1278 2797 1122 2612 
Q 966 2428 966 2047 
Q 966 1553 1178 1281 
Q 1341 1075 1591 1075 
Q 1828 1075 1981 1253 
Q 2134 1431 2134 1813 
Q 2134 2309 1919 2591 
Q 1759 2797 1509 2797 
z
M 934 0 
Q 788 -159 713 -296 
Q 638 -434 638 -550 
Q 638 -700 819 -813 
Q 1131 -1006 1722 -1006 
Q 2284 -1006 2551 -807 
Q 2819 -609 2819 -384 
Q 2819 -222 2659 -153 
Q 2497 -84 2016 -72 
Q 1313 -53 934 0 
z
" transform="scale(0.015625)"/>
       <path id="TimesNewRomanPSMT-65" d="M 681 1784 
Q 678 1147 991 784 
Q 1303 422 1725 422 
Q 2006 422 2214 576 
Q 2422 731 2563 1106 
L 2659 1044 
Q 2594 616 2278 264 
Q 1963 -88 1488 -88 
Q 972 -88 605 314 
Q 238 716 238 1394 
Q 238 2128 614 2539 
Q 991 2950 1559 2950 
Q 2041 2950 2350 2633 
Q 2659 2316 2659 1784 
L 681 1784 
z
M 681 1966 
L 2006 1966 
Q 1991 2241 1941 2353 
Q 1863 2528 1708 2628 
Q 1553 2728 1384 2728 
Q 1125 2728 920 2526 
Q 716 2325 681 1966 
z
" transform="scale(0.015625)"/>
       <path id="TimesNewRomanPSMT-6e" d="M 1034 2341 
Q 1538 2947 1994 2947 
Q 2228 2947 2397 2830 
Q 2566 2713 2666 2444 
Q 2734 2256 2734 1869 
L 2734 647 
Q 2734 375 2778 278 
Q 2813 200 2889 156 
Q 2966 113 3172 113 
L 3172 0 
L 1756 0 
L 1756 113 
L 1816 113 
Q 2016 113 2095 173 
Q 2175 234 2206 353 
Q 2219 400 2219 647 
L 2219 1819 
Q 2219 2209 2117 2386 
Q 2016 2563 1775 2563 
Q 1403 2563 1034 2156 
L 1034 647 
Q 1034 356 1069 288 
Q 1113 197 1189 155 
Q 1266 113 1500 113 
L 1500 0 
L 84 0 
L 84 113 
L 147 113 
Q 366 113 442 223 
Q 519 334 519 647 
L 519 1709 
Q 519 2225 495 2337 
Q 472 2450 423 2490 
Q 375 2531 294 2531 
Q 206 2531 84 2484 
L 38 2597 
L 900 2947 
L 1034 2947 
L 1034 2341 
z
" transform="scale(0.015625)"/>
       <path id="TimesNewRomanPSMT-72" d="M 1038 2947 
L 1038 2303 
Q 1397 2947 1775 2947 
Q 1947 2947 2059 2842 
Q 2172 2738 2172 2600 
Q 2172 2478 2090 2393 
Q 2009 2309 1897 2309 
Q 1788 2309 1652 2417 
Q 1516 2525 1450 2525 
Q 1394 2525 1328 2463 
Q 1188 2334 1038 2041 
L 1038 669 
Q 1038 431 1097 309 
Q 1138 225 1241 169 
Q 1344 113 1538 113 
L 1538 0 
L 72 0 
L 72 113 
Q 291 113 397 181 
Q 475 231 506 341 
Q 522 394 522 644 
L 522 1753 
Q 522 2253 501 2348 
Q 481 2444 426 2487 
Q 372 2531 291 2531 
Q 194 2531 72 2484 
L 41 2597 
L 906 2947 
L 1038 2947 
z
" transform="scale(0.015625)"/>
       <path id="TimesNewRomanPSMT-61" d="M 1822 413 
Q 1381 72 1269 19 
Q 1100 -59 909 -59 
Q 613 -59 420 144 
Q 228 347 228 678 
Q 228 888 322 1041 
Q 450 1253 767 1440 
Q 1084 1628 1822 1897 
L 1822 2009 
Q 1822 2438 1686 2597 
Q 1550 2756 1291 2756 
Q 1094 2756 978 2650 
Q 859 2544 859 2406 
L 866 2225 
Q 866 2081 792 2003 
Q 719 1925 600 1925 
Q 484 1925 411 2006 
Q 338 2088 338 2228 
Q 338 2497 613 2722 
Q 888 2947 1384 2947 
Q 1766 2947 2009 2819 
Q 2194 2722 2281 2516 
Q 2338 2381 2338 1966 
L 2338 994 
Q 2338 584 2353 492 
Q 2369 400 2405 369 
Q 2441 338 2488 338 
Q 2538 338 2575 359 
Q 2641 400 2828 588 
L 2828 413 
Q 2478 -56 2159 -56 
Q 2006 -56 1915 50 
Q 1825 156 1822 413 
z
M 1822 616 
L 1822 1706 
Q 1350 1519 1213 1441 
Q 966 1303 859 1153 
Q 753 1003 753 825 
Q 753 600 887 451 
Q 1022 303 1197 303 
Q 1434 303 1822 616 
z
" transform="scale(0.015625)"/>
       <path id="TimesNewRomanPSMT-74" d="M 1031 3803 
L 1031 2863 
L 1700 2863 
L 1700 2644 
L 1031 2644 
L 1031 788 
Q 1031 509 1111 412 
Q 1191 316 1316 316 
Q 1419 316 1516 380 
Q 1613 444 1666 569 
L 1788 569 
Q 1678 263 1478 108 
Q 1278 -47 1066 -47 
Q 922 -47 784 33 
Q 647 113 581 261 
Q 516 409 516 719 
L 516 2644 
L 63 2644 
L 63 2747 
Q 234 2816 414 2980 
Q 594 3144 734 3369 
Q 806 3488 934 3803 
L 1031 3803 
z
" transform="scale(0.015625)"/>
       <path id="TimesNewRomanPSMT-69" d="M 928 4444 
Q 1059 4444 1151 4351 
Q 1244 4259 1244 4128 
Q 1244 3997 1151 3903 
Q 1059 3809 928 3809 
Q 797 3809 703 3903 
Q 609 3997 609 4128 
Q 609 4259 701 4351 
Q 794 4444 928 4444 
z
M 1188 2947 
L 1188 647 
Q 1188 378 1227 289 
Q 1266 200 1342 156 
Q 1419 113 1622 113 
L 1622 0 
L 231 0 
L 231 113 
Q 441 113 512 153 
Q 584 194 626 287 
Q 669 381 669 647 
L 669 1750 
Q 669 2216 641 2353 
Q 619 2453 572 2492 
Q 525 2531 444 2531 
Q 356 2531 231 2484 
L 188 2597 
L 1050 2947 
L 1188 2947 
z
" transform="scale(0.015625)"/>
       <path id="TimesNewRomanPSMT-6f" d="M 1600 2947 
Q 2250 2947 2644 2453 
Q 2978 2031 2978 1484 
Q 2978 1100 2793 706 
Q 2609 313 2286 112 
Q 1963 -88 1566 -88 
Q 919 -88 538 428 
Q 216 863 216 1403 
Q 216 1797 411 2186 
Q 606 2575 925 2761 
Q 1244 2947 1600 2947 
z
M 1503 2744 
Q 1338 2744 1170 2645 
Q 1003 2547 900 2300 
Q 797 2053 797 1666 
Q 797 1041 1045 587 
Q 1294 134 1700 134 
Q 2003 134 2200 384 
Q 2397 634 2397 1244 
Q 2397 2006 2069 2444 
Q 1847 2744 1503 2744 
z
" transform="scale(0.015625)"/>
      </defs>
      <use xlink:href="#TimesNewRomanPSMT-67"/>
      <use xlink:href="#TimesNewRomanPSMT-65" x="50"/>
      <use xlink:href="#TimesNewRomanPSMT-6e" x="94.384766"/>
      <use xlink:href="#TimesNewRomanPSMT-65" x="144.384766"/>
      <use xlink:href="#TimesNewRomanPSMT-72" x="188.769531"/>
      <use xlink:href="#TimesNewRomanPSMT-61" x="222.070312"/>
      <use xlink:href="#TimesNewRomanPSMT-74" x="266.455078"/>
      <use xlink:href="#TimesNewRomanPSMT-69" x="294.238281"/>
      <use xlink:href="#TimesNewRomanPSMT-6f" x="322.021484"/>
      <use xlink:href="#TimesNewRomanPSMT-6e" x="372.021484"/>
     </g>
    </g>
   </g>
   <g id="matplotlib.axis_2">
    <g id="ytick_1">
     <g id="line2d_7">
      <path d="M 40.82 248.2 
L 565.2 248.2 
" clip-path="url(#pce029a878e)" style="fill: none; stroke: #b0b0b0; stroke-width: 0.8; stroke-linecap: square"/>
     </g>
     <g id="line2d_8">
      <defs>
       <path id="m2d1df47fb9" d="M 0 0 
L -3.5 0 
" style="stroke: #000000; stroke-width: 0.8"/>
      </defs>
      <g>
       <use xlink:href="#m2d1df47fb9" x="40.82" y="248.2" style="stroke: #000000; stroke-width: 0.8"/>
      </g>
     </g>
     <g id="text_8">
      <!-- 10 -->
      <g transform="translate(23.82 251.671875) scale(0.1 -0.1)">
       <use xlink:href="#TimesNewRomanPSMT-31"/>
       <use xlink:href="#TimesNewRomanPSMT-30" x="50"/>
      </g>
     </g>
    </g>
    <g id="ytick_2">
     <g id="line2d_9">
      <path d="M 40.82 208.633333 
L 565.2 208.633333 
" clip-path="url(#pce029a878e)" style="fill: none; stroke: #b0b0b0; stroke-width: 0.8; stroke-linecap: square"/>
     </g>
     <g id="line2d_10">
      <g>
       <use xlink:href="#m2d1df47fb9" x="40.82" y="208.633333" style="stroke: #000000; stroke-width: 0.8"/>
      </g>
     </g>
     <g id="text_9">
      <!-- 15 -->
      <g transform="translate(23.82 212.105208) scale(0.1 -0.1)">
       <defs>
        <path id="TimesNewRomanPSMT-35" d="M 2778 4238 
L 2534 3706 
L 1259 3706 
L 981 3138 
Q 1809 3016 2294 2522 
Q 2709 2097 2709 1522 
Q 2709 1188 2573 903 
Q 2438 619 2231 419 
Q 2025 219 1772 97 
Q 1413 -75 1034 -75 
Q 653 -75 479 54 
Q 306 184 306 341 
Q 306 428 378 495 
Q 450 563 559 563 
Q 641 563 702 538 
Q 763 513 909 409 
Q 1144 247 1384 247 
Q 1750 247 2026 523 
Q 2303 800 2303 1197 
Q 2303 1581 2056 1914 
Q 1809 2247 1375 2428 
Q 1034 2569 447 2591 
L 1259 4238 
L 2778 4238 
z
" transform="scale(0.015625)"/>
       </defs>
       <use xlink:href="#TimesNewRomanPSMT-31"/>
       <use xlink:href="#TimesNewRomanPSMT-35" x="50"/>
      </g>
     </g>
    </g>
    <g id="ytick_3">
     <g id="line2d_11">
      <path d="M 40.82 169.066667 
L 565.2 169.066667 
" clip-path="url(#pce029a878e)" style="fill: none; stroke: #b0b0b0; stroke-width: 0.8; stroke-linecap: square"/>
     </g>
     <g id="line2d_12">
      <g>
       <use xlink:href="#m2d1df47fb9" x="40.82" y="169.066667" style="stroke: #000000; stroke-width: 0.8"/>
      </g>
     </g>
     <g id="text_10">
      <!-- 20 -->
      <g transform="translate(23.82 172.538542) scale(0.1 -0.1)">
       <use xlink:href="#TimesNewRomanPSMT-32"/>
       <use xlink:href="#TimesNewRomanPSMT-30" x="50"/>
      </g>
     </g>
    </g>
    <g id="ytick_4">
     <g id="line2d_13">
      <path d="M 40.82 129.5 
L 565.2 129.5 
" clip-path="url(#pce029a878e)" style="fill: none; stroke: #b0b0b0; stroke-width: 0.8; stroke-linecap: square"/>
     </g>
     <g id="line2d_14">
      <g>
       <use xlink:href="#m2d1df47fb9" x="40.82" y="129.5" style="stroke: #000000; stroke-width: 0.8"/>
      </g>
     </g>
     <g id="text_11">
      <!-- 25 -->
      <g transform="translate(23.82 132.971875) scale(0.1 -0.1)">
       <use xlink:href="#TimesNewRomanPSMT-32"/>
       <use xlink:href="#TimesNewRomanPSMT-35" x="50"/>
      </g>
     </g>
    </g>
    <g id="ytick_5">
     <g id="line2d_15">
      <path d="M 40.82 89.933333 
L 565.2 89.933333 
" clip-path="url(#pce029a878e)" style="fill: none; stroke: #b0b0b0; stroke-width: 0.8; stroke-linecap: square"/>
     </g>
     <g id="line2d_16">
      <g>
       <use xlink:href="#m2d1df47fb9" x="40.82" y="89.933333" style="stroke: #000000; stroke-width: 0.8"/>
      </g>
     </g>
     <g id="text_12">
      <!-- 30 -->
      <g transform="translate(23.82 93.405208) scale(0.1 -0.1)">
       <defs>
        <path id="TimesNewRomanPSMT-33" d="M 325 3431 
Q 506 3859 782 4092 
Q 1059 4325 1472 4325 
Q 1981 4325 2253 3994 
Q 2459 3747 2459 3466 
Q 2459 3003 1878 2509 
Q 2269 2356 2469 2072 
Q 2669 1788 2669 1403 
Q 2669 853 2319 450 
Q 1863 -75 997 -75 
Q 569 -75 414 31 
Q 259 138 259 259 
Q 259 350 332 419 
Q 406 488 509 488 
Q 588 488 669 463 
Q 722 447 909 348 
Q 1097 250 1169 231 
Q 1284 197 1416 197 
Q 1734 197 1970 444 
Q 2206 691 2206 1028 
Q 2206 1275 2097 1509 
Q 2016 1684 1919 1775 
Q 1784 1900 1550 2001 
Q 1316 2103 1072 2103 
L 972 2103 
L 972 2197 
Q 1219 2228 1467 2375 
Q 1716 2522 1828 2728 
Q 1941 2934 1941 3181 
Q 1941 3503 1739 3701 
Q 1538 3900 1238 3900 
Q 753 3900 428 3381 
L 325 3431 
z
" transform="scale(0.015625)"/>
       </defs>
       <use xlink:href="#TimesNewRomanPSMT-33"/>
       <use xlink:href="#TimesNewRomanPSMT-30" x="50"/>
      </g>
     </g>
    </g>
    <g id="ytick_6">
     <g id="line2d_17">
      <path d="M 40.82 50.366667 
L 565.2 50.366667 
" clip-path="url(#pce029a878e)" style="fill: none; stroke: #b0b0b0; stroke-width: 0.8; stroke-linecap: square"/>
     </g>
     <g id="line2d_18">
      <g>
       <use xlink:href="#m2d1df47fb9" x="40.82" y="50.366667" style="stroke: #000000; stroke-width: 0.8"/>
      </g>
     </g>
     <g id="text_13">
      <!-- 35 -->
      <g transform="translate(23.82 53.838542) scale(0.1 -0.1)">
       <use xlink:href="#TimesNewRomanPSMT-33"/>
       <use xlink:href="#TimesNewRomanPSMT-35" x="50"/>
      </g>
     </g>
    </g>
    <g id="ytick_7">
     <g id="line2d_19">
      <path d="M 40.82 10.8 
L 565.2 10.8 
" clip-path="url(#pce029a878e)" style="fill: none; stroke: #b0b0b0; stroke-width: 0.8; stroke-linecap: square"/>
     </g>
     <g id="line2d_20">
      <g>
       <use xlink:href="#m2d1df47fb9" x="40.82" y="10.8" style="stroke: #000000; stroke-width: 0.8"/>
      </g>
     </g>
     <g id="text_14">
      <!-- 40 -->
      <g transform="translate(23.82 14.271875) scale(0.1 -0.1)">
       <use xlink:href="#TimesNewRomanPSMT-34"/>
       <use xlink:href="#TimesNewRomanPSMT-30" x="50"/>
      </g>
     </g>
    </g>
    <g id="text_15">
     <!-- Total cost -->
     <g transform="translate(17.680937 149.00625) rotate(-90) scale(0.1 -0.1)">
      <defs>
       <path id="TimesNewRomanPSMT-54" d="M 3703 4238 
L 3750 3244 
L 3631 3244 
Q 3597 3506 3538 3619 
Q 3441 3800 3280 3886 
Q 3119 3972 2856 3972 
L 2259 3972 
L 2259 734 
Q 2259 344 2344 247 
Q 2463 116 2709 116 
L 2856 116 
L 2856 0 
L 1059 0 
L 1059 116 
L 1209 116 
Q 1478 116 1591 278 
Q 1659 378 1659 734 
L 1659 3972 
L 1150 3972 
Q 853 3972 728 3928 
Q 566 3869 450 3700 
Q 334 3531 313 3244 
L 194 3244 
L 244 4238 
L 3703 4238 
z
" transform="scale(0.015625)"/>
       <path id="TimesNewRomanPSMT-6c" d="M 1184 4444 
L 1184 647 
Q 1184 378 1223 290 
Q 1263 203 1344 158 
Q 1425 113 1647 113 
L 1647 0 
L 244 0 
L 244 113 
Q 441 113 512 153 
Q 584 194 625 287 
Q 666 381 666 647 
L 666 3247 
Q 666 3731 644 3842 
Q 622 3953 573 3993 
Q 525 4034 450 4034 
Q 369 4034 244 3984 
L 191 4094 
L 1044 4444 
L 1184 4444 
z
" transform="scale(0.015625)"/>
       <path id="TimesNewRomanPSMT-20" transform="scale(0.015625)"/>
       <path id="TimesNewRomanPSMT-63" d="M 2631 1088 
Q 2516 522 2178 217 
Q 1841 -88 1431 -88 
Q 944 -88 581 321 
Q 219 731 219 1428 
Q 219 2103 620 2525 
Q 1022 2947 1584 2947 
Q 2006 2947 2278 2723 
Q 2550 2500 2550 2259 
Q 2550 2141 2473 2067 
Q 2397 1994 2259 1994 
Q 2075 1994 1981 2113 
Q 1928 2178 1911 2362 
Q 1894 2547 1784 2644 
Q 1675 2738 1481 2738 
Q 1169 2738 978 2506 
Q 725 2200 725 1697 
Q 725 1184 976 792 
Q 1228 400 1656 400 
Q 1963 400 2206 609 
Q 2378 753 2541 1131 
L 2631 1088 
z
" transform="scale(0.015625)"/>
       <path id="TimesNewRomanPSMT-73" d="M 2050 2947 
L 2050 1972 
L 1947 1972 
Q 1828 2431 1642 2597 
Q 1456 2763 1169 2763 
Q 950 2763 815 2647 
Q 681 2531 681 2391 
Q 681 2216 781 2091 
Q 878 1963 1175 1819 
L 1631 1597 
Q 2266 1288 2266 781 
Q 2266 391 1970 151 
Q 1675 -88 1309 -88 
Q 1047 -88 709 6 
Q 606 38 541 38 
Q 469 38 428 -44 
L 325 -44 
L 325 978 
L 428 978 
Q 516 541 762 319 
Q 1009 97 1316 97 
Q 1531 97 1667 223 
Q 1803 350 1803 528 
Q 1803 744 1651 891 
Q 1500 1038 1047 1263 
Q 594 1488 453 1669 
Q 313 1847 313 2119 
Q 313 2472 555 2709 
Q 797 2947 1181 2947 
Q 1350 2947 1591 2875 
Q 1750 2828 1803 2828 
Q 1853 2828 1881 2850 
Q 1909 2872 1947 2947 
L 2050 2947 
z
" transform="scale(0.015625)"/>
      </defs>
      <use xlink:href="#TimesNewRomanPSMT-54"/>
      <use xlink:href="#TimesNewRomanPSMT-6f" x="54.083984"/>
      <use xlink:href="#TimesNewRomanPSMT-74" x="104.083984"/>
      <use xlink:href="#TimesNewRomanPSMT-61" x="131.867188"/>
      <use xlink:href="#TimesNewRomanPSMT-6c" x="176.251953"/>
      <use xlink:href="#TimesNewRomanPSMT-20" x="204.035156"/>
      <use xlink:href="#TimesNewRomanPSMT-63" x="229.035156"/>
      <use xlink:href="#TimesNewRomanPSMT-6f" x="273.419922"/>
      <use xlink:href="#TimesNewRomanPSMT-73" x="323.419922"/>
      <use xlink:href="#TimesNewRomanPSMT-74" x="362.335938"/>
     </g>
    </g>
   </g>
   <g id="line2d_21">
    <path d="M 64.655455 59.02814 
L 69.422545 71.066632 
L 74.189636 62.364829 
L 78.956727 35.127735 
L 83.723818 66.651781 
L 88.490909 71.066632 
L 93.258 62.364829 
L 98.025091 55.812071 
L 102.792182 62.364829 
L 107.559273 71.066632 
L 112.326364 65.365664 
L 117.093455 61.183026 
L 121.860545 42.209372 
L 126.627636 66.651781 
L 131.394727 71.066632 
L 136.161818 65.365664 
L 140.928909 61.183026 
L 145.696 42.209372 
L 150.463091 66.651781 
L 155.230182 71.066632 
L 159.997273 65.365664 
L 164.764364 61.183026 
L 169.531455 42.209372 
L 174.298545 66.651781 
L 179.065636 71.066632 
L 183.832727 65.365664 
L 188.599818 61.183026 
L 193.366909 42.209372 
L 198.134 66.651781 
L 202.901091 71.066632 
L 207.668182 65.365664 
L 212.435273 61.183026 
L 217.202364 42.209372 
L 221.969455 66.651781 
L 226.736545 71.066632 
L 231.503636 65.365664 
L 236.270727 61.183026 
L 241.037818 42.209372 
L 245.804909 66.651781 
L 250.572 71.066632 
L 255.339091 65.365664 
L 260.106182 61.183026 
L 264.873273 42.209372 
L 269.640364 66.651781 
L 274.407455 71.066632 
L 279.174545 65.365664 
L 283.941636 61.183026 
L 288.708727 42.209372 
L 293.475818 66.651781 
L 298.242909 71.066632 
L 303.01 65.365664 
L 307.777091 61.183026 
L 312.544182 42.209372 
L 317.311273 66.651781 
L 322.078364 71.066632 
L 326.845455 65.365664 
L 331.612545 61.183026 
L 336.379636 42.209372 
L 341.146727 66.651781 
L 345.913818 71.066632 
L 350.680909 65.365664 
L 355.448 61.183026 
L 360.215091 42.209372 
L 364.982182 66.651781 
L 369.749273 71.066632 
L 374.516364 65.365664 
L 379.283455 61.183026 
L 384.050545 42.209372 
L 388.817636 66.651781 
L 393.584727 71.066632 
L 398.351818 65.365664 
L 403.118909 61.183026 
L 407.886 42.209372 
L 412.653091 66.651781 
L 417.420182 71.066632 
L 422.187273 65.365664 
L 426.954364 61.183026 
L 431.721455 42.209372 
L 436.488545 66.651781 
L 441.255636 71.066632 
L 446.022727 65.365664 
L 450.789818 61.183026 
L 455.556909 42.209372 
L 460.324 66.651781 
L 465.091091 71.066632 
L 469.858182 65.365664 
L 474.625273 61.183026 
L 479.392364 42.209372 
L 484.159455 66.651781 
L 488.926545 71.066632 
L 493.693636 65.365664 
L 498.460727 61.183026 
L 503.227818 42.209372 
L 507.994909 66.651781 
L 512.762 71.066632 
L 517.529091 65.365664 
L 522.296182 61.183026 
L 527.063273 42.209372 
L 531.830364 66.651781 
L 536.597455 71.066632 
L 541.364545 59.850873 
" clip-path="url(#pce029a878e)" style="fill: none; stroke: #1f77b4; stroke-width: 1.5; stroke-linecap: square"/>
   </g>
   <g id="line2d_22">
    <path d="M 64.655455 113.908239 
L 69.422545 114.235051 
L 74.189636 122.85621 
L 78.956727 114.288422 
L 83.723818 115.252258 
L 88.490909 114.235051 
L 93.258 122.85621 
L 98.025091 114.915407 
L 102.792182 114.915407 
L 107.559273 114.235051 
L 112.326364 122.85621 
L 117.093455 115.252258 
L 121.860545 114.915407 
L 126.627636 114.915407 
L 131.394727 114.235051 
L 136.161818 122.85621 
L 140.928909 115.252258 
L 145.696 114.915407 
L 150.463091 114.915407 
L 155.230182 114.235051 
L 159.997273 122.85621 
L 164.764364 115.252258 
L 169.531455 114.915407 
L 174.298545 114.915407 
L 179.065636 114.235051 
L 183.832727 122.85621 
L 188.599818 115.252258 
L 193.366909 114.915407 
L 198.134 114.915407 
L 202.901091 114.235051 
L 207.668182 122.85621 
L 212.435273 115.252258 
L 217.202364 114.915407 
L 221.969455 114.915407 
L 226.736545 114.235051 
L 231.503636 122.85621 
L 236.270727 115.252258 
L 241.037818 114.915407 
L 245.804909 114.915407 
L 250.572 114.235051 
L 255.339091 122.85621 
L 260.106182 115.252258 
L 264.873273 114.915407 
L 269.640364 114.915407 
L 274.407455 114.235051 
L 279.174545 122.85621 
L 283.941636 115.252258 
L 288.708727 114.915407 
L 293.475818 114.915407 
L 298.242909 114.235051 
L 303.01 122.85621 
L 307.777091 115.252258 
L 312.544182 114.915407 
L 317.311273 114.915407 
L 322.078364 114.235051 
L 326.845455 122.85621 
L 331.612545 115.252258 
L 336.379636 114.915407 
L 341.146727 114.915407 
L 345.913818 114.235051 
L 350.680909 122.85621 
L 355.448 115.252258 
L 360.215091 114.915407 
L 364.982182 114.915407 
L 369.749273 114.235051 
L 374.516364 122.85621 
L 379.283455 115.252258 
L 384.050545 114.915407 
L 388.817636 114.915407 
L 393.584727 114.235051 
L 398.351818 122.85621 
L 403.118909 115.252258 
L 407.886 114.915407 
L 412.653091 114.915407 
L 417.420182 114.235051 
L 422.187273 122.85621 
L 426.954364 115.252258 
L 431.721455 114.915407 
L 436.488545 114.915407 
L 441.255636 114.235051 
L 446.022727 122.85621 
L 450.789818 115.252258 
L 455.556909 114.915407 
L 460.324 114.915407 
L 465.091091 114.235051 
L 469.858182 122.85621 
L 474.625273 115.252258 
L 479.392364 114.915407 
L 484.159455 114.915407 
L 488.926545 114.235051 
L 493.693636 122.85621 
L 498.460727 115.252258 
L 503.227818 114.915407 
L 507.994909 114.915407 
L 512.762 114.235051 
L 517.529091 122.85621 
L 522.296182 115.252258 
L 527.063273 114.915407 
L 531.830364 114.915407 
L 536.597455 114.235051 
L 541.364545 114.235051 
" clip-path="url(#pce029a878e)" style="fill: none; stroke: #ff7f0e; stroke-width: 1.5; stroke-linecap: square"/>
   </g>
   <g id="line2d_23">
    <path d="M 64.655455 120.267778 
L 69.422545 104.8027 
L 74.189636 112.93756 
L 78.956727 112.93756 
L 83.723818 111.878744 
L 88.490909 104.8027 
L 93.258 112.93756 
L 98.025091 104.001277 
L 102.792182 120.013604 
L 107.559273 112.764882 
L 112.326364 112.764882 
L 117.093455 112.764882 
L 121.860545 112.764882 
L 126.627636 112.764882 
L 131.394727 112.764882 
L 136.161818 112.764882 
L 140.928909 112.764882 
L 145.696 112.764882 
L 150.463091 112.764882 
L 155.230182 112.764882 
L 159.997273 112.764882 
L 164.764364 112.764882 
L 169.531455 112.764882 
L 174.298545 112.764882 
L 179.065636 112.764882 
L 183.832727 112.764882 
L 188.599818 112.764882 
L 193.366909 112.764882 
L 198.134 112.764882 
L 202.901091 112.764882 
L 207.668182 112.764882 
L 212.435273 112.764882 
L 217.202364 112.764882 
L 221.969455 112.764882 
L 226.736545 112.764882 
L 231.503636 112.764882 
L 236.270727 112.764882 
L 241.037818 112.764882 
L 245.804909 112.764882 
L 250.572 112.764882 
L 255.339091 112.764882 
L 260.106182 112.764882 
L 264.873273 112.764882 
L 269.640364 112.764882 
L 274.407455 112.764882 
L 279.174545 112.764882 
L 283.941636 112.764882 
L 288.708727 112.764882 
L 293.475818 112.764882 
L 298.242909 112.764882 
L 303.01 112.764882 
L 307.777091 112.764882 
L 312.544182 112.764882 
L 317.311273 112.764882 
L 322.078364 112.764882 
L 326.845455 112.764882 
L 331.612545 112.764882 
L 336.379636 112.764882 
L 341.146727 112.764882 
L 345.913818 112.764882 
L 350.680909 112.764882 
L 355.448 112.764882 
L 360.215091 112.764882 
L 364.982182 112.764882 
L 369.749273 112.764882 
L 374.516364 112.764882 
L 379.283455 112.764882 
L 384.050545 112.764882 
L 388.817636 112.764882 
L 393.584727 112.764882 
L 398.351818 112.764882 
L 403.118909 112.764882 
L 407.886 112.764882 
L 412.653091 112.764882 
L 417.420182 112.764882 
L 422.187273 112.764882 
L 426.954364 112.764882 
L 431.721455 112.764882 
L 436.488545 112.764882 
L 441.255636 112.764882 
L 446.022727 112.764882 
L 450.789818 112.764882 
L 455.556909 112.764882 
L 460.324 112.764882 
L 465.091091 112.764882 
L 469.858182 112.764882 
L 474.625273 112.764882 
L 479.392364 112.764882 
L 484.159455 112.764882 
L 488.926545 112.764882 
L 493.693636 112.764882 
L 498.460727 112.764882 
L 503.227818 112.764882 
L 507.994909 112.764882 
L 512.762 112.764882 
L 517.529091 112.764882 
L 522.296182 112.764882 
L 527.063273 112.764882 
L 531.830364 112.764882 
L 536.597455 112.764882 
L 541.364545 112.764882 
" clip-path="url(#pce029a878e)" style="fill: none; stroke: #2ca02c; stroke-width: 1.5; stroke-linecap: square"/>
   </g>
   <g id="line2d_24">
    <path d="M 64.655455 94.19417 
L 69.422545 89.424287 
L 74.189636 90.546603 
L 78.956727 99.217999 
L 83.723818 90.1371 
L 88.490909 99.217999 
L 93.258 90.546603 
L 98.025091 99.217999 
L 102.792182 90.546603 
L 107.559273 90.1371 
L 112.326364 90.1371 
L 117.093455 90.1371 
L 121.860545 99.217999 
L 126.627636 90.546603 
L 131.394727 90.1371 
L 136.161818 90.1371 
L 140.928909 90.1371 
L 145.696 99.217999 
L 150.463091 90.546603 
L 155.230182 90.1371 
L 159.997273 90.1371 
L 164.764364 90.1371 
L 169.531455 99.217999 
L 174.298545 90.546603 
L 179.065636 90.1371 
L 183.832727 90.1371 
L 188.599818 90.1371 
L 193.366909 99.217999 
L 198.134 90.546603 
L 202.901091 90.1371 
L 207.668182 90.1371 
L 212.435273 90.1371 
L 217.202364 99.217999 
L 221.969455 90.546603 
L 226.736545 90.1371 
L 231.503636 90.1371 
L 236.270727 90.1371 
L 241.037818 99.217999 
L 245.804909 90.546603 
L 250.572 90.1371 
L 255.339091 90.1371 
L 260.106182 90.1371 
L 264.873273 99.217999 
L 269.640364 90.546603 
L 274.407455 90.1371 
L 279.174545 90.1371 
L 283.941636 90.1371 
L 288.708727 99.217999 
L 293.475818 90.546603 
L 298.242909 90.1371 
L 303.01 90.1371 
L 307.777091 90.1371 
L 312.544182 99.217999 
L 317.311273 90.546603 
L 322.078364 90.1371 
L 326.845455 90.1371 
L 331.612545 90.1371 
L 336.379636 99.217999 
L 341.146727 90.546603 
L 345.913818 90.1371 
L 350.680909 90.1371 
L 355.448 90.1371 
L 360.215091 99.217999 
L 364.982182 90.546603 
L 369.749273 90.1371 
L 374.516364 90.1371 
L 379.283455 90.1371 
L 384.050545 99.217999 
L 388.817636 90.546603 
L 393.584727 90.1371 
L 398.351818 90.1371 
L 403.118909 90.1371 
L 407.886 99.217999 
L 412.653091 90.546603 
L 417.420182 90.1371 
L 422.187273 90.1371 
L 426.954364 90.1371 
L 431.721455 99.217999 
L 436.488545 90.546603 
L 441.255636 90.1371 
L 446.022727 90.1371 
L 450.789818 90.1371 
L 455.556909 99.217999 
L 460.324 90.546603 
L 465.091091 90.1371 
L 469.858182 90.1371 
L 474.625273 90.1371 
L 479.392364 99.217999 
L 484.159455 90.546603 
L 488.926545 90.1371 
L 493.693636 90.1371 
L 498.460727 90.1371 
L 503.227818 99.217999 
L 507.994909 90.546603 
L 512.762 90.1371 
L 517.529091 90.1371 
L 522.296182 90.1371 
L 527.063273 99.217999 
L 531.830364 90.546603 
L 536.597455 90.1371 
L 541.364545 90.1371 
" clip-path="url(#pce029a878e)" style="fill: none; stroke: #d62728; stroke-width: 1.5; stroke-linecap: square"/>
   </g>
   <g id="line2d_25">
    <path d="M 64.655455 120.820662 
L 69.422545 100.903627 
L 74.189636 110.241351 
L 78.956727 110.241351 
L 83.723818 109.025973 
L 88.490909 100.903627 
L 93.258 110.241351 
L 98.025091 99.983702 
L 102.792182 118.363697 
L 107.559273 110.043139 
L 112.326364 110.043139 
L 117.093455 110.043139 
L 121.860545 110.043139 
L 126.627636 110.043139 
L 131.394727 110.043139 
L 136.161818 110.043139 
L 140.928909 110.043139 
L 145.696 110.043139 
L 150.463091 110.043139 
L 155.230182 110.043139 
L 159.997273 110.043139 
L 164.764364 110.043139 
L 169.531455 110.043139 
L 174.298545 110.043139 
L 179.065636 110.043139 
L 183.832727 110.043139 
L 188.599818 110.043139 
L 193.366909 110.043139 
L 198.134 110.043139 
L 202.901091 110.043139 
L 207.668182 110.043139 
L 212.435273 110.043139 
L 217.202364 110.043139 
L 221.969455 110.043139 
L 226.736545 110.043139 
L 231.503636 110.043139 
L 236.270727 110.043139 
L 241.037818 110.043139 
L 245.804909 110.043139 
L 250.572 110.043139 
L 255.339091 110.043139 
L 260.106182 110.043139 
L 264.873273 110.043139 
L 269.640364 110.043139 
L 274.407455 110.043139 
L 279.174545 110.043139 
L 283.941636 110.043139 
L 288.708727 110.043139 
L 293.475818 110.043139 
L 298.242909 110.043139 
L 303.01 110.043139 
L 307.777091 110.043139 
L 312.544182 110.043139 
L 317.311273 110.043139 
L 322.078364 110.043139 
L 326.845455 110.043139 
L 331.612545 110.043139 
L 336.379636 110.043139 
L 341.146727 110.043139 
L 345.913818 110.043139 
L 350.680909 110.043139 
L 355.448 110.043139 
L 360.215091 110.043139 
L 364.982182 110.043139 
L 369.749273 110.043139 
L 374.516364 110.043139 
L 379.283455 110.043139 
L 384.050545 110.043139 
L 388.817636 110.043139 
L 393.584727 110.043139 
L 398.351818 110.043139 
L 403.118909 110.043139 
L 407.886 110.043139 
L 412.653091 110.043139 
L 417.420182 110.043139 
L 422.187273 110.043139 
L 426.954364 110.043139 
L 431.721455 110.043139 
L 436.488545 110.043139 
L 441.255636 110.043139 
L 446.022727 110.043139 
L 450.789818 110.043139 
L 455.556909 110.043139 
L 460.324 110.043139 
L 465.091091 110.043139 
L 469.858182 110.043139 
L 474.625273 110.043139 
L 479.392364 110.043139 
L 484.159455 110.043139 
L 488.926545 110.043139 
L 493.693636 110.043139 
L 498.460727 110.043139 
L 503.227818 110.043139 
L 507.994909 110.043139 
L 512.762 110.043139 
L 517.529091 110.043139 
L 522.296182 110.043139 
L 527.063273 110.043139 
L 531.830364 110.043139 
L 536.597455 110.043139 
L 541.364545 110.043139 
" clip-path="url(#pce029a878e)" style="fill: none; stroke: #9467bd; stroke-width: 1.5; stroke-linecap: square"/>
   </g>
   <g id="line2d_26">
    <path d="M 64.655455 140.84917 
L 69.422545 141.131245 
L 74.189636 148.572253 
L 78.956727 141.17731 
L 83.723818 142.009206 
L 88.490909 141.131245 
L 93.258 148.572253 
L 98.025091 141.718467 
L 102.792182 141.718467 
L 107.559273 141.131245 
L 112.326364 148.572253 
L 117.093455 142.009206 
L 121.860545 141.718467 
L 126.627636 141.718467 
L 131.394727 141.131245 
L 136.161818 148.572253 
L 140.928909 142.009206 
L 145.696 141.718467 
L 150.463091 141.718467 
L 155.230182 141.131245 
L 159.997273 148.572253 
L 164.764364 142.009206 
L 169.531455 141.718467 
L 174.298545 141.718467 
L 179.065636 141.131245 
L 183.832727 148.572253 
L 188.599818 142.009206 
L 193.366909 141.718467 
L 198.134 141.718467 
L 202.901091 141.131245 
L 207.668182 148.572253 
L 212.435273 142.009206 
L 217.202364 141.718467 
L 221.969455 141.718467 
L 226.736545 141.131245 
L 231.503636 148.572253 
L 236.270727 142.009206 
L 241.037818 141.718467 
L 245.804909 141.718467 
L 250.572 141.131245 
L 255.339091 148.572253 
L 260.106182 142.009206 
L 264.873273 141.718467 
L 269.640364 141.718467 
L 274.407455 141.131245 
L 279.174545 148.572253 
L 283.941636 142.009206 
L 288.708727 141.718467 
L 293.475818 141.718467 
L 298.242909 141.131245 
L 303.01 148.572253 
L 307.777091 142.009206 
L 312.544182 141.718467 
L 317.311273 141.718467 
L 322.078364 141.131245 
L 326.845455 148.572253 
L 331.612545 142.009206 
L 336.379636 141.718467 
L 341.146727 141.718467 
L 345.913818 141.131245 
L 350.680909 148.572253 
L 355.448 142.009206 
L 360.215091 141.718467 
L 364.982182 141.718467 
L 369.749273 141.131245 
L 374.516364 148.572253 
L 379.283455 142.009206 
L 384.050545 141.718467 
L 388.817636 141.718467 
L 393.584727 141.131245 
L 398.351818 148.572253 
L 403.118909 142.009206 
L 407.886 141.718467 
L 412.653091 141.718467 
L 417.420182 141.131245 
L 422.187273 148.572253 
L 426.954364 142.009206 
L 431.721455 141.718467 
L 436.488545 141.718467 
L 441.255636 141.131245 
L 446.022727 148.572253 
L 450.789818 142.009206 
L 455.556909 141.718467 
L 460.324 141.718467 
L 465.091091 141.131245 
L 469.858182 148.572253 
L 474.625273 142.009206 
L 479.392364 141.718467 
L 484.159455 141.718467 
L 488.926545 141.131245 
L 493.693636 148.572253 
L 498.460727 142.009206 
L 503.227818 141.718467 
L 507.994909 141.718467 
L 512.762 141.131245 
L 517.529091 148.572253 
L 522.296182 142.009206 
L 527.063273 141.718467 
L 531.830364 141.718467 
L 536.597455 141.131245 
L 541.364545 141.131245 
" clip-path="url(#pce029a878e)" style="fill: none; stroke: #8c564b; stroke-width: 1.5; stroke-linecap: square"/>
   </g>
   <g id="line2d_27">
    <path d="M 64.655455 199.157258 
L 69.422545 196.004657 
L 74.189636 196.586432 
L 78.956727 201.081425 
L 83.723818 196.374158 
L 88.490909 201.081425 
L 93.258 196.586432 
L 98.025091 201.081425 
L 102.792182 196.586432 
L 107.559273 196.374158 
L 112.326364 196.374158 
L 117.093455 196.374158 
L 121.860545 201.081425 
L 126.627636 196.586432 
L 131.394727 196.374158 
L 136.161818 196.374158 
L 140.928909 196.374158 
L 145.696 201.081425 
L 150.463091 196.586432 
L 155.230182 196.374158 
L 159.997273 196.374158 
L 164.764364 196.374158 
L 169.531455 201.081425 
L 174.298545 196.586432 
L 179.065636 196.374158 
L 183.832727 196.374158 
L 188.599818 196.374158 
L 193.366909 201.081425 
L 198.134 196.586432 
L 202.901091 196.374158 
L 207.668182 196.374158 
L 212.435273 196.374158 
L 217.202364 201.081425 
L 221.969455 196.586432 
L 226.736545 196.374158 
L 231.503636 196.374158 
L 236.270727 196.374158 
L 241.037818 201.081425 
L 245.804909 196.586432 
L 250.572 196.374158 
L 255.339091 196.374158 
L 260.106182 196.374158 
L 264.873273 201.081425 
L 269.640364 196.586432 
L 274.407455 196.374158 
L 279.174545 196.374158 
L 283.941636 196.374158 
L 288.708727 201.081425 
L 293.475818 196.586432 
L 298.242909 196.374158 
L 303.01 196.374158 
L 307.777091 196.374158 
L 312.544182 201.081425 
L 317.311273 196.586432 
L 322.078364 196.374158 
L 326.845455 196.374158 
L 331.612545 196.374158 
L 336.379636 201.081425 
L 341.146727 196.586432 
L 345.913818 196.374158 
L 350.680909 196.374158 
L 355.448 196.374158 
L 360.215091 201.081425 
L 364.982182 196.586432 
L 369.749273 196.374158 
L 374.516364 196.374158 
L 379.283455 196.374158 
L 384.050545 201.081425 
L 388.817636 196.586432 
L 393.584727 196.374158 
L 398.351818 196.374158 
L 403.118909 196.374158 
L 407.886 201.081425 
L 412.653091 196.586432 
L 417.420182 196.374158 
L 422.187273 196.374158 
L 426.954364 196.374158 
L 431.721455 201.081425 
L 436.488545 196.586432 
L 441.255636 196.374158 
L 446.022727 196.374158 
L 450.789818 196.374158 
L 455.556909 201.081425 
L 460.324 196.586432 
L 465.091091 196.374158 
L 469.858182 196.374158 
L 474.625273 196.374158 
L 479.392364 201.081425 
L 484.159455 196.586432 
L 488.926545 196.374158 
L 493.693636 196.374158 
L 498.460727 196.374158 
L 503.227818 201.081425 
L 507.994909 196.586432 
L 512.762 196.374158 
L 517.529091 196.374158 
L 522.296182 196.374158 
L 527.063273 201.081425 
L 531.830364 196.586432 
L 536.597455 196.374158 
L 541.364545 196.374158 
" clip-path="url(#pce029a878e)" style="fill: none; stroke: #e377c2; stroke-width: 1.5; stroke-linecap: square"/>
   </g>
   <g id="line2d_28">
    <path d="M 64.655455 47.692806 
L 69.422545 71.904623 
L 74.189636 60.709592 
L 78.956727 84.648785 
L 83.723818 130.069084 
L 88.490909 112.263313 
L 93.258 112.263313 
L 98.025091 112.263313 
L 102.792182 112.263313 
L 107.559273 112.263313 
L 112.326364 112.263313 
L 117.093455 112.263313 
L 121.860545 89.772287 
L 126.627636 130.069084 
L 131.394727 112.263313 
L 136.161818 112.263313 
L 140.928909 112.263313 
L 145.696 89.772287 
L 150.463091 130.069084 
L 155.230182 112.263313 
L 159.997273 112.263313 
L 164.764364 112.263313 
L 169.531455 89.772287 
L 174.298545 130.069084 
L 179.065636 112.263313 
L 183.832727 112.263313 
L 188.599818 112.263313 
L 193.366909 89.772287 
L 198.134 130.069084 
L 202.901091 112.263313 
L 207.668182 112.263313 
L 212.435273 112.263313 
L 217.202364 89.772287 
L 221.969455 130.069084 
L 226.736545 112.263313 
L 231.503636 112.263313 
L 236.270727 112.263313 
L 241.037818 89.772287 
L 245.804909 130.069084 
L 250.572 112.263313 
L 255.339091 112.263313 
L 260.106182 112.263313 
L 264.873273 89.772287 
L 269.640364 130.069084 
L 274.407455 112.263313 
L 279.174545 112.263313 
L 283.941636 112.263313 
L 288.708727 89.772287 
L 293.475818 130.069084 
L 298.242909 112.263313 
L 303.01 112.263313 
L 307.777091 112.263313 
L 312.544182 89.772287 
L 317.311273 130.069084 
L 322.078364 112.263313 
L 326.845455 112.263313 
L 331.612545 112.263313 
L 336.379636 89.772287 
L 341.146727 130.069084 
L 345.913818 112.263313 
L 350.680909 112.263313 
L 355.448 112.263313 
L 360.215091 89.772287 
L 364.982182 130.069084 
L 369.749273 112.263313 
L 374.516364 112.263313 
L 379.283455 112.263313 
L 384.050545 89.772287 
L 388.817636 130.069084 
L 393.584727 112.263313 
L 398.351818 112.263313 
L 403.118909 112.263313 
L 407.886 89.772287 
L 412.653091 130.069084 
L 417.420182 112.263313 
L 422.187273 112.263313 
L 426.954364 112.263313 
L 431.721455 89.772287 
L 436.488545 130.069084 
L 441.255636 112.263313 
L 446.022727 112.263313 
L 450.789818 112.263313 
L 455.556909 89.772287 
L 460.324 130.069084 
L 465.091091 112.263313 
L 469.858182 112.263313 
L 474.625273 112.263313 
L 479.392364 89.772287 
L 484.159455 130.069084 
L 488.926545 112.263313 
L 493.693636 112.263313 
L 498.460727 112.263313 
L 503.227818 89.772287 
L 507.994909 130.069084 
L 512.762 112.263313 
L 517.529091 112.263313 
L 522.296182 112.263313 
L 527.063273 89.772287 
L 531.830364 130.069084 
L 536.597455 112.263313 
L 541.364545 112.263313 
" clip-path="url(#pce029a878e)" style="fill: none; stroke: #7f7f7f; stroke-width: 1.5; stroke-linecap: square"/>
   </g>
   <g id="line2d_29">
    <path d="M 64.655455 103.268429 
L 69.422545 108.293878 
L 74.189636 132.369964 
L 78.956727 98.485285 
L 83.723818 134.048234 
L 88.490909 114.564192 
L 93.258 114.564192 
L 98.025091 114.564192 
L 102.792182 114.564192 
L 107.559273 114.564192 
L 112.326364 114.564192 
L 117.093455 114.564192 
L 121.860545 98.485285 
L 126.627636 134.048234 
L 131.394727 114.564192 
L 136.161818 114.564192 
L 140.928909 114.564192 
L 145.696 98.485285 
L 150.463091 134.048234 
L 155.230182 114.564192 
L 159.997273 114.564192 
L 164.764364 114.564192 
L 169.531455 98.485285 
L 174.298545 134.048234 
L 179.065636 114.564192 
L 183.832727 114.564192 
L 188.599818 114.564192 
L 193.366909 98.485285 
L 198.134 134.048234 
L 202.901091 114.564192 
L 207.668182 114.564192 
L 212.435273 114.564192 
L 217.202364 98.485285 
L 221.969455 134.048234 
L 226.736545 114.564192 
L 231.503636 114.564192 
L 236.270727 114.564192 
L 241.037818 98.485285 
L 245.804909 134.048234 
L 250.572 114.564192 
L 255.339091 114.564192 
L 260.106182 114.564192 
L 264.873273 98.485285 
L 269.640364 134.048234 
L 274.407455 114.564192 
L 279.174545 114.564192 
L 283.941636 114.564192 
L 288.708727 98.485285 
L 293.475818 134.048234 
L 298.242909 114.564192 
L 303.01 114.564192 
L 307.777091 114.564192 
L 312.544182 98.485285 
L 317.311273 134.048234 
L 322.078364 114.564192 
L 326.845455 114.564192 
L 331.612545 114.564192 
L 336.379636 98.485285 
L 341.146727 134.048234 
L 345.913818 114.564192 
L 350.680909 114.564192 
L 355.448 114.564192 
L 360.215091 98.485285 
L 364.982182 134.048234 
L 369.749273 114.564192 
L 374.516364 114.564192 
L 379.283455 114.564192 
L 384.050545 98.485285 
L 388.817636 134.048234 
L 393.584727 114.564192 
L 398.351818 114.564192 
L 403.118909 114.564192 
L 407.886 98.485285 
L 412.653091 134.048234 
L 417.420182 114.564192 
L 422.187273 114.564192 
L 426.954364 114.564192 
L 431.721455 98.485285 
L 436.488545 134.048234 
L 441.255636 114.564192 
L 446.022727 114.564192 
L 450.789818 114.564192 
L 455.556909 98.485285 
L 460.324 134.048234 
L 465.091091 114.564192 
L 469.858182 114.564192 
L 474.625273 114.564192 
L 479.392364 98.485285 
L 484.159455 134.048234 
L 488.926545 114.564192 
L 493.693636 114.564192 
L 498.460727 114.564192 
L 503.227818 98.485285 
L 507.994909 134.048234 
L 512.762 114.564192 
L 517.529091 114.564192 
L 522.296182 114.564192 
L 527.063273 98.485285 
L 531.830364 134.048234 
L 536.597455 114.564192 
L 541.364545 114.564192 
" clip-path="url(#pce029a878e)" style="fill: none; stroke: #bcbd22; stroke-width: 1.5; stroke-linecap: square"/>
   </g>
   <g id="line2d_30">
    <path d="M 64.655455 124.347723 
L 69.422545 133.92573 
L 74.189636 126.482684 
L 78.956727 133.92573 
L 83.723818 126.13119 
L 88.490909 133.92573 
L 93.258 126.482684 
L 98.025091 133.92573 
L 102.792182 126.482684 
L 107.559273 126.13119 
L 112.326364 126.13119 
L 117.093455 126.13119 
L 121.860545 133.92573 
L 126.627636 126.482684 
L 131.394727 126.13119 
L 136.161818 126.13119 
L 140.928909 126.13119 
L 145.696 133.92573 
L 150.463091 126.482684 
L 155.230182 126.13119 
L 159.997273 126.13119 
L 164.764364 126.13119 
L 169.531455 133.92573 
L 174.298545 126.482684 
L 179.065636 126.13119 
L 183.832727 126.13119 
L 188.599818 126.13119 
L 193.366909 133.92573 
L 198.134 126.482684 
L 202.901091 126.13119 
L 207.668182 126.13119 
L 212.435273 126.13119 
L 217.202364 133.92573 
L 221.969455 126.482684 
L 226.736545 126.13119 
L 231.503636 126.13119 
L 236.270727 126.13119 
L 241.037818 133.92573 
L 245.804909 126.482684 
L 250.572 126.13119 
L 255.339091 126.13119 
L 260.106182 126.13119 
L 264.873273 133.92573 
L 269.640364 126.482684 
L 274.407455 126.13119 
L 279.174545 126.13119 
L 283.941636 126.13119 
L 288.708727 133.92573 
L 293.475818 126.482684 
L 298.242909 126.13119 
L 303.01 126.13119 
L 307.777091 126.13119 
L 312.544182 133.92573 
L 317.311273 126.482684 
L 322.078364 126.13119 
L 326.845455 126.13119 
L 331.612545 126.13119 
L 336.379636 133.92573 
L 341.146727 126.482684 
L 345.913818 126.13119 
L 350.680909 126.13119 
L 355.448 126.13119 
L 360.215091 133.92573 
L 364.982182 126.482684 
L 369.749273 126.13119 
L 374.516364 126.13119 
L 379.283455 126.13119 
L 384.050545 133.92573 
L 388.817636 126.482684 
L 393.584727 126.13119 
L 398.351818 126.13119 
L 403.118909 126.13119 
L 407.886 133.92573 
L 412.653091 126.482684 
L 417.420182 126.13119 
L 422.187273 126.13119 
L 426.954364 126.13119 
L 431.721455 133.92573 
L 436.488545 126.482684 
L 441.255636 126.13119 
L 446.022727 126.13119 
L 450.789818 126.13119 
L 455.556909 133.92573 
L 460.324 126.482684 
L 465.091091 126.13119 
L 469.858182 126.13119 
L 474.625273 126.13119 
L 479.392364 133.92573 
L 484.159455 126.482684 
L 488.926545 126.13119 
L 493.693636 126.13119 
L 498.460727 126.13119 
L 503.227818 133.92573 
L 507.994909 126.482684 
L 512.762 126.13119 
L 517.529091 126.13119 
L 522.296182 126.13119 
L 527.063273 133.92573 
L 531.830364 126.482684 
L 536.597455 126.13119 
L 541.364545 126.13119 
" clip-path="url(#pce029a878e)" style="fill: none; stroke: #17becf; stroke-width: 1.5; stroke-linecap: square"/>
   </g>
   <g id="line2d_31">
    <path d="M 64.655455 116.305172 
L 69.422545 125.453409 
L 74.189636 118.344335 
L 78.956727 125.453409 
L 83.723818 118.008613 
L 88.490909 125.453409 
L 93.258 118.344335 
L 98.025091 125.453409 
L 102.792182 118.344335 
L 107.559273 118.008613 
L 112.326364 118.008613 
L 117.093455 118.008613 
L 121.860545 125.453409 
L 126.627636 118.344335 
L 131.394727 118.008613 
L 136.161818 118.008613 
L 140.928909 118.008613 
L 145.696 125.453409 
L 150.463091 118.344335 
L 155.230182 118.008613 
L 159.997273 118.008613 
L 164.764364 118.008613 
L 169.531455 125.453409 
L 174.298545 118.344335 
L 179.065636 118.008613 
L 183.832727 118.008613 
L 188.599818 118.008613 
L 193.366909 125.453409 
L 198.134 118.344335 
L 202.901091 118.008613 
L 207.668182 118.008613 
L 212.435273 118.008613 
L 217.202364 125.453409 
L 221.969455 118.344335 
L 226.736545 118.008613 
L 231.503636 118.008613 
L 236.270727 118.008613 
L 241.037818 125.453409 
L 245.804909 118.344335 
L 250.572 118.008613 
L 255.339091 118.008613 
L 260.106182 118.008613 
L 264.873273 125.453409 
L 269.640364 118.344335 
L 274.407455 118.008613 
L 279.174545 118.008613 
L 283.941636 118.008613 
L 288.708727 125.453409 
L 293.475818 118.344335 
L 298.242909 118.008613 
L 303.01 118.008613 
L 307.777091 118.008613 
L 312.544182 125.453409 
L 317.311273 118.344335 
L 322.078364 118.008613 
L 326.845455 118.008613 
L 331.612545 118.008613 
L 336.379636 125.453409 
L 341.146727 118.344335 
L 345.913818 118.008613 
L 350.680909 118.008613 
L 355.448 118.008613 
L 360.215091 125.453409 
L 364.982182 118.344335 
L 369.749273 118.008613 
L 374.516364 118.008613 
L 379.283455 118.008613 
L 384.050545 125.453409 
L 388.817636 118.344335 
L 393.584727 118.008613 
L 398.351818 118.008613 
L 403.118909 118.008613 
L 407.886 125.453409 
L 412.653091 118.344335 
L 417.420182 118.008613 
L 422.187273 118.008613 
L 426.954364 118.008613 
L 431.721455 125.453409 
L 436.488545 118.344335 
L 441.255636 118.008613 
L 446.022727 118.008613 
L 450.789818 118.008613 
L 455.556909 125.453409 
L 460.324 118.344335 
L 465.091091 118.008613 
L 469.858182 118.008613 
L 474.625273 118.008613 
L 479.392364 125.453409 
L 484.159455 118.344335 
L 488.926545 118.008613 
L 493.693636 118.008613 
L 498.460727 118.008613 
L 503.227818 125.453409 
L 507.994909 118.344335 
L 512.762 118.008613 
L 517.529091 118.008613 
L 522.296182 118.008613 
L 527.063273 125.453409 
L 531.830364 118.344335 
L 536.597455 118.008613 
L 541.364545 118.008613 
" clip-path="url(#pce029a878e)" style="fill: none; stroke: #1f77b4; stroke-width: 1.5; stroke-linecap: square"/>
   </g>
   <g id="line2d_32">
    <path d="M 64.655455 89.52119 
L 69.422545 74.061917 
L 74.189636 85.022687 
L 78.956727 80.715721 
L 83.723818 79.353603 
L 88.490909 74.061917 
L 93.258 80.715721 
L 98.025091 74.061917 
L 102.792182 113.881186 
L 107.559273 105.571836 
L 112.326364 105.571836 
L 117.093455 105.571836 
L 121.860545 105.571836 
L 126.627636 105.571836 
L 131.394727 105.571836 
L 136.161818 105.571836 
L 140.928909 105.571836 
L 145.696 105.571836 
L 150.463091 105.571836 
L 155.230182 105.571836 
L 159.997273 105.571836 
L 164.764364 105.571836 
L 169.531455 105.571836 
L 174.298545 105.571836 
L 179.065636 105.571836 
L 183.832727 105.571836 
L 188.599818 105.571836 
L 193.366909 105.571836 
L 198.134 105.571836 
L 202.901091 105.571836 
L 207.668182 105.571836 
L 212.435273 105.571836 
L 217.202364 105.571836 
L 221.969455 105.571836 
L 226.736545 105.571836 
L 231.503636 105.571836 
L 236.270727 105.571836 
L 241.037818 105.571836 
L 245.804909 105.571836 
L 250.572 105.571836 
L 255.339091 105.571836 
L 260.106182 105.571836 
L 264.873273 105.571836 
L 269.640364 105.571836 
L 274.407455 105.571836 
L 279.174545 105.571836 
L 283.941636 105.571836 
L 288.708727 105.571836 
L 293.475818 105.571836 
L 298.242909 105.571836 
L 303.01 105.571836 
L 307.777091 105.571836 
L 312.544182 105.571836 
L 317.311273 105.571836 
L 322.078364 105.571836 
L 326.845455 105.571836 
L 331.612545 105.571836 
L 336.379636 105.571836 
L 341.146727 105.571836 
L 345.913818 105.571836 
L 350.680909 105.571836 
L 355.448 105.571836 
L 360.215091 105.571836 
L 364.982182 105.571836 
L 369.749273 105.571836 
L 374.516364 105.571836 
L 379.283455 105.571836 
L 384.050545 105.571836 
L 388.817636 105.571836 
L 393.584727 105.571836 
L 398.351818 105.571836 
L 403.118909 105.571836 
L 407.886 105.571836 
L 412.653091 105.571836 
L 417.420182 105.571836 
L 422.187273 105.571836 
L 426.954364 105.571836 
L 431.721455 105.571836 
L 436.488545 105.571836 
L 441.255636 105.571836 
L 446.022727 105.571836 
L 450.789818 105.571836 
L 455.556909 105.571836 
L 460.324 105.571836 
L 465.091091 105.571836 
L 469.858182 105.571836 
L 474.625273 105.571836 
L 479.392364 105.571836 
L 484.159455 105.571836 
L 488.926545 105.571836 
L 493.693636 105.571836 
L 498.460727 105.571836 
L 503.227818 105.571836 
L 507.994909 105.571836 
L 512.762 105.571836 
L 517.529091 105.571836 
L 522.296182 105.571836 
L 527.063273 105.571836 
L 531.830364 105.571836 
L 536.597455 105.571836 
L 541.364545 105.571836 
" clip-path="url(#pce029a878e)" style="fill: none; stroke: #ff7f0e; stroke-width: 1.5; stroke-linecap: square"/>
   </g>
   <g id="line2d_33">
    <path d="M 64.655455 126.23043 
L 69.422545 87.100713 
L 74.189636 99.651516 
L 78.956727 88.032888 
L 83.723818 99.651516 
L 88.490909 87.100713 
L 93.258 99.651516 
L 98.025091 87.100713 
L 102.792182 99.651516 
L 107.559273 103.265443 
L 112.326364 88.032888 
L 117.093455 99.651516 
L 121.860545 87.100713 
L 126.627636 99.651516 
L 131.394727 103.265443 
L 136.161818 88.032888 
L 140.928909 99.651516 
L 145.696 87.100713 
L 150.463091 99.651516 
L 155.230182 103.265443 
L 159.997273 88.032888 
L 164.764364 99.651516 
L 169.531455 87.100713 
L 174.298545 99.651516 
L 179.065636 103.265443 
L 183.832727 88.032888 
L 188.599818 99.651516 
L 193.366909 87.100713 
L 198.134 99.651516 
L 202.901091 103.265443 
L 207.668182 88.032888 
L 212.435273 99.651516 
L 217.202364 87.100713 
L 221.969455 99.651516 
L 226.736545 103.265443 
L 231.503636 88.032888 
L 236.270727 99.651516 
L 241.037818 87.100713 
L 245.804909 99.651516 
L 250.572 103.265443 
L 255.339091 88.032888 
L 260.106182 99.651516 
L 264.873273 87.100713 
L 269.640364 99.651516 
L 274.407455 103.265443 
L 279.174545 88.032888 
L 283.941636 99.651516 
L 288.708727 87.100713 
L 293.475818 99.651516 
L 298.242909 103.265443 
L 303.01 88.032888 
L 307.777091 99.651516 
L 312.544182 87.100713 
L 317.311273 99.651516 
L 322.078364 103.265443 
L 326.845455 88.032888 
L 331.612545 99.651516 
L 336.379636 87.100713 
L 341.146727 99.651516 
L 345.913818 103.265443 
L 350.680909 88.032888 
L 355.448 99.651516 
L 360.215091 87.100713 
L 364.982182 99.651516 
L 369.749273 103.265443 
L 374.516364 88.032888 
L 379.283455 99.651516 
L 384.050545 87.100713 
L 388.817636 99.651516 
L 393.584727 103.265443 
L 398.351818 88.032888 
L 403.118909 99.651516 
L 407.886 87.100713 
L 412.653091 99.651516 
L 417.420182 103.265443 
L 422.187273 88.032888 
L 426.954364 99.651516 
L 431.721455 87.100713 
L 436.488545 99.651516 
L 441.255636 103.265443 
L 446.022727 88.032888 
L 450.789818 99.651516 
L 455.556909 87.100713 
L 460.324 99.651516 
L 465.091091 103.265443 
L 469.858182 88.032888 
L 474.625273 99.651516 
L 479.392364 87.100713 
L 484.159455 99.651516 
L 488.926545 103.265443 
L 493.693636 88.032888 
L 498.460727 99.651516 
L 503.227818 87.100713 
L 507.994909 99.651516 
L 512.762 103.265443 
L 517.529091 88.032888 
L 522.296182 99.651516 
L 527.063273 87.100713 
L 531.830364 99.651516 
L 536.597455 103.265443 
L 541.364545 103.265443 
" clip-path="url(#pce029a878e)" style="fill: none; stroke: #2ca02c; stroke-width: 1.5; stroke-linecap: square"/>
   </g>
   <g id="line2d_34">
    <path d="M 64.655455 130.056109 
L 69.422545 123.729333 
L 74.189636 123.781414 
L 78.956727 124.721968 
L 83.723818 132.142234 
L 88.490909 123.729333 
L 93.258 132.142234 
L 98.025091 124.393253 
L 102.792182 124.393253 
L 107.559273 123.729333 
L 112.326364 124.721968 
L 117.093455 132.142234 
L 121.860545 124.393253 
L 126.627636 124.393253 
L 131.394727 123.729333 
L 136.161818 124.721968 
L 140.928909 132.142234 
L 145.696 124.393253 
L 150.463091 124.393253 
L 155.230182 123.729333 
L 159.997273 124.721968 
L 164.764364 132.142234 
L 169.531455 124.393253 
L 174.298545 124.393253 
L 179.065636 123.729333 
L 183.832727 124.721968 
L 188.599818 132.142234 
L 193.366909 124.393253 
L 198.134 124.393253 
L 202.901091 123.729333 
L 207.668182 124.721968 
L 212.435273 132.142234 
L 217.202364 124.393253 
L 221.969455 124.393253 
L 226.736545 123.729333 
L 231.503636 124.721968 
L 236.270727 132.142234 
L 241.037818 124.393253 
L 245.804909 124.393253 
L 250.572 123.729333 
L 255.339091 124.721968 
L 260.106182 132.142234 
L 264.873273 124.393253 
L 269.640364 124.393253 
L 274.407455 123.729333 
L 279.174545 124.721968 
L 283.941636 132.142234 
L 288.708727 124.393253 
L 293.475818 124.393253 
L 298.242909 123.729333 
L 303.01 124.721968 
L 307.777091 132.142234 
L 312.544182 124.393253 
L 317.311273 124.393253 
L 322.078364 123.729333 
L 326.845455 124.721968 
L 331.612545 132.142234 
L 336.379636 124.393253 
L 341.146727 124.393253 
L 345.913818 123.729333 
L 350.680909 124.721968 
L 355.448 132.142234 
L 360.215091 124.393253 
L 364.982182 124.393253 
L 369.749273 123.729333 
L 374.516364 124.721968 
L 379.283455 132.142234 
L 384.050545 124.393253 
L 388.817636 124.393253 
L 393.584727 123.729333 
L 398.351818 124.721968 
L 403.118909 132.142234 
L 407.886 124.393253 
L 412.653091 124.393253 
L 417.420182 123.729333 
L 422.187273 124.721968 
L 426.954364 132.142234 
L 431.721455 124.393253 
L 436.488545 124.393253 
L 441.255636 123.729333 
L 446.022727 124.721968 
L 450.789818 132.142234 
L 455.556909 124.393253 
L 460.324 124.393253 
L 465.091091 123.729333 
L 469.858182 124.721968 
L 474.625273 132.142234 
L 479.392364 124.393253 
L 484.159455 124.393253 
L 488.926545 123.729333 
L 493.693636 124.721968 
L 498.460727 132.142234 
L 503.227818 124.393253 
L 507.994909 124.393253 
L 512.762 123.729333 
L 517.529091 124.721968 
L 522.296182 132.142234 
L 527.063273 124.393253 
L 531.830364 124.393253 
L 536.597455 123.729333 
L 541.364545 123.729333 
" clip-path="url(#pce029a878e)" style="fill: none; stroke: #d62728; stroke-width: 1.5; stroke-linecap: square"/>
   </g>
   <g id="line2d_35">
    <path d="M 64.655455 118.311457 
L 69.422545 123.508203 
L 74.189636 124.090098 
L 78.956727 124.510416 
L 83.723818 129.003994 
L 88.490909 129.003994 
L 93.258 129.003994 
L 98.025091 129.003994 
L 102.792182 129.003994 
L 107.559273 129.003994 
L 112.326364 129.003994 
L 117.093455 129.003994 
L 121.860545 124.510416 
L 126.627636 129.003994 
L 131.394727 129.003994 
L 136.161818 129.003994 
L 140.928909 129.003994 
L 145.696 124.510416 
L 150.463091 129.003994 
L 155.230182 129.003994 
L 159.997273 129.003994 
L 164.764364 129.003994 
L 169.531455 124.510416 
L 174.298545 129.003994 
L 179.065636 129.003994 
L 183.832727 129.003994 
L 188.599818 129.003994 
L 193.366909 124.510416 
L 198.134 129.003994 
L 202.901091 129.003994 
L 207.668182 129.003994 
L 212.435273 129.003994 
L 217.202364 124.510416 
L 221.969455 129.003994 
L 226.736545 129.003994 
L 231.503636 129.003994 
L 236.270727 129.003994 
L 241.037818 124.510416 
L 245.804909 129.003994 
L 250.572 129.003994 
L 255.339091 129.003994 
L 260.106182 129.003994 
L 264.873273 124.510416 
L 269.640364 129.003994 
L 274.407455 129.003994 
L 279.174545 129.003994 
L 283.941636 129.003994 
L 288.708727 124.510416 
L 293.475818 129.003994 
L 298.242909 129.003994 
L 303.01 129.003994 
L 307.777091 129.003994 
L 312.544182 124.510416 
L 317.311273 129.003994 
L 322.078364 129.003994 
L 326.845455 129.003994 
L 331.612545 129.003994 
L 336.379636 124.510416 
L 341.146727 129.003994 
L 345.913818 129.003994 
L 350.680909 129.003994 
L 355.448 129.003994 
L 360.215091 124.510416 
L 364.982182 129.003994 
L 369.749273 129.003994 
L 374.516364 129.003994 
L 379.283455 129.003994 
L 384.050545 124.510416 
L 388.817636 129.003994 
L 393.584727 129.003994 
L 398.351818 129.003994 
L 403.118909 129.003994 
L 407.886 124.510416 
L 412.653091 129.003994 
L 417.420182 129.003994 
L 422.187273 129.003994 
L 426.954364 129.003994 
L 431.721455 124.510416 
L 436.488545 129.003994 
L 441.255636 129.003994 
L 446.022727 129.003994 
L 450.789818 129.003994 
L 455.556909 124.510416 
L 460.324 129.003994 
L 465.091091 129.003994 
L 469.858182 129.003994 
L 474.625273 129.003994 
L 479.392364 124.510416 
L 484.159455 129.003994 
L 488.926545 129.003994 
L 493.693636 129.003994 
L 498.460727 129.003994 
L 503.227818 124.510416 
L 507.994909 129.003994 
L 512.762 129.003994 
L 517.529091 129.003994 
L 522.296182 129.003994 
L 527.063273 124.510416 
L 531.830364 129.003994 
L 536.597455 129.003994 
L 541.364545 129.003994 
" clip-path="url(#pce029a878e)" style="fill: none; stroke: #9467bd; stroke-width: 1.5; stroke-linecap: square"/>
   </g>
   <g id="line2d_36">
    <path d="M 64.655455 95.559655 
L 69.422545 95.542384 
L 74.189636 95.597607 
L 78.956727 96.594912 
L 83.723818 104.462907 
L 88.490909 95.542384 
L 93.258 104.462907 
L 98.025091 96.246364 
L 102.792182 96.246364 
L 107.559273 95.542384 
L 112.326364 96.594912 
L 117.093455 104.462907 
L 121.860545 96.246364 
L 126.627636 96.246364 
L 131.394727 95.542384 
L 136.161818 96.594912 
L 140.928909 104.462907 
L 145.696 96.246364 
L 150.463091 96.246364 
L 155.230182 95.542384 
L 159.997273 96.594912 
L 164.764364 104.462907 
L 169.531455 96.246364 
L 174.298545 96.246364 
L 179.065636 95.542384 
L 183.832727 96.594912 
L 188.599818 104.462907 
L 193.366909 96.246364 
L 198.134 96.246364 
L 202.901091 95.542384 
L 207.668182 96.594912 
L 212.435273 104.462907 
L 217.202364 96.246364 
L 221.969455 96.246364 
L 226.736545 95.542384 
L 231.503636 96.594912 
L 236.270727 104.462907 
L 241.037818 96.246364 
L 245.804909 96.246364 
L 250.572 95.542384 
L 255.339091 96.594912 
L 260.106182 104.462907 
L 264.873273 96.246364 
L 269.640364 96.246364 
L 274.407455 95.542384 
L 279.174545 96.594912 
L 283.941636 104.462907 
L 288.708727 96.246364 
L 293.475818 96.246364 
L 298.242909 95.542384 
L 303.01 96.594912 
L 307.777091 104.462907 
L 312.544182 96.246364 
L 317.311273 96.246364 
L 322.078364 95.542384 
L 326.845455 96.594912 
L 331.612545 104.462907 
L 336.379636 96.246364 
L 341.146727 96.246364 
L 345.913818 95.542384 
L 350.680909 96.594912 
L 355.448 104.462907 
L 360.215091 96.246364 
L 364.982182 96.246364 
L 369.749273 95.542384 
L 374.516364 96.594912 
L 379.283455 104.462907 
L 384.050545 96.246364 
L 388.817636 96.246364 
L 393.584727 95.542384 
L 398.351818 96.594912 
L 403.118909 104.462907 
L 407.886 96.246364 
L 412.653091 96.246364 
L 417.420182 95.542384 
L 422.187273 96.594912 
L 426.954364 104.462907 
L 431.721455 96.246364 
L 436.488545 96.246364 
L 441.255636 95.542384 
L 446.022727 96.594912 
L 450.789818 104.462907 
L 455.556909 96.246364 
L 460.324 96.246364 
L 465.091091 95.542384 
L 469.858182 96.594912 
L 474.625273 104.462907 
L 479.392364 96.246364 
L 484.159455 96.246364 
L 488.926545 95.542384 
L 493.693636 96.594912 
L 498.460727 104.462907 
L 503.227818 96.246364 
L 507.994909 96.246364 
L 512.762 95.542384 
L 517.529091 96.594912 
L 522.296182 104.462907 
L 527.063273 96.246364 
L 531.830364 96.246364 
L 536.597455 95.542384 
L 541.364545 95.542384 
" clip-path="url(#pce029a878e)" style="fill: none; stroke: #8c564b; stroke-width: 1.5; stroke-linecap: square"/>
   </g>
   <g id="line2d_37">
    <path d="M 64.655455 144.611259 
L 69.422545 145.369403 
L 74.189636 151.227087 
L 78.956727 151.227087 
L 83.723818 145.092777 
L 88.490909 145.369403 
L 93.258 151.227087 
L 98.025091 145.369403 
L 102.792182 151.227087 
L 107.559273 145.092777 
L 112.326364 145.092777 
L 117.093455 145.092777 
L 121.860545 145.369403 
L 126.627636 151.227087 
L 131.394727 145.092777 
L 136.161818 145.092777 
L 140.928909 145.092777 
L 145.696 145.369403 
L 150.463091 151.227087 
L 155.230182 145.092777 
L 159.997273 145.092777 
L 164.764364 145.092777 
L 169.531455 145.369403 
L 174.298545 151.227087 
L 179.065636 145.092777 
L 183.832727 145.092777 
L 188.599818 145.092777 
L 193.366909 145.369403 
L 198.134 151.227087 
L 202.901091 145.092777 
L 207.668182 145.092777 
L 212.435273 145.092777 
L 217.202364 145.369403 
L 221.969455 151.227087 
L 226.736545 145.092777 
L 231.503636 145.092777 
L 236.270727 145.092777 
L 241.037818 145.369403 
L 245.804909 151.227087 
L 250.572 145.092777 
L 255.339091 145.092777 
L 260.106182 145.092777 
L 264.873273 145.369403 
L 269.640364 151.227087 
L 274.407455 145.092777 
L 279.174545 145.092777 
L 283.941636 145.092777 
L 288.708727 145.369403 
L 293.475818 151.227087 
L 298.242909 145.092777 
L 303.01 145.092777 
L 307.777091 145.092777 
L 312.544182 145.369403 
L 317.311273 151.227087 
L 322.078364 145.092777 
L 326.845455 145.092777 
L 331.612545 145.092777 
L 336.379636 145.369403 
L 341.146727 151.227087 
L 345.913818 145.092777 
L 350.680909 145.092777 
L 355.448 145.092777 
L 360.215091 145.369403 
L 364.982182 151.227087 
L 369.749273 145.092777 
L 374.516364 145.092777 
L 379.283455 145.092777 
L 384.050545 145.369403 
L 388.817636 151.227087 
L 393.584727 145.092777 
L 398.351818 145.092777 
L 403.118909 145.092777 
L 407.886 145.369403 
L 412.653091 151.227087 
L 417.420182 145.092777 
L 422.187273 145.092777 
L 426.954364 145.092777 
L 431.721455 145.369403 
L 436.488545 151.227087 
L 441.255636 145.092777 
L 446.022727 145.092777 
L 450.789818 145.092777 
L 455.556909 145.369403 
L 460.324 151.227087 
L 465.091091 145.092777 
L 469.858182 145.092777 
L 474.625273 145.092777 
L 479.392364 145.369403 
L 484.159455 151.227087 
L 488.926545 145.092777 
L 493.693636 145.092777 
L 498.460727 145.092777 
L 503.227818 145.369403 
L 507.994909 151.227087 
L 512.762 145.092777 
L 517.529091 145.092777 
L 522.296182 145.092777 
L 527.063273 145.369403 
L 531.830364 151.227087 
L 536.597455 145.092777 
L 541.364545 145.092777 
" clip-path="url(#pce029a878e)" style="fill: none; stroke: #e377c2; stroke-width: 1.5; stroke-linecap: square"/>
   </g>
   <g id="line2d_38">
    <path d="M 64.655455 135.151704 
L 69.422545 132.981609 
L 74.189636 112.906069 
L 78.956727 136.081777 
L 83.723818 112.906069 
L 88.490909 132.981609 
L 93.258 112.906069 
L 98.025091 132.981609 
L 102.792182 112.906069 
L 107.559273 135.151704 
L 112.326364 132.126972 
L 117.093455 112.906069 
L 121.860545 136.081777 
L 126.627636 112.906069 
L 131.394727 135.151704 
L 136.161818 132.126972 
L 140.928909 112.906069 
L 145.696 136.081777 
L 150.463091 112.906069 
L 155.230182 135.151704 
L 159.997273 132.126972 
L 164.764364 112.906069 
L 169.531455 136.081777 
L 174.298545 112.906069 
L 179.065636 135.151704 
L 183.832727 132.126972 
L 188.599818 112.906069 
L 193.366909 136.081777 
L 198.134 112.906069 
L 202.901091 135.151704 
L 207.668182 132.126972 
L 212.435273 112.906069 
L 217.202364 136.081777 
L 221.969455 112.906069 
L 226.736545 135.151704 
L 231.503636 132.126972 
L 236.270727 112.906069 
L 241.037818 136.081777 
L 245.804909 112.906069 
L 250.572 135.151704 
L 255.339091 132.126972 
L 260.106182 112.906069 
L 264.873273 136.081777 
L 269.640364 112.906069 
L 274.407455 135.151704 
L 279.174545 132.126972 
L 283.941636 112.906069 
L 288.708727 136.081777 
L 293.475818 112.906069 
L 298.242909 135.151704 
L 303.01 132.126972 
L 307.777091 112.906069 
L 312.544182 136.081777 
L 317.311273 112.906069 
L 322.078364 135.151704 
L 326.845455 132.126972 
L 331.612545 112.906069 
L 336.379636 136.081777 
L 341.146727 112.906069 
L 345.913818 135.151704 
L 350.680909 132.126972 
L 355.448 112.906069 
L 360.215091 136.081777 
L 364.982182 112.906069 
L 369.749273 135.151704 
L 374.516364 132.126972 
L 379.283455 112.906069 
L 384.050545 136.081777 
L 388.817636 112.906069 
L 393.584727 135.151704 
L 398.351818 132.126972 
L 403.118909 112.906069 
L 407.886 136.081777 
L 412.653091 112.906069 
L 417.420182 135.151704 
L 422.187273 132.126972 
L 426.954364 112.906069 
L 431.721455 136.081777 
L 436.488545 112.906069 
L 441.255636 135.151704 
L 446.022727 132.126972 
L 450.789818 112.906069 
L 455.556909 136.081777 
L 460.324 112.906069 
L 465.091091 135.151704 
L 469.858182 132.126972 
L 474.625273 112.906069 
L 479.392364 136.081777 
L 484.159455 112.906069 
L 488.926545 135.151704 
L 493.693636 132.126972 
L 498.460727 112.906069 
L 503.227818 136.081777 
L 507.994909 112.906069 
L 512.762 135.151704 
L 517.529091 132.126972 
L 522.296182 112.906069 
L 527.063273 136.081777 
L 531.830364 112.906069 
L 536.597455 135.151704 
L 541.364545 135.151704 
" clip-path="url(#pce029a878e)" style="fill: none; stroke: #7f7f7f; stroke-width: 1.5; stroke-linecap: square"/>
   </g>
   <g id="line2d_39">
    <path d="M 64.655455 99.571595 
L 69.422545 94.033982 
L 74.189636 94.033982 
L 78.956727 86.48507 
L 83.723818 92.849155 
L 88.490909 94.033982 
L 93.258 90.353664 
L 98.025091 80.838281 
L 102.792182 86.48507 
L 107.559273 76.857468 
L 112.326364 76.857468 
L 117.093455 90.353664 
L 121.860545 80.838281 
L 126.627636 86.48507 
L 131.394727 76.857468 
L 136.161818 76.857468 
L 140.928909 90.353664 
L 145.696 80.838281 
L 150.463091 86.48507 
L 155.230182 76.857468 
L 159.997273 76.857468 
L 164.764364 90.353664 
L 169.531455 80.838281 
L 174.298545 86.48507 
L 179.065636 76.857468 
L 183.832727 76.857468 
L 188.599818 90.353664 
L 193.366909 80.838281 
L 198.134 86.48507 
L 202.901091 76.857468 
L 207.668182 76.857468 
L 212.435273 90.353664 
L 217.202364 80.838281 
L 221.969455 86.48507 
L 226.736545 76.857468 
L 231.503636 76.857468 
L 236.270727 90.353664 
L 241.037818 80.838281 
L 245.804909 86.48507 
L 250.572 76.857468 
L 255.339091 76.857468 
L 260.106182 90.353664 
L 264.873273 80.838281 
L 269.640364 86.48507 
L 274.407455 76.857468 
L 279.174545 76.857468 
L 283.941636 90.353664 
L 288.708727 80.838281 
L 293.475818 86.48507 
L 298.242909 76.857468 
L 303.01 76.857468 
L 307.777091 90.353664 
L 312.544182 80.838281 
L 317.311273 86.48507 
L 322.078364 76.857468 
L 326.845455 76.857468 
L 331.612545 90.353664 
L 336.379636 80.838281 
L 341.146727 86.48507 
L 345.913818 76.857468 
L 350.680909 76.857468 
L 355.448 90.353664 
L 360.215091 80.838281 
L 364.982182 86.48507 
L 369.749273 76.857468 
L 374.516364 76.857468 
L 379.283455 90.353664 
L 384.050545 80.838281 
L 388.817636 86.48507 
L 393.584727 76.857468 
L 398.351818 76.857468 
L 403.118909 90.353664 
L 407.886 80.838281 
L 412.653091 86.48507 
L 417.420182 76.857468 
L 422.187273 76.857468 
L 426.954364 90.353664 
L 431.721455 80.838281 
L 436.488545 86.48507 
L 441.255636 76.857468 
L 446.022727 76.857468 
L 450.789818 90.353664 
L 455.556909 80.838281 
L 460.324 86.48507 
L 465.091091 76.857468 
L 469.858182 76.857468 
L 474.625273 90.353664 
L 479.392364 80.838281 
L 484.159455 86.48507 
L 488.926545 76.857468 
L 493.693636 76.857468 
L 498.460727 90.353664 
L 503.227818 80.838281 
L 507.994909 86.48507 
L 512.762 76.857468 
L 517.529091 76.857468 
L 522.296182 90.353664 
L 527.063273 80.838281 
L 531.830364 86.48507 
L 536.597455 76.857468 
L 541.364545 76.857468 
" clip-path="url(#pce029a878e)" style="fill: none; stroke: #bcbd22; stroke-width: 1.5; stroke-linecap: square"/>
   </g>
   <g id="line2d_40">
    <path d="M 64.655455 141.216768 
L 69.422545 143.237838 
L 74.189636 143.237838 
L 78.956727 142.231933 
L 83.723818 135.509493 
L 88.490909 143.237838 
L 93.258 142.231933 
L 98.025091 142.476464 
L 102.792182 143.073789 
L 107.559273 143.073789 
L 112.326364 143.073789 
L 117.093455 143.073789 
L 121.860545 143.073789 
L 126.627636 143.073789 
L 131.394727 143.073789 
L 136.161818 143.073789 
L 140.928909 143.073789 
L 145.696 143.073789 
L 150.463091 143.073789 
L 155.230182 143.073789 
L 159.997273 143.073789 
L 164.764364 143.073789 
L 169.531455 143.073789 
L 174.298545 143.073789 
L 179.065636 143.073789 
L 183.832727 143.073789 
L 188.599818 143.073789 
L 193.366909 143.073789 
L 198.134 143.073789 
L 202.901091 143.073789 
L 207.668182 143.073789 
L 212.435273 143.073789 
L 217.202364 143.073789 
L 221.969455 143.073789 
L 226.736545 143.073789 
L 231.503636 143.073789 
L 236.270727 143.073789 
L 241.037818 143.073789 
L 245.804909 143.073789 
L 250.572 143.073789 
L 255.339091 143.073789 
L 260.106182 143.073789 
L 264.873273 143.073789 
L 269.640364 143.073789 
L 274.407455 143.073789 
L 279.174545 143.073789 
L 283.941636 143.073789 
L 288.708727 143.073789 
L 293.475818 143.073789 
L 298.242909 143.073789 
L 303.01 143.073789 
L 307.777091 143.073789 
L 312.544182 143.073789 
L 317.311273 143.073789 
L 322.078364 143.073789 
L 326.845455 143.073789 
L 331.612545 143.073789 
L 336.379636 143.073789 
L 341.146727 143.073789 
L 345.913818 143.073789 
L 350.680909 143.073789 
L 355.448 143.073789 
L 360.215091 143.073789 
L 364.982182 143.073789 
L 369.749273 143.073789 
L 374.516364 143.073789 
L 379.283455 143.073789 
L 384.050545 143.073789 
L 388.817636 143.073789 
L 393.584727 143.073789 
L 398.351818 143.073789 
L 403.118909 143.073789 
L 407.886 143.073789 
L 412.653091 143.073789 
L 417.420182 143.073789 
L 422.187273 143.073789 
L 426.954364 143.073789 
L 431.721455 143.073789 
L 436.488545 143.073789 
L 441.255636 143.073789 
L 446.022727 143.073789 
L 450.789818 143.073789 
L 455.556909 143.073789 
L 460.324 143.073789 
L 465.091091 143.073789 
L 469.858182 143.073789 
L 474.625273 143.073789 
L 479.392364 143.073789 
L 484.159455 143.073789 
L 488.926545 143.073789 
L 493.693636 143.073789 
L 498.460727 143.073789 
L 503.227818 143.073789 
L 507.994909 143.073789 
L 512.762 143.073789 
L 517.529091 143.073789 
L 522.296182 143.073789 
L 527.063273 143.073789 
L 531.830364 143.073789 
L 536.597455 143.073789 
L 541.364545 143.073789 
" clip-path="url(#pce029a878e)" style="fill: none; stroke: #17becf; stroke-width: 1.5; stroke-linecap: square"/>
   </g>
   <g id="patch_3">
    <path d="M 40.82 248.2 
L 40.82 10.8 
" style="fill: none; stroke: #000000; stroke-width: 0.8; stroke-linejoin: miter; stroke-linecap: square"/>
   </g>
   <g id="patch_4">
    <path d="M 565.2 248.2 
L 565.2 10.8 
" style="fill: none; stroke: #000000; stroke-width: 0.8; stroke-linejoin: miter; stroke-linecap: square"/>
   </g>
   <g id="patch_5">
    <path d="M 40.82 248.2 
L 565.2 248.2 
" style="fill: none; stroke: #000000; stroke-width: 0.8; stroke-linejoin: miter; stroke-linecap: square"/>
   </g>
   <g id="patch_6">
    <path d="M 40.82 10.8 
L 565.2 10.8 
" style="fill: none; stroke: #000000; stroke-width: 0.8; stroke-linejoin: miter; stroke-linecap: square"/>
   </g>
  </g>
 </g>
 <defs>
  <clipPath id="pce029a878e">
   <rect x="40.82" y="10.8" width="524.38" height="237.4"/>
  </clipPath>
 </defs>
</svg>
